<?xml version="1.0" encoding="UTF-8"?>
<svg width="40px" height="36px" viewBox="0 0 40 36" version="1.1" xmlns="http://www.w3.org/2000/svg" xmlns:xlink="http://www.w3.org/1999/xlink">
    <!-- Generator: Sketch 55.2 (78181) - https://sketchapp.com -->
    <title>logo_40</title>
    <desc>Created with Sketch.</desc>
    <defs>
        <linearGradient x1="40.3694823%" y1="43.7097185%" x2="8.80482184%" y2="19.7902689%" id="linearGradient-1">
            <stop stop-color="#323A4A" offset="0%"></stop>
            <stop stop-color="#1A1F2A" offset="100%"></stop>
        </linearGradient>
        <path d="M10.1349791,20.9544734 C10.178047,20.4186006 10.5438698,19.8048179 11.2324475,19.1131255 L11.448514,19.3776846 L9.87078828,14.9160447 C9.86515543,14.9162044 9.85951688,14.9163612 9.85387261,14.9165149 L3.67352205,14.9165149 L0.133510191,10.188671 C-0.00130724587,9.81660478 -0.0340215709,9.52701326 0.0353672159,9.3198964 C0.104756003,9.11277954 0.293994594,8.93516568 0.603082988,8.78705481 L7.11961201,6.99456067 L8.442305,5.43697427 L9.3193435,5.23868757 L9.3193435,2.06667725 L9.78345522,1.7107607 L10.2305273,2.06667725 L11.8210127,4.0472513 L11.8639011,1.03547218 C12.2024252,0.699888858 12.4187751,0.532097198 12.512951,0.532097198 C12.5851477,0.532097198 13.8649513,1.98297751 16.3523618,4.88473812 L20.8972691,9.98495515 C18.0446589,14.1229331 14.4572289,17.7794391 10.1349791,20.9544734 Z M28.0526136,0.104847563 C28.1571288,0.159423541 28.2946462,0.24575234 28.4651659,0.36383396 L28.949707,2.89974545 L29.9997379,0.990772995 L30.3247811,0.623681573 L30.7701821,0.854922897 L31.2423083,3.5324832 L32.0133944,3.56910184 L33.3636201,4.68669036 L39.1404163,5.22821069 C39.4238085,5.3071516 39.610254,5.42886524 39.6997526,5.59335162 C39.7892513,5.75783799 39.8046932,6.00716569 39.7460782,6.34133472 L37.4565478,10.8599938 L32.2308018,11.7814338 C32.2222933,11.7826967 32.2137985,11.7839488 32.2053176,11.7851904 L31.7890783,13.313947 L39.2872656,15.3618944 C39.6525518,15.535698 39.8761975,15.7441224 39.9582024,15.9871677 C40.0402073,16.230213 40.0015449,16.5700398 39.8422152,17.006648 L35.6585648,22.5546282 L28.3545142,22.5546282 C28.3478437,22.5544478 28.3411799,22.5542639 28.3345229,22.5540764 L26.469938,27.7896742 L26.7252893,27.4792223 C28.4391001,29.1886236 28.4611382,30.4925327 26.7914036,31.3909498 C26.4378439,31.5811861 25.8845568,31.5546509 25.1955168,31.3681419 L25.1551077,31.4816072 C26.675407,31.5069114 26.5307033,33.2276633 26.2500191,33.7301174 C26.0692294,34.0537498 25.3628888,34.7161168 24.0527472,34.576943 L23.5565006,35.9703619 C20.1402237,34.9235556 17.2037105,33.4405781 14.7469607,31.5214293 C12.290211,29.6022804 10.2324252,27.1838417 8.57360337,24.2661133 L9.17634883,23.5945009 C16.6057002,17.1984411 22.8977874,9.36855754 28.0526136,0.104847563 Z" id="path-2"></path>
        <linearGradient x1="42.1391565%" y1="42.1764727%" x2="16.3747206%" y2="12.4266963%" id="linearGradient-4">
            <stop stop-color="#323A4A" offset="0%"></stop>
            <stop stop-color="#1A1F2A" offset="100%"></stop>
        </linearGradient>
        <radialGradient cx="88.8679751%" cy="100%" fx="88.8679751%" fy="100%" r="70.6872017%" gradientTransform="translate(0.888680,1.000000),scale(0.845876,1.000000),rotate(-130.545133),scale(1.000000,2.367561),translate(-0.888680,-1.000000)" id="radialGradient-5">
            <stop stop-color="#798294" offset="0%"></stop>
            <stop stop-color="#444B5B" offset="100%"></stop>
        </radialGradient>
        <polygon id="path-6" points="10.7498713 2.77208163 0.101560176 7.10542736e-15 -3.55271368e-15 0.414800665 10.7498713 3.13595855"></polygon>
        <filter x="-7.5%" y="-25.7%" width="114.4%" height="151.9%" filterUnits="objectBoundingBox" id="filter-7">
            <feGaussianBlur stdDeviation="0.5" in="SourceAlpha" result="shadowBlurInner1"></feGaussianBlur>
            <feOffset dx="0" dy="0" in="shadowBlurInner1" result="shadowOffsetInner1"></feOffset>
            <feComposite in="shadowOffsetInner1" in2="SourceAlpha" operator="arithmetic" k2="-1" k3="1" result="shadowInnerInner1"></feComposite>
            <feColorMatrix values="0 0 0 0 0.096087722   0 0 0 0 0.116339125   0 0 0 0 0.16089221  0 0 0 1 0" type="matrix" in="shadowInnerInner1"></feColorMatrix>
        </filter>
        <polygon id="path-8" points="10.7498713 3.69473609 0.101560176 0.922654462 -3.55271368e-15 1.33745513 10.7498713 4.05861301"></polygon>
        <filter x="-7.5%" y="-25.7%" width="114.4%" height="151.9%" filterUnits="objectBoundingBox" id="filter-9">
            <feGaussianBlur stdDeviation="0.5" in="SourceAlpha" result="shadowBlurInner1"></feGaussianBlur>
            <feOffset dx="0" dy="0" in="shadowBlurInner1" result="shadowOffsetInner1"></feOffset>
            <feComposite in="shadowOffsetInner1" in2="SourceAlpha" operator="arithmetic" k2="-1" k3="1" result="shadowInnerInner1"></feComposite>
            <feColorMatrix values="0 0 0 0 0.096087722   0 0 0 0 0.116339125   0 0 0 0 0.16089221  0 0 0 1 0" type="matrix" in="shadowInnerInner1"></feColorMatrix>
        </filter>
        <polygon id="path-10" points="10.7498713 2.77208163 0.101560176 7.10542736e-15 -3.55271368e-15 0.414800665 10.7498713 3.13595855"></polygon>
        <filter x="-7.5%" y="-25.7%" width="114.4%" height="151.9%" filterUnits="objectBoundingBox" id="filter-11">
            <feGaussianBlur stdDeviation="0.5" in="SourceAlpha" result="shadowBlurInner1"></feGaussianBlur>
            <feOffset dx="0" dy="0" in="shadowBlurInner1" result="shadowOffsetInner1"></feOffset>
            <feComposite in="shadowOffsetInner1" in2="SourceAlpha" operator="arithmetic" k2="-1" k3="1" result="shadowInnerInner1"></feComposite>
            <feColorMatrix values="0 0 0 0 0.096087722   0 0 0 0 0.116339125   0 0 0 0 0.16089221  0 0 0 1 0" type="matrix" in="shadowInnerInner1"></feColorMatrix>
        </filter>
        <polygon id="path-12" points="10.7498713 3.69473609 0.101560176 0.922654462 -3.55271368e-15 1.33745513 10.7498713 4.05861301"></polygon>
        <filter x="-7.5%" y="-25.7%" width="114.4%" height="151.9%" filterUnits="objectBoundingBox" id="filter-13">
            <feGaussianBlur stdDeviation="0.5" in="SourceAlpha" result="shadowBlurInner1"></feGaussianBlur>
            <feOffset dx="0" dy="0" in="shadowBlurInner1" result="shadowOffsetInner1"></feOffset>
            <feComposite in="shadowOffsetInner1" in2="SourceAlpha" operator="arithmetic" k2="-1" k3="1" result="shadowInnerInner1"></feComposite>
            <feColorMatrix values="0 0 0 0 0.096087722   0 0 0 0 0.116339125   0 0 0 0 0.16089221  0 0 0 1 0" type="matrix" in="shadowInnerInner1"></feColorMatrix>
        </filter>
        <polygon id="path-14" points="10.2231636 14.2705002 12.3212815 8.09823059 18.9598923 8.07487621 13.9137303 24.8763323"></polygon>
        <filter x="-8.4%" y="-4.5%" width="118.0%" height="112.3%" filterUnits="objectBoundingBox" id="filter-15">
            <feGaussianBlur stdDeviation="0.5" in="SourceAlpha" result="shadowBlurInner1"></feGaussianBlur>
            <feOffset dx="0" dy="0" in="shadowBlurInner1" result="shadowOffsetInner1"></feOffset>
            <feComposite in="shadowOffsetInner1" in2="SourceAlpha" operator="arithmetic" k2="-1" k3="1" result="shadowInnerInner1"></feComposite>
            <feColorMatrix values="0 0 0 0 0.096087722   0 0 0 0 0.116339125   0 0 0 0 0.16089221  0 0 0 1 0" type="matrix" in="shadowInnerInner1"></feColorMatrix>
        </filter>
        <linearGradient x1="89.9145688%" y1="136.373798%" x2="64.0003076%" y2="23.1862882%" id="linearGradient-16">
            <stop stop-color="#323A4A" offset="0%"></stop>
            <stop stop-color="#1A1F2A" offset="100%"></stop>
        </linearGradient>
        <linearGradient x1="158.227639%" y1="66.29283%" x2="50%" y2="52.8345887%" id="linearGradient-17">
            <stop stop-color="#323A4A" offset="0%"></stop>
            <stop stop-color="#1A1F2A" offset="100%"></stop>
        </linearGradient>
        <linearGradient x1="63.7862836%" y1="107.809614%" x2="41.7818006%" y2="31.7855714%" id="linearGradient-18">
            <stop stop-color="#323A4A" offset="0%"></stop>
            <stop stop-color="#1A1F2A" offset="100%"></stop>
        </linearGradient>
        <linearGradient x1="69.4487576%" y1="47.2997771%" x2="31.2561972%" y2="60.2868308%" id="linearGradient-19">
            <stop stop-color="#323A4A" offset="0%"></stop>
            <stop stop-color="#1A1F2A" offset="100%"></stop>
        </linearGradient>
        <linearGradient x1="69.4487576%" y1="45.3362163%" x2="31.2561972%" y2="67.7672566%" id="linearGradient-20">
            <stop stop-color="#323A4A" offset="0%"></stop>
            <stop stop-color="#1A1F2A" offset="100%"></stop>
        </linearGradient>
        <path d="M14.2619148,13.1772914 C13.3404946,14.3487956 12.1284604,14.8738527 10.6258122,14.7524628 L12.0692597,18.8898965 C12.8775783,19.5951631 14.0455439,19.5951631 15.5731566,18.8898965 C17.1007693,18.18463 19.3557446,16.9445781 22.3380825,15.1697407 L14.2619148,13.1772914 Z" id="path-21"></path>
        <filter x="-7.4%" y="-12.5%" width="117.2%" height="124.5%" filterUnits="objectBoundingBox" id="filter-22">
            <feGaussianBlur stdDeviation="0.5" in="SourceAlpha" result="shadowBlurInner1"></feGaussianBlur>
            <feOffset dx="0" dy="0" in="shadowBlurInner1" result="shadowOffsetInner1"></feOffset>
            <feComposite in="shadowOffsetInner1" in2="SourceAlpha" operator="arithmetic" k2="-1" k3="1" result="shadowInnerInner1"></feComposite>
            <feColorMatrix values="0 0 0 0 0.096087722   0 0 0 0 0.116339125   0 0 0 0 0.16089221  0 0 0 1 0" type="matrix" in="shadowInnerInner1"></feColorMatrix>
        </filter>
        <path d="M11.7656028,7.79316037 L11.7656028,8.93734206 C13.0293015,9.20347595 13.9016058,9.79231655 14.3825157,10.7038639 L23.3289371,13.1772914 L23.5080924,12.9383617 L18.7902194,7.79316037 L11.7656028,7.79316037 Z" id="path-23"></path>
        <filter x="-6.4%" y="-13.9%" width="113.4%" height="128.5%" filterUnits="objectBoundingBox" id="filter-24">
            <feGaussianBlur stdDeviation="0.5" in="SourceAlpha" result="shadowBlurInner1"></feGaussianBlur>
            <feOffset dx="0" dy="0" in="shadowBlurInner1" result="shadowOffsetInner1"></feOffset>
            <feComposite in="shadowOffsetInner1" in2="SourceAlpha" operator="arithmetic" k2="-1" k3="1" result="shadowInnerInner1"></feComposite>
            <feColorMatrix values="0 0 0 0 0.096087722   0 0 0 0 0.116339125   0 0 0 0 0.16089221  0 0 0 1 0" type="matrix" in="shadowInnerInner1"></feColorMatrix>
        </filter>
        <linearGradient x1="42.1126667%" y1="42.1764727%" x2="16.2614088%" y2="12.4266963%" id="linearGradient-25">
            <stop stop-color="#323A4A" offset="0%"></stop>
            <stop stop-color="#1A1F2A" offset="100%"></stop>
        </linearGradient>
        <radialGradient cx="88.8679751%" cy="100%" fx="88.8679751%" fy="100%" r="71.5471772%" gradientTransform="translate(0.888680,1.000000),scale(0.822390,1.000000),rotate(-131.343707),scale(1.000000,2.367561),translate(-0.888680,-1.000000)" id="radialGradient-26">
            <stop stop-color="#798294" offset="0%"></stop>
            <stop stop-color="#444B5B" offset="100%"></stop>
        </radialGradient>
        <polygon id="path-27" points="9.22968746 2.37606997 0.0871981306 7.10542736e-15 -3.55271368e-15 0.355543427 9.22968746 2.68796447"></polygon>
        <filter x="-8.7%" y="-30.0%" width="116.8%" height="160.5%" filterUnits="objectBoundingBox" id="filter-28">
            <feGaussianBlur stdDeviation="0.5" in="SourceAlpha" result="shadowBlurInner1"></feGaussianBlur>
            <feOffset dx="0" dy="0" in="shadowBlurInner1" result="shadowOffsetInner1"></feOffset>
            <feComposite in="shadowOffsetInner1" in2="SourceAlpha" operator="arithmetic" k2="-1" k3="1" result="shadowInnerInner1"></feComposite>
            <feColorMatrix values="0 0 0 0 0.096087722   0 0 0 0 0.116339125   0 0 0 0 0.16089221  0 0 0 1 0" type="matrix" in="shadowInnerInner1"></feColorMatrix>
        </filter>
        <polygon id="path-29" points="9.22968746 3.16691665 0.0871981306 0.790846682 -3.55271368e-15 1.14639011 9.22968746 3.47881115"></polygon>
        <filter x="-8.7%" y="-30.0%" width="116.8%" height="160.5%" filterUnits="objectBoundingBox" id="filter-30">
            <feGaussianBlur stdDeviation="0.5" in="SourceAlpha" result="shadowBlurInner1"></feGaussianBlur>
            <feOffset dx="0" dy="0" in="shadowBlurInner1" result="shadowOffsetInner1"></feOffset>
            <feComposite in="shadowOffsetInner1" in2="SourceAlpha" operator="arithmetic" k2="-1" k3="1" result="shadowInnerInner1"></feComposite>
            <feColorMatrix values="0 0 0 0 0.096087722   0 0 0 0 0.116339125   0 0 0 0 0.16089221  0 0 0 1 0" type="matrix" in="shadowInnerInner1"></feColorMatrix>
        </filter>
        <polygon id="path-31" points="9.22968746 2.37606997 0.0871981306 7.10542736e-15 -3.55271368e-15 0.355543427 9.22968746 2.68796447"></polygon>
        <filter x="-8.7%" y="-30.0%" width="116.8%" height="160.5%" filterUnits="objectBoundingBox" id="filter-32">
            <feGaussianBlur stdDeviation="0.5" in="SourceAlpha" result="shadowBlurInner1"></feGaussianBlur>
            <feOffset dx="0" dy="0" in="shadowBlurInner1" result="shadowOffsetInner1"></feOffset>
            <feComposite in="shadowOffsetInner1" in2="SourceAlpha" operator="arithmetic" k2="-1" k3="1" result="shadowInnerInner1"></feComposite>
            <feColorMatrix values="0 0 0 0 0.096087722   0 0 0 0 0.116339125   0 0 0 0 0.16089221  0 0 0 1 0" type="matrix" in="shadowInnerInner1"></feColorMatrix>
        </filter>
        <polygon id="path-33" points="9.22968746 3.16691665 0.0871981306 0.790846682 -3.55271368e-15 1.14639011 9.22968746 3.47881115"></polygon>
        <filter x="-8.7%" y="-30.0%" width="116.8%" height="160.5%" filterUnits="objectBoundingBox" id="filter-34">
            <feGaussianBlur stdDeviation="0.5" in="SourceAlpha" result="shadowBlurInner1"></feGaussianBlur>
            <feOffset dx="0" dy="0" in="shadowBlurInner1" result="shadowOffsetInner1"></feOffset>
            <feComposite in="shadowOffsetInner1" in2="SourceAlpha" operator="arithmetic" k2="-1" k3="1" result="shadowInnerInner1"></feComposite>
            <feColorMatrix values="0 0 0 0 0.096087722   0 0 0 0 0.116339125   0 0 0 0 0.16089221  0 0 0 1 0" type="matrix" in="shadowInnerInner1"></feColorMatrix>
        </filter>
        <polygon id="path-35" points="8.77746374 12.2318573 10.5788781 6.9413405 16.2786954 6.92132247 13.2107067 20.979828"></polygon>
        <filter x="-9.8%" y="-5.3%" width="120.6%" height="114.2%" filterUnits="objectBoundingBox" id="filter-36">
            <feGaussianBlur stdDeviation="0.5" in="SourceAlpha" result="shadowBlurInner1"></feGaussianBlur>
            <feOffset dx="0" dy="0" in="shadowBlurInner1" result="shadowOffsetInner1"></feOffset>
            <feComposite in="shadowOffsetInner1" in2="SourceAlpha" operator="arithmetic" k2="-1" k3="1" result="shadowInnerInner1"></feComposite>
            <feColorMatrix values="0 0 0 0 0.096087722   0 0 0 0 0.116339125   0 0 0 0 0.16089221  0 0 0 1 0" type="matrix" in="shadowInnerInner1"></feColorMatrix>
        </filter>
        <linearGradient x1="90.0490744%" y1="136.373798%" x2="64.0474864%" y2="23.1862882%" id="linearGradient-37">
            <stop stop-color="#323A4A" offset="0%"></stop>
            <stop stop-color="#1A1F2A" offset="100%"></stop>
        </linearGradient>
        <linearGradient x1="158.227639%" y1="66.2381103%" x2="50%" y2="52.8250687%" id="linearGradient-38">
            <stop stop-color="#323A4A" offset="0%"></stop>
            <stop stop-color="#1A1F2A" offset="100%"></stop>
        </linearGradient>
        <linearGradient x1="63.8327411%" y1="107.809614%" x2="41.7541066%" y2="31.7855714%" id="linearGradient-39">
            <stop stop-color="#323A4A" offset="0%"></stop>
            <stop stop-color="#1A1F2A" offset="100%"></stop>
        </linearGradient>
        <linearGradient x1="69.4487576%" y1="47.3088458%" x2="31.2561972%" y2="60.2522823%" id="linearGradient-40">
            <stop stop-color="#323A4A" offset="0%"></stop>
            <stop stop-color="#1A1F2A" offset="100%"></stop>
        </linearGradient>
        <linearGradient x1="69.4487576%" y1="45.3518798%" x2="31.2561972%" y2="67.7075849%" id="linearGradient-41">
            <stop stop-color="#323A4A" offset="0%"></stop>
            <stop stop-color="#1A1F2A" offset="100%"></stop>
        </linearGradient>
        <path d="M12.2450784,11.2948212 C11.45396,12.2989677 10.4133246,12.7490166 9.12317212,12.6449681 L10.3624957,16.1913399 C11.0565066,16.795854 12.0593054,16.795854 13.370892,16.1913399 C14.6824787,15.5868257 16.6185686,14.5239241 19.1791617,13.0026348 L12.2450784,11.2948212 Z" id="path-42"></path>
        <filter x="-8.6%" y="-14.6%" width="120.0%" height="128.6%" filterUnits="objectBoundingBox" id="filter-43">
            <feGaussianBlur stdDeviation="0.5" in="SourceAlpha" result="shadowBlurInner1"></feGaussianBlur>
            <feOffset dx="0" dy="0" in="shadowBlurInner1" result="shadowOffsetInner1"></feOffset>
            <feComposite in="shadowOffsetInner1" in2="SourceAlpha" operator="arithmetic" k2="-1" k3="1" result="shadowInnerInner1"></feComposite>
            <feColorMatrix values="0 0 0 0 0.096087722   0 0 0 0 0.116339125   0 0 0 0 0.16089221  0 0 0 1 0" type="matrix" in="shadowInnerInner1"></feColorMatrix>
        </filter>
        <path d="M10.1017801,6.67985175 L10.1017801,7.66057891 C11.186774,7.88869367 11.9357221,8.39341418 12.3486246,9.17474044 L20.0298955,11.2948212 L20.1837157,11.0900243 L16.1330166,6.67985175 L10.1017801,6.67985175 Z" id="path-44"></path>
        <filter x="-7.4%" y="-16.3%" width="115.6%" height="133.3%" filterUnits="objectBoundingBox" id="filter-45">
            <feGaussianBlur stdDeviation="0.5" in="SourceAlpha" result="shadowBlurInner1"></feGaussianBlur>
            <feOffset dx="0" dy="0" in="shadowBlurInner1" result="shadowOffsetInner1"></feOffset>
            <feComposite in="shadowOffsetInner1" in2="SourceAlpha" operator="arithmetic" k2="-1" k3="1" result="shadowInnerInner1"></feComposite>
            <feColorMatrix values="0 0 0 0 0.096087722   0 0 0 0 0.116339125   0 0 0 0 0.16089221  0 0 0 1 0" type="matrix" in="shadowInnerInner1"></feColorMatrix>
        </filter>
        <linearGradient x1="42.0269047%" y1="42.1764727%" x2="15.8945561%" y2="12.4266963%" id="linearGradient-46">
            <stop stop-color="#323A4A" offset="0%"></stop>
            <stop stop-color="#1A1F2A" offset="100%"></stop>
        </linearGradient>
        <radialGradient cx="88.8679751%" cy="100%" fx="88.8679751%" fy="100%" r="70.9001483%" gradientTransform="translate(0.888680,1.000000),scale(0.839900,1.000000),rotate(-130.745889),scale(1.000000,2.367561),translate(-0.888680,-1.000000)" id="radialGradient-47">
            <stop stop-color="#798294" offset="0%"></stop>
            <stop stop-color="#444B5B" offset="100%"></stop>
        </radialGradient>
        <polygon id="path-48" points="12.7043933 3.25295294 0.120025662 7.10542736e-15 -3.55271368e-15 0.486755883 12.7043933 3.67995136"></polygon>
        <filter x="-10.3%" y="-35.5%" width="120.1%" height="171.4%" filterUnits="objectBoundingBox" id="filter-49">
            <feGaussianBlur stdDeviation="1" in="SourceAlpha" result="shadowBlurInner1"></feGaussianBlur>
            <feOffset dx="0" dy="0" in="shadowBlurInner1" result="shadowOffsetInner1"></feOffset>
            <feComposite in="shadowOffsetInner1" in2="SourceAlpha" operator="arithmetic" k2="-1" k3="1" result="shadowInnerInner1"></feComposite>
            <feColorMatrix values="0 0 0 0 0.096087722   0 0 0 0 0.116339125   0 0 0 0 0.16089221  0 0 0 1 0" type="matrix" in="shadowInnerInner1"></feColorMatrix>
        </filter>
        <polygon id="path-50" points="12.7043933 4.3356597 0.120025662 1.08270677 -3.55271368e-15 1.56946265 12.7043933 4.76265813"></polygon>
        <filter x="-10.3%" y="-35.5%" width="120.1%" height="171.4%" filterUnits="objectBoundingBox" id="filter-51">
            <feGaussianBlur stdDeviation="1" in="SourceAlpha" result="shadowBlurInner1"></feGaussianBlur>
            <feOffset dx="0" dy="0" in="shadowBlurInner1" result="shadowOffsetInner1"></feOffset>
            <feComposite in="shadowOffsetInner1" in2="SourceAlpha" operator="arithmetic" k2="-1" k3="1" result="shadowInnerInner1"></feComposite>
            <feColorMatrix values="0 0 0 0 0.096087722   0 0 0 0 0.116339125   0 0 0 0 0.16089221  0 0 0 1 0" type="matrix" in="shadowInnerInner1"></feColorMatrix>
        </filter>
        <polygon id="path-52" points="3.59460284 0.612470941 0.120025662 -6.50922541e-13 -5.78958105e-13 0.486755883 4.45808666 1.41668631"></polygon>
        <filter x="-29.3%" y="-90.8%" width="170.2%" height="291.6%" filterUnits="objectBoundingBox" id="filter-53">
            <feGaussianBlur stdDeviation="1" in="SourceAlpha" result="shadowBlurInner1"></feGaussianBlur>
            <feOffset dx="0" dy="0" in="shadowBlurInner1" result="shadowOffsetInner1"></feOffset>
            <feComposite in="shadowOffsetInner1" in2="SourceAlpha" operator="arithmetic" k2="-1" k3="1" result="shadowInnerInner1"></feComposite>
            <feColorMatrix values="0 0 0 0 0.096087722   0 0 0 0 0.116339125   0 0 0 0 0.16089221  0 0 0 1 0" type="matrix" in="shadowInnerInner1"></feColorMatrix>
        </filter>
        <polygon id="path-54" points="5.49313916 2.40134961 0.120025662 1.08270677 -2.26495601e-13 1.56946265 5.84164701 2.77114714"></polygon>
        <filter x="-22.3%" y="-77.1%" width="151.9%" height="260.3%" filterUnits="objectBoundingBox" id="filter-55">
            <feGaussianBlur stdDeviation="1" in="SourceAlpha" result="shadowBlurInner1"></feGaussianBlur>
            <feOffset dx="0" dy="0" in="shadowBlurInner1" result="shadowOffsetInner1"></feOffset>
            <feComposite in="shadowOffsetInner1" in2="SourceAlpha" operator="arithmetic" k2="-1" k3="1" result="shadowInnerInner1"></feComposite>
            <feColorMatrix values="0 0 0 0 0.096087722   0 0 0 0 0.116339125   0 0 0 0 0.16089221  0 0 0 1 0" type="matrix" in="shadowInnerInner1"></feColorMatrix>
        </filter>
        <polygon id="path-56" points="12.0819207 16.7459952 14.5615146 9.50302569 22.4071455 9.47562004 16.4434994 29.1916145"></polygon>
        <filter x="-12.0%" y="-6.3%" width="124.9%" height="115.5%" filterUnits="objectBoundingBox" id="filter-57">
            <feGaussianBlur stdDeviation="1" in="SourceAlpha" result="shadowBlurInner1"></feGaussianBlur>
            <feOffset dx="0" dy="0" in="shadowBlurInner1" result="shadowOffsetInner1"></feOffset>
            <feComposite in="shadowOffsetInner1" in2="SourceAlpha" operator="arithmetic" k2="-1" k3="1" result="shadowInnerInner1"></feComposite>
            <feColorMatrix values="0 0 0 0 0.096087722   0 0 0 0 0.116339125   0 0 0 0 0.16089221  0 0 0 1 0" type="matrix" in="shadowInnerInner1"></feColorMatrix>
        </filter>
        <linearGradient x1="90.4845435%" y1="136.373798%" x2="64.2002301%" y2="23.1862882%" id="linearGradient-58">
            <stop stop-color="#323A4A" offset="0%"></stop>
            <stop stop-color="#1A1F2A" offset="100%"></stop>
        </linearGradient>
        <linearGradient x1="158.227639%" y1="66.0634462%" x2="50%" y2="52.794681%" id="linearGradient-59">
            <stop stop-color="#323A4A" offset="0%"></stop>
            <stop stop-color="#1A1F2A" offset="100%"></stop>
        </linearGradient>
        <linearGradient x1="63.9831499%" y1="107.809614%" x2="41.6644458%" y2="31.7855714%" id="linearGradient-60">
            <stop stop-color="#323A4A" offset="0%"></stop>
            <stop stop-color="#1A1F2A" offset="100%"></stop>
        </linearGradient>
        <linearGradient x1="69.4487576%" y1="47.337793%" x2="31.2561972%" y2="60.1420044%" id="linearGradient-61">
            <stop stop-color="#323A4A" offset="0%"></stop>
            <stop stop-color="#1A1F2A" offset="100%"></stop>
        </linearGradient>
        <linearGradient x1="69.4487576%" y1="45.4018769%" x2="31.2561972%" y2="67.5171146%" id="linearGradient-62">
            <stop stop-color="#323A4A" offset="0%"></stop>
            <stop stop-color="#1A1F2A" offset="100%"></stop>
        </linearGradient>
        <path d="M16.8549902,15.4631481 C15.766039,16.8378724 14.333635,17.4540109 12.5577781,17.3115635 L14.2636706,22.1667153 C15.2189562,22.994324 16.5992792,22.994324 18.4046396,22.1667153 C20.2100001,21.3391067 22.8749709,19.8839436 26.399552,17.8012263 L16.8549902,15.4631481 Z" id="path-63"></path>
        <filter x="-9.8%" y="-17.5%" width="121.8%" height="134.6%" filterUnits="objectBoundingBox" id="filter-64">
            <feGaussianBlur stdDeviation="1" in="SourceAlpha" result="shadowBlurInner1"></feGaussianBlur>
            <feOffset dx="0" dy="0" in="shadowBlurInner1" result="shadowOffsetInner1"></feOffset>
            <feComposite in="shadowOffsetInner1" in2="SourceAlpha" operator="arithmetic" k2="-1" k3="1" result="shadowInnerInner1"></feComposite>
            <feColorMatrix values="0 0 0 0 0.096087722   0 0 0 0 0.116339125   0 0 0 0 0.16089221  0 0 0 1 0" type="matrix" in="shadowInnerInner1"></feColorMatrix>
        </filter>
        <path d="M13.9048033,9.14503513 L13.9048033,10.4876973 C15.3982654,10.7999973 16.4291705,11.4909837 16.9975186,12.5606566 L27.570562,15.4631481 L27.782291,15.1827714 L22.2066229,9.14503513 L13.9048033,9.14503513 Z" id="path-65"></path>
        <filter x="-9.0%" y="-19.8%" width="118.6%" height="140.1%" filterUnits="objectBoundingBox" id="filter-66">
            <feGaussianBlur stdDeviation="1" in="SourceAlpha" result="shadowBlurInner1"></feGaussianBlur>
            <feOffset dx="0" dy="0" in="shadowBlurInner1" result="shadowOffsetInner1"></feOffset>
            <feComposite in="shadowOffsetInner1" in2="SourceAlpha" operator="arithmetic" k2="-1" k3="1" result="shadowInnerInner1"></feComposite>
            <feColorMatrix values="0 0 0 0 0.096087722   0 0 0 0 0.116339125   0 0 0 0 0.16089221  0 0 0 1 0" type="matrix" in="shadowInnerInner1"></feColorMatrix>
        </filter>
    </defs>
    <g id="Page-1" stroke="none" stroke-width="1" fill="none" fill-rule="evenodd">
        <g id="Artboard-Copy" transform="translate(-732.000000, -602.000000)">
            <g id="logo_40" transform="translate(732.000000, 602.000000)">
                <mask id="mask-3" fill="white">
                    <use xlink:href="#path-2"></use>
                </mask>
                <use id="Combined-Shape" fill="url(#linearGradient-1)" xlink:href="#path-2"></use>
                <g id="Group-5-Copy-7" mask="url(#mask-3)">
                    <g transform="translate(0.000000, -2.165414)" id="Group-4">
                        <g>
                            <g id="Group-3" transform="translate(0.000000, 2.434825)">
                                <polygon id="Path-3" fill="url(#linearGradient-4)" points="9.3193435 1.53458005 9.3193435 7.40623974 14.9457203 7.40623974 10.2305273 1.53458005 9.78345522 1.17866351"></polygon>
                                <path d="M0.603082988,8.25495762 L7.11961201,6.46246348 L8.442305,4.90487707 L15.4355406,3.32379989 L26.5915664,15.8429006 C25.1879479,18.3293127 23.4467446,20.3902431 21.3679563,22.0256917 C19.2891681,23.6611402 16.8044261,24.924895 13.9137303,25.816956 L9.83067104,14.2705002 L3.71804177,14.2705002 L0.133510191,9.65657375 C-0.00130724587,9.28450758 -0.0340215709,8.99491606 0.0353672159,8.7877992 C0.104756003,8.58068234 0.293994594,8.40306848 0.603082988,8.25495762 Z" id="Path" fill="url(#radialGradient-5)"></path>
                                <g id="Group" transform="translate(13.194223, 11.017796)" opacity="0.79594308">
                                    <g id="Path-8">
                                        <use fill="#1A1F2A" fill-rule="evenodd" xlink:href="#path-6"></use>
                                        <use fill="black" fill-opacity="1" filter="url(#filter-7)" xlink:href="#path-6"></use>
                                        <use stroke="#1A1F2A" stroke-width="0.5" xlink:href="#path-6"></use>
                                    </g>
                                    <g id="Path-8">
                                        <use fill="#1A1F2A" fill-rule="evenodd" xlink:href="#path-8"></use>
                                        <use fill="black" fill-opacity="1" filter="url(#filter-9)" xlink:href="#path-8"></use>
                                        <use stroke="#1A1F2A" stroke-width="0.5" xlink:href="#path-8"></use>
                                    </g>
                                </g>
                                <g id="Group" transform="translate(23.328937, 20.909903) rotate(88.000000) translate(-23.328937, -20.909903) translate(17.840372, 18.833930)" opacity="0.79594308">
                                    <g id="Path-8">
                                        <use fill="#1A1F2A" fill-rule="evenodd" xlink:href="#path-10"></use>
                                        <use fill="black" fill-opacity="1" filter="url(#filter-11)" xlink:href="#path-10"></use>
                                        <use stroke="#1A1F2A" stroke-width="0.5" xlink:href="#path-10"></use>
                                    </g>
                                    <g id="Path-8">
                                        <use fill="#1A1F2A" fill-rule="evenodd" xlink:href="#path-12"></use>
                                        <use fill="black" fill-opacity="1" filter="url(#filter-13)" xlink:href="#path-12"></use>
                                        <use stroke="#1A1F2A" stroke-width="0.5" xlink:href="#path-12"></use>
                                    </g>
                                </g>
                                <g id="Path-7" opacity="0.24">
                                    <use fill="#1A1F2A" fill-rule="evenodd" xlink:href="#path-14"></use>
                                    <use fill="black" fill-opacity="1" filter="url(#filter-15)" xlink:href="#path-14"></use>
                                    <use stroke="#1A1F2A" stroke-width="0.5" xlink:href="#path-14"></use>
                                </g>
                                <path d="M11.7656028,7.40623974 L18.9598923,7.40623974 C14.7561073,2.46874658 12.6071269,3.55271368e-15 12.512951,3.55271368e-15 C12.4187751,3.55271368e-15 12.2024252,0.16779166 11.8639011,0.503374981 L11.7656028,7.40623974 Z" id="Path-2" fill="url(#linearGradient-16)"></path>
                                <path d="M0.133510191,9.65657375 C4.50264517,8.5132831 6.88994304,7.87601498 7.29540379,7.7447694 C7.70086455,7.61352381 8.02788659,7.37303733 8.27646991,7.02330996 C8.60970998,8.37163662 8.95733451,9.04579996 9.3193435,9.04579996 C9.86235699,9.04579996 14.0361164,8.80045314 14.0361164,11.9557448 C14.0361164,13.4989151 12.6420351,14.3084727 9.85387261,14.3844177 L3.67352205,14.3844177 L0.133510191,9.65657375 Z" id="Path-4" fill="url(#linearGradient-17)"></path>
                                <ellipse id="Oval" fill="#F1F1F1" opacity="0.106515067" cx="9.76578319" cy="7.03688994" rx="1" ry="1.03798627"></ellipse>
                                <ellipse id="Oval" fill="url(#linearGradient-18)" cx="9.8801283" cy="7.15222175" rx="1" ry="1"></ellipse>
                                <path d="M23.7333919,14.7558246 C23.5708847,14.5703779 13.6692767,22.1314203 11.6344656,19.0732728 L11.2324475,18.5810283 C9.78229988,20.0377355 9.76365225,21.1488929 11.1765046,21.9145005 C13.2957832,23.0629119 23.895899,14.9412713 23.7333919,14.7558246 Z" id="Path-5" fill="url(#linearGradient-19)"></path>
                                <path d="M24.5304946,15.4791852 C24.4303412,15.3402421 14.956661,24.0956722 12.5899123,21.991516 C11.2728461,21.991516 11.3953361,23.4765248 11.6345992,23.9078781 C11.8738623,24.3392313 13.2009774,25.4767286 15.8692772,23.6024817 C18.537577,21.7282348 24.6306481,15.6181283 24.5304946,15.4791852 Z" id="Path-6" fill="url(#linearGradient-20)"></path>
                                <ellipse id="Oval" fill="#535A6B" cx="24.6306481" cy="14.5334574" rx="1.37214137" ry="1.38398169"></ellipse>
                                <ellipse id="Oval" fill="#1A1F2A" opacity="0.647553943" cx="24.6306481" cy="14.5334574" rx="1" ry="1"></ellipse>
                                <g id="Path-9" opacity="0.79594308">
                                    <use fill="#1A1F2A" fill-rule="evenodd" xlink:href="#path-21"></use>
                                    <use fill="black" fill-opacity="1" filter="url(#filter-22)" xlink:href="#path-21"></use>
                                    <use stroke="#1A1F2A" stroke-width="0.5" xlink:href="#path-21"></use>
                                </g>
                                <g id="Path-10" opacity="0.79594308">
                                    <use fill="#1A1F2A" fill-rule="evenodd" xlink:href="#path-23"></use>
                                    <use fill="black" fill-opacity="1" filter="url(#filter-24)" xlink:href="#path-23"></use>
                                    <use stroke="#1A1F2A" stroke-width="0.5" xlink:href="#path-23"></use>
                                </g>
                            </g>
                            <g id="Group-3-Copy" transform="translate(29.083794, 13.263158) scale(-1, 1) rotate(10.000000) translate(-29.083794, -13.263158) translate(17.597308, 1.894737)">
                                <polygon id="Path-3" fill="url(#linearGradient-25)" points="8.00145654 1.31535433 8.00145654 6.34820549 12.8321841 6.34820549 8.78378607 1.31535433 8.3999363 1.010283"></polygon>
                                <path d="M0.517798525,7.07567796 L6.11279819,5.53925441 L7.24844368,4.20418035 L13.2527369,2.84897133 L22.8311428,13.5796291 C21.6260159,15.7108395 20.1310433,17.4773512 18.3462251,18.8791643 C16.5614069,20.2809774 14.734922,21.1962772 12.8667703,21.6250639 L8.44047513,12.2318573 L3.19225808,12.2318573 L0.114629962,8.27706322 C-0.00112238282,7.95814935 -0.0292104397,7.70992805 0.0303657915,7.53239932 C0.0899420226,7.35487058 0.252419601,7.20263013 0.517798525,7.07567796 Z" id="Path" fill="url(#radialGradient-26)"></path>
                                <g id="Group" transform="translate(11.328373, 9.443825)" opacity="0.79594308">
                                    <g id="Path-8">
                                        <use fill="#1A1F2A" fill-rule="evenodd" xlink:href="#path-27"></use>
                                        <use fill="black" fill-opacity="1" filter="url(#filter-28)" xlink:href="#path-27"></use>
                                        <use stroke="#1A1F2A" stroke-width="0.5" xlink:href="#path-27"></use>
                                    </g>
                                    <g id="Path-8">
                                        <use fill="#1A1F2A" fill-rule="evenodd" xlink:href="#path-29"></use>
                                        <use fill="black" fill-opacity="1" filter="url(#filter-30)" xlink:href="#path-29"></use>
                                        <use stroke="#1A1F2A" stroke-width="0.5" xlink:href="#path-29"></use>
                                    </g>
                                </g>
                                <g id="Group" transform="translate(20.029895, 17.922774) rotate(88.000000) translate(-20.029895, -17.922774) translate(15.317491, 16.143369)" opacity="0.79594308">
                                    <g id="Path-8">
                                        <use fill="#1A1F2A" fill-rule="evenodd" xlink:href="#path-31"></use>
                                        <use fill="black" fill-opacity="1" filter="url(#filter-32)" xlink:href="#path-31"></use>
                                        <use stroke="#1A1F2A" stroke-width="0.5" xlink:href="#path-31"></use>
                                    </g>
                                    <g id="Path-8">
                                        <use fill="#1A1F2A" fill-rule="evenodd" xlink:href="#path-33"></use>
                                        <use fill="black" fill-opacity="1" filter="url(#filter-34)" xlink:href="#path-33"></use>
                                        <use stroke="#1A1F2A" stroke-width="0.5" xlink:href="#path-33"></use>
                                    </g>
                                </g>
                                <g id="Path-7" opacity="0.24">
                                    <use fill="#1A1F2A" fill-rule="evenodd" xlink:href="#path-35"></use>
                                    <use fill="black" fill-opacity="1" filter="url(#filter-36)" xlink:href="#path-35"></use>
                                    <use stroke="#1A1F2A" stroke-width="0.5" xlink:href="#path-35"></use>
                                </g>
                                <path d="M10.1017801,6.34820549 L16.2786954,6.34820549 C12.6693851,2.1160685 10.8243008,3.55271368e-15 10.7434428,3.55271368e-15 C10.6625847,3.55271368e-15 10.4768297,0.143821423 10.1861777,0.43146427 L10.1017801,6.34820549 Z" id="Path-2" fill="url(#linearGradient-37)"></path>
                                <path d="M0.114629962,8.27706322 C3.86590747,7.2970998 5.91560766,6.75086999 6.26373053,6.63837377 C6.6118534,6.52587755 6.8926299,6.31974628 7.10606002,6.01997997 C7.39217524,7.17568853 7.69064074,7.75354282 8.00145654,7.75354282 C8.46768024,7.75354282 12.0512111,7.54324554 12.0512111,10.2477812 C12.0512111,11.5704986 10.8542726,12.2644052 8.46039568,12.3295009 L3.15403409,12.3295009 L0.114629962,8.27706322 Z" id="Path-4" fill="url(#linearGradient-38)"></path>
                                <ellipse id="Oval" fill="#F1F1F1" opacity="0.106515067" cx="8.38476334" cy="6.03161995" rx="1" ry="1"></ellipse>
                                <ellipse id="Oval" fill="url(#linearGradient-39)" cx="8.48293844" cy="6.13047579" rx="1" ry="1"></ellipse>
                                <path d="M20.3771547,12.6478497 C20.2376283,12.4888954 11.7362477,18.9697888 9.98918763,16.3485195 L9.64402059,15.9265957 C8.39894434,17.1752019 8.38293375,18.1276225 9.59598882,18.7838576 C11.4155714,19.7682102 20.516681,12.806804 20.3771547,12.6478497 Z" id="Path-5" fill="url(#linearGradient-40)"></path>
                                <path d="M21.0615358,13.267873 C20.9755455,13.148779 12.8415777,20.6534333 10.8095207,18.8498708 C9.67870623,18.8498708 9.78387445,20.1227355 9.98930237,20.4924669 C10.1947303,20.8621983 11.3341725,21.837196 13.625137,20.2306986 C15.9161014,18.6242012 21.1475261,13.3869671 21.0615358,13.267873 Z" id="Path-6" fill="url(#linearGradient-41)"></path>
                                <ellipse id="Oval" fill="#535A6B" cx="21.1475261" cy="12.4572492" rx="1.17810118" ry="1.18627002"></ellipse>
                                <ellipse id="Oval" fill="#1A1F2A" opacity="0.647553943" cx="21.1475261" cy="12.4572492" rx="1" ry="1"></ellipse>
                                <g id="Path-9" opacity="0.79594308">
                                    <use fill="#1A1F2A" fill-rule="evenodd" xlink:href="#path-42"></use>
                                    <use fill="black" fill-opacity="1" filter="url(#filter-43)" xlink:href="#path-42"></use>
                                    <use stroke="#1A1F2A" stroke-width="0.5" xlink:href="#path-42"></use>
                                </g>
                                <g id="Path-10" opacity="0.79594308">
                                    <use fill="#1A1F2A" fill-rule="evenodd" xlink:href="#path-44"></use>
                                    <use fill="black" fill-opacity="1" filter="url(#filter-45)" xlink:href="#path-44"></use>
                                    <use stroke="#1A1F2A" stroke-width="0.5" xlink:href="#path-44"></use>
                                </g>
                            </g>
                            <g id="Group-3-Copy" transform="translate(24.189189, 22.735577) scale(-1, 1) translate(-24.189189, -22.735577) translate(8.378378, 7.577682)">
                                <polygon id="Path-3" fill="url(#linearGradient-46)" points="11.0137696 1.80078272 11.0137696 8.69099561 17.663124 8.69099561 12.0906232 1.80078272 11.5622653 1.38312554"></polygon>
                                <path d="M0.712734441,9.68694006 L8.41408692,7.58350306 L9.97726954,5.75572309 L18.2420026,3.90037742 L31.4263966,18.5911589 C29.7675748,21.5088874 27.709789,23.9273261 25.2530393,25.8464749 C22.7962895,27.7656238 19.8597763,29.2486013 16.4434994,30.2954075 L11.6180658,16.7459952 L4.39404936,16.7459952 L0.157784771,11.3316937 C-0.00154492694,10.8950854 -0.0402073111,10.5552586 0.0417976188,10.3122133 C0.123802549,10.0691681 0.347448156,9.86074362 0.712734441,9.68694006 Z" id="Path" fill="url(#radialGradient-47)"></path>
                                <g id="Group" transform="translate(15.593173, 12.929046)" opacity="0.79594308">
                                    <g id="Path-8">
                                        <use fill="#1A1F2A" fill-rule="evenodd" xlink:href="#path-48"></use>
                                        <use fill="black" fill-opacity="1" filter="url(#filter-49)" xlink:href="#path-48"></use>
                                        <use stroke="#1A1F2A" stroke-width="0.5" xlink:href="#path-48"></use>
                                    </g>
                                    <g id="Path-8">
                                        <use fill="#1A1F2A" fill-rule="evenodd" xlink:href="#path-50"></use>
                                        <use fill="black" fill-opacity="1" filter="url(#filter-51)" xlink:href="#path-50"></use>
                                        <use stroke="#1A1F2A" stroke-width="0.5" xlink:href="#path-50"></use>
                                    </g>
                                </g>
                                <g id="Group" transform="translate(28.393312, 20.987415) rotate(88.000000) translate(-28.393312, -20.987415) translate(25.420339, 19.498693)" opacity="0.79594308">
                                    <g id="Path-8">
                                        <use fill="#1A1F2A" fill-rule="evenodd" xlink:href="#path-52"></use>
                                        <use fill="black" fill-opacity="1" filter="url(#filter-53)" xlink:href="#path-52"></use>
                                        <use stroke="#1A1F2A" stroke-width="0.5" xlink:href="#path-52"></use>
                                    </g>
                                    <g id="Path-8">
                                        <use fill="#1A1F2A" fill-rule="evenodd" xlink:href="#path-54"></use>
                                        <use fill="black" fill-opacity="1" filter="url(#filter-55)" xlink:href="#path-54"></use>
                                        <use stroke="#1A1F2A" stroke-width="0.5" xlink:href="#path-54"></use>
                                    </g>
                                </g>
                                <g id="Path-7" opacity="0.24">
                                    <use fill="#1A1F2A" fill-rule="evenodd" xlink:href="#path-56"></use>
                                    <use fill="black" fill-opacity="1" filter="url(#filter-57)" xlink:href="#path-56"></use>
                                    <use stroke="#1A1F2A" stroke-width="0.5" xlink:href="#path-56"></use>
                                </g>
                                <path d="M13.9048033,8.69099561 L22.4071455,8.69099561 C17.4390359,2.89699854 14.8993318,3.55271368e-15 14.788033,3.55271368e-15 C14.6767342,3.55271368e-15 14.4210479,0.196898377 14.020974,0.590695131 L13.9048033,8.69099561 Z" id="Path-2" fill="url(#linearGradient-58)"></path>
                                <path d="M0.157784771,11.3316937 C5.32130793,9.99007711 8.14265995,9.24226248 8.62184085,9.0882498 C9.10102174,8.93423712 9.48750233,8.6520336 9.78128262,8.24163924 C10.1751118,9.8238593 10.5859408,10.6149693 11.0137696,10.6149693 C11.6555128,10.6149693 16.5881376,10.3270624 16.5881376,14.0297005 C16.5881376,15.8405636 14.940587,16.7905547 11.6454858,16.8796739 L4.34143515,16.8796739 L0.157784771,11.3316937 Z" id="Path-4" fill="url(#linearGradient-59)"></path>
                                <ellipse id="Oval" fill="#F1F1F1" opacity="0.106515067" cx="11.5413801" cy="8.25757493" rx="1" ry="1.21804511"></ellipse>
                                <ellipse id="Oval" fill="url(#linearGradient-60)" cx="11.6765153" cy="8.39291328" rx="1" ry="1.08270677"></ellipse>
                                <path d="M28.0485541,17.3155085 C27.8565001,17.0978925 16.1545998,25.9705442 13.749823,22.3819018 L13.2747107,21.8042679 C11.5608999,23.5136692 11.5388618,24.8175784 13.2085964,25.7159955 C15.7131983,27.0636211 28.240608,17.5331245 28.0485541,17.3155085 Z" id="Path-5" fill="url(#linearGradient-61)"></path>
                                <path d="M28.9905846,18.16435 C28.8722214,18.0013046 17.676054,28.2755337 14.8789873,25.8063708 C13.3224545,25.8063708 13.4672154,27.5489832 13.7499809,28.055163 C14.0327464,28.5613429 15.6011551,29.8961612 18.7546003,27.6967898 C21.9080455,25.4974184 29.1089477,18.3273954 28.9905846,18.16435 Z" id="Path-6" fill="url(#linearGradient-62)"></path>
                                <ellipse id="Oval" fill="#535A6B" cx="29.1089477" cy="17.0545674" rx="1.62162162" ry="1.62406015"></ellipse>
                                <ellipse id="Oval" fill="#1A1F2A" opacity="0.647553943" cx="29.1089477" cy="17.0545674" rx="1.08108108" ry="1.08270677"></ellipse>
                                <g id="Path-9" opacity="0.79594308">
                                    <use fill="#1A1F2A" fill-rule="evenodd" xlink:href="#path-63"></use>
                                    <use fill="black" fill-opacity="1" filter="url(#filter-64)" xlink:href="#path-63"></use>
                                    <use stroke="#1A1F2A" stroke-width="0.5" xlink:href="#path-63"></use>
                                </g>
                                <g id="Path-10" opacity="0.79594308">
                                    <use fill="#1A1F2A" fill-rule="evenodd" xlink:href="#path-65"></use>
                                    <use fill="black" fill-opacity="1" filter="url(#filter-66)" xlink:href="#path-65"></use>
                                    <use stroke="#1A1F2A" stroke-width="0.5" xlink:href="#path-65"></use>
                                </g>
                            </g>
                        </g>
                    </g>
                </g>
            </g>
        </g>
    </g>
</svg>