<?xml version="1.0" encoding="UTF-8"?>
<svg width="120px" height="108px" viewBox="0 0 120 108" version="1.1" xmlns="http://www.w3.org/2000/svg" xmlns:xlink="http://www.w3.org/1999/xlink">
    <!-- Generator: Sketch 55.2 (78181) - https://sketchapp.com -->
    <title>logo_120</title>
    <desc>Created with Sketch.</desc>
    <defs>
        <linearGradient x1="40.3694823%" y1="43.7097185%" x2="8.80482184%" y2="19.7902689%" id="linearGradient-1">
            <stop stop-color="#323A4A" offset="0%"></stop>
            <stop stop-color="#1A1F2A" offset="100%"></stop>
        </linearGradient>
        <path d="M30.4049372,62.86342 C30.5341409,61.2558016 31.6316094,59.4144538 33.6973425,57.3393765 L34.3455419,58.1330537 L29.6123648,44.7481341 C29.5954663,44.7486133 29.5785506,44.7490836 29.5616178,44.7495448 L11.0205662,44.7495448 L0.400530573,30.5660129 C-0.00392173762,29.4498143 -0.102064713,28.5810398 0.106101648,27.9596892 C0.314268008,27.3383386 0.881983781,26.805497 1.80924897,26.3611644 L21.358836,20.983682 L25.326915,16.3109228 L27.9580305,15.7160627 L27.9580305,6.20003175 L29.3503657,5.13228211 L30.6915819,6.20003175 L35.463038,12.1417539 L35.5917033,3.10641654 C36.6072755,2.09966658 37.2563254,1.59629159 37.538853,1.59629159 C37.755443,1.59629159 41.5948538,5.94893252 49.0570855,14.6542144 L62.6918074,29.9548654 C54.1339774,42.3687982 43.3716883,53.3383157 30.4049403,62.8634178 Z M84.1578409,0.314542689 C84.4713865,0.478270624 84.8839387,0.737257021 85.3954977,1.09150188 L86.8491209,8.69923634 L89.9992138,2.97231898 L90.9743433,1.87104472 L92.3105464,2.56476869 L93.7269248,10.5974496 L96.0401832,10.7073055 L100.09086,14.0600711 L117.421249,15.6846321 C118.271426,15.9214548 118.830762,16.2865957 119.099258,16.7800549 C119.367754,17.273514 119.414079,18.0214971 119.238234,19.0240042 L112.369643,32.5799813 L96.6924054,35.3443014 C96.6668798,35.34809 96.6413956,35.3518465 96.6159528,35.3555711 L95.367235,39.9418411 L117.861797,46.0856832 C118.957656,46.6070939 119.628592,47.2323672 119.874607,47.9615031 C120.120622,48.690639 120.004635,49.7101193 119.526646,51.0199441 L106.975695,67.6638847 L85.0635426,67.6638847 C85.0435311,67.6633434 85.0235398,67.6627916 85.0035688,67.6622292 L79.4098141,83.3690227 L80.1758679,82.4376668 C85.3173004,87.5658707 85.3834147,91.4775982 80.3742109,94.1728495 C79.3135317,94.7435583 77.6536705,94.6639528 75.5865504,94.1044258 L75.4653232,94.4448216 C80.0262211,94.5207343 79.5921098,99.6829899 78.7500573,101.190352 C78.2076883,102.161249 76.0886663,104.14835 72.1582416,103.730829 L70.6695017,107.911086 C60.4206712,104.770667 51.6111314,100.321734 44.2408821,94.5642878 C36.8706329,88.8068412 30.6972755,81.5515252 25.7208101,72.7983398 L27.5290465,70.7835027 C49.8171005,51.5953233 68.6933623,28.1056726 84.1578409,0.314542689 Z" id="path-2"></path>
        <linearGradient x1="42.1391565%" y1="42.1764727%" x2="16.3747206%" y2="12.4266963%" id="linearGradient-4">
            <stop stop-color="#323A4A" offset="0%"></stop>
            <stop stop-color="#1A1F2A" offset="100%"></stop>
        </linearGradient>
        <radialGradient cx="88.8679751%" cy="100%" fx="88.8679751%" fy="100%" r="70.6872017%" gradientTransform="translate(0.888680,1.000000),scale(0.845876,1.000000),rotate(-130.545133),scale(1.000000,2.367561),translate(-0.888680,-1.000000)" id="radialGradient-5">
            <stop stop-color="#798294" offset="0%"></stop>
            <stop stop-color="#444B5B" offset="100%"></stop>
        </radialGradient>
        <polygon id="path-6" points="32.2496138 8.3162449 0.304680527 7.10542736e-15 -3.55271368e-15 1.244402 32.2496138 9.40787565"></polygon>
        <filter x="-9.0%" y="-31.1%" width="117.9%" height="162.3%" filterUnits="objectBoundingBox" id="filter-7">
            <feGaussianBlur stdDeviation="2" in="SourceAlpha" result="shadowBlurInner1"></feGaussianBlur>
            <feOffset dx="0" dy="1" in="shadowBlurInner1" result="shadowOffsetInner1"></feOffset>
            <feComposite in="shadowOffsetInner1" in2="SourceAlpha" operator="arithmetic" k2="-1" k3="1" result="shadowInnerInner1"></feComposite>
            <feColorMatrix values="0 0 0 0 0.096087722   0 0 0 0 0.116339125   0 0 0 0 0.16089221  0 0 0 1 0" type="matrix" in="shadowInnerInner1"></feColorMatrix>
        </filter>
        <polygon id="path-8" points="32.2496138 11.0842083 0.304680527 2.76796339 -3.55271368e-15 4.01236538 32.2496138 12.175839"></polygon>
        <filter x="-9.0%" y="-31.1%" width="117.9%" height="162.3%" filterUnits="objectBoundingBox" id="filter-9">
            <feGaussianBlur stdDeviation="2" in="SourceAlpha" result="shadowBlurInner1"></feGaussianBlur>
            <feOffset dx="0" dy="1" in="shadowBlurInner1" result="shadowOffsetInner1"></feOffset>
            <feComposite in="shadowOffsetInner1" in2="SourceAlpha" operator="arithmetic" k2="-1" k3="1" result="shadowInnerInner1"></feComposite>
            <feColorMatrix values="0 0 0 0 0.096087722   0 0 0 0 0.116339125   0 0 0 0 0.16089221  0 0 0 1 0" type="matrix" in="shadowInnerInner1"></feColorMatrix>
        </filter>
        <polygon id="path-10" points="32.2496138 8.3162449 0.304680527 7.10542736e-15 -3.55271368e-15 1.244402 32.2496138 9.40787565"></polygon>
        <filter x="-9.0%" y="-31.1%" width="117.9%" height="162.3%" filterUnits="objectBoundingBox" id="filter-11">
            <feGaussianBlur stdDeviation="2" in="SourceAlpha" result="shadowBlurInner1"></feGaussianBlur>
            <feOffset dx="0" dy="1" in="shadowBlurInner1" result="shadowOffsetInner1"></feOffset>
            <feComposite in="shadowOffsetInner1" in2="SourceAlpha" operator="arithmetic" k2="-1" k3="1" result="shadowInnerInner1"></feComposite>
            <feColorMatrix values="0 0 0 0 0.096087722   0 0 0 0 0.116339125   0 0 0 0 0.16089221  0 0 0 1 0" type="matrix" in="shadowInnerInner1"></feColorMatrix>
        </filter>
        <polygon id="path-12" points="32.2496138 11.0842083 0.304680527 2.76796339 -3.55271368e-15 4.01236538 32.2496138 12.175839"></polygon>
        <filter x="-9.0%" y="-31.1%" width="117.9%" height="162.3%" filterUnits="objectBoundingBox" id="filter-13">
            <feGaussianBlur stdDeviation="2" in="SourceAlpha" result="shadowBlurInner1"></feGaussianBlur>
            <feOffset dx="0" dy="1" in="shadowBlurInner1" result="shadowOffsetInner1"></feOffset>
            <feComposite in="shadowOffsetInner1" in2="SourceAlpha" operator="arithmetic" k2="-1" k3="1" result="shadowInnerInner1"></feComposite>
            <feColorMatrix values="0 0 0 0 0.096087722   0 0 0 0 0.116339125   0 0 0 0 0.16089221  0 0 0 1 0" type="matrix" in="shadowInnerInner1"></feColorMatrix>
        </filter>
        <polygon id="path-14" points="30.6694909 42.8115007 36.9638446 24.2946918 56.879677 24.2246286 41.7411909 74.628997"></polygon>
        <filter x="-10.9%" y="-5.6%" width="122.2%" height="112.8%" filterUnits="objectBoundingBox" id="filter-15">
            <feGaussianBlur stdDeviation="2" in="SourceAlpha" result="shadowBlurInner1"></feGaussianBlur>
            <feOffset dx="0" dy="1" in="shadowBlurInner1" result="shadowOffsetInner1"></feOffset>
            <feComposite in="shadowOffsetInner1" in2="SourceAlpha" operator="arithmetic" k2="-1" k3="1" result="shadowInnerInner1"></feComposite>
            <feColorMatrix values="0 0 0 0 0.096087722   0 0 0 0 0.116339125   0 0 0 0 0.16089221  0 0 0 1 0" type="matrix" in="shadowInnerInner1"></feColorMatrix>
        </filter>
        <linearGradient x1="89.9145688%" y1="136.373798%" x2="64.0003076%" y2="23.1862882%" id="linearGradient-16">
            <stop stop-color="#323A4A" offset="0%"></stop>
            <stop stop-color="#1A1F2A" offset="100%"></stop>
        </linearGradient>
        <linearGradient x1="158.227639%" y1="66.29283%" x2="50%" y2="52.8345887%" id="linearGradient-17">
            <stop stop-color="#323A4A" offset="0%"></stop>
            <stop stop-color="#1A1F2A" offset="100%"></stop>
        </linearGradient>
        <linearGradient x1="63.7862836%" y1="107.809614%" x2="41.7818006%" y2="31.7855714%" id="linearGradient-18">
            <stop stop-color="#323A4A" offset="0%"></stop>
            <stop stop-color="#1A1F2A" offset="100%"></stop>
        </linearGradient>
        <linearGradient x1="69.4487576%" y1="47.2997771%" x2="31.2561972%" y2="60.2868308%" id="linearGradient-19">
            <stop stop-color="#323A4A" offset="0%"></stop>
            <stop stop-color="#1A1F2A" offset="100%"></stop>
        </linearGradient>
        <linearGradient x1="69.4487576%" y1="45.3362163%" x2="31.2561972%" y2="67.7672566%" id="linearGradient-20">
            <stop stop-color="#323A4A" offset="0%"></stop>
            <stop stop-color="#1A1F2A" offset="100%"></stop>
        </linearGradient>
        <path d="M42.7857445,39.5318742 C40.0214837,43.0463868 36.3853811,44.6215582 31.8774367,44.2573884 L36.2077792,56.6696896 C38.6327348,58.7854892 42.1366317,58.7854892 46.7194698,56.6696896 C51.302308,54.5538901 58.0672338,50.8337342 67.0142475,45.509222 L42.7857445,39.5318742 Z" id="path-21"></path>
        <filter x="-8.5%" y="-15.4%" width="118.2%" height="130.6%" filterUnits="objectBoundingBox" id="filter-22">
            <feGaussianBlur stdDeviation="2" in="SourceAlpha" result="shadowBlurInner1"></feGaussianBlur>
            <feOffset dx="0" dy="1" in="shadowBlurInner1" result="shadowOffsetInner1"></feOffset>
            <feComposite in="shadowOffsetInner1" in2="SourceAlpha" operator="arithmetic" k2="-1" k3="1" result="shadowInnerInner1"></feComposite>
            <feColorMatrix values="0 0 0 0 0.096087722   0 0 0 0 0.116339125   0 0 0 0 0.16089221  0 0 0 1 0" type="matrix" in="shadowInnerInner1"></feColorMatrix>
        </filter>
        <path d="M35.2968083,23.3794811 L35.2968083,26.8120262 C39.0879044,27.6104278 41.7048173,29.3769496 43.1475471,32.1115916 L69.9868113,39.5318742 L70.5242772,38.8150851 L56.3706581,23.3794811 L35.2968083,23.3794811 Z" id="path-23"></path>
        <filter x="-8.1%" y="-17.6%" width="116.4%" height="135.5%" filterUnits="objectBoundingBox" id="filter-24">
            <feGaussianBlur stdDeviation="2" in="SourceAlpha" result="shadowBlurInner1"></feGaussianBlur>
            <feOffset dx="0" dy="1" in="shadowBlurInner1" result="shadowOffsetInner1"></feOffset>
            <feComposite in="shadowOffsetInner1" in2="SourceAlpha" operator="arithmetic" k2="-1" k3="1" result="shadowInnerInner1"></feComposite>
            <feColorMatrix values="0 0 0 0 0.096087722   0 0 0 0 0.116339125   0 0 0 0 0.16089221  0 0 0 1 0" type="matrix" in="shadowInnerInner1"></feColorMatrix>
        </filter>
        <linearGradient x1="42.1126667%" y1="42.1764727%" x2="16.2614088%" y2="12.4266963%" id="linearGradient-25">
            <stop stop-color="#323A4A" offset="0%"></stop>
            <stop stop-color="#1A1F2A" offset="100%"></stop>
        </linearGradient>
        <radialGradient cx="88.8679751%" cy="100%" fx="88.8679751%" fy="100%" r="71.5471772%" gradientTransform="translate(0.888680,1.000000),scale(0.822390,1.000000),rotate(-131.343707),scale(1.000000,2.367561),translate(-0.888680,-1.000000)" id="radialGradient-26">
            <stop stop-color="#798294" offset="0%"></stop>
            <stop stop-color="#444B5B" offset="100%"></stop>
        </radialGradient>
        <polygon id="path-27" points="27.6890624 7.12820991 0.261594392 7.10542736e-15 -3.55271368e-15 1.06663028 27.6890624 8.06389342"></polygon>
        <filter x="-8.5%" y="-29.3%" width="116.8%" height="158.8%" filterUnits="objectBoundingBox" id="filter-28">
            <feGaussianBlur stdDeviation="1.5" in="SourceAlpha" result="shadowBlurInner1"></feGaussianBlur>
            <feOffset dx="0" dy="1" in="shadowBlurInner1" result="shadowOffsetInner1"></feOffset>
            <feComposite in="shadowOffsetInner1" in2="SourceAlpha" operator="arithmetic" k2="-1" k3="1" result="shadowInnerInner1"></feComposite>
            <feColorMatrix values="0 0 0 0 0.096087722   0 0 0 0 0.116339125   0 0 0 0 0.16089221  0 0 0 1 0" type="matrix" in="shadowInnerInner1"></feColorMatrix>
        </filter>
        <polygon id="path-29" points="27.6890624 9.50074996 0.261594392 2.37254005 -3.55271368e-15 3.43917033 27.6890624 10.4364335"></polygon>
        <filter x="-8.5%" y="-29.3%" width="116.8%" height="158.8%" filterUnits="objectBoundingBox" id="filter-30">
            <feGaussianBlur stdDeviation="1.5" in="SourceAlpha" result="shadowBlurInner1"></feGaussianBlur>
            <feOffset dx="0" dy="1" in="shadowBlurInner1" result="shadowOffsetInner1"></feOffset>
            <feComposite in="shadowOffsetInner1" in2="SourceAlpha" operator="arithmetic" k2="-1" k3="1" result="shadowInnerInner1"></feComposite>
            <feColorMatrix values="0 0 0 0 0.096087722   0 0 0 0 0.116339125   0 0 0 0 0.16089221  0 0 0 1 0" type="matrix" in="shadowInnerInner1"></feColorMatrix>
        </filter>
        <polygon id="path-31" points="27.6890624 7.12820991 0.261594392 7.10542736e-15 -3.55271368e-15 1.06663028 27.6890624 8.06389342"></polygon>
        <filter x="-8.5%" y="-29.3%" width="116.8%" height="158.8%" filterUnits="objectBoundingBox" id="filter-32">
            <feGaussianBlur stdDeviation="1.5" in="SourceAlpha" result="shadowBlurInner1"></feGaussianBlur>
            <feOffset dx="0" dy="1" in="shadowBlurInner1" result="shadowOffsetInner1"></feOffset>
            <feComposite in="shadowOffsetInner1" in2="SourceAlpha" operator="arithmetic" k2="-1" k3="1" result="shadowInnerInner1"></feComposite>
            <feColorMatrix values="0 0 0 0 0.096087722   0 0 0 0 0.116339125   0 0 0 0 0.16089221  0 0 0 1 0" type="matrix" in="shadowInnerInner1"></feColorMatrix>
        </filter>
        <polygon id="path-33" points="27.6890624 9.50074996 0.261594392 2.37254005 -3.55271368e-15 3.43917033 27.6890624 10.4364335"></polygon>
        <filter x="-8.5%" y="-29.3%" width="116.8%" height="158.8%" filterUnits="objectBoundingBox" id="filter-34">
            <feGaussianBlur stdDeviation="1.5" in="SourceAlpha" result="shadowBlurInner1"></feGaussianBlur>
            <feOffset dx="0" dy="1" in="shadowBlurInner1" result="shadowOffsetInner1"></feOffset>
            <feComposite in="shadowOffsetInner1" in2="SourceAlpha" operator="arithmetic" k2="-1" k3="1" result="shadowInnerInner1"></feComposite>
            <feColorMatrix values="0 0 0 0 0.096087722   0 0 0 0 0.116339125   0 0 0 0 0.16089221  0 0 0 1 0" type="matrix" in="shadowInnerInner1"></feColorMatrix>
        </filter>
        <polygon id="path-35" points="26.3323912 36.695572 31.7366343 20.8240215 48.8360863 20.7639674 39.63212 62.9394839"></polygon>
        <filter x="-10.3%" y="-5.4%" width="120.8%" height="112.3%" filterUnits="objectBoundingBox" id="filter-36">
            <feGaussianBlur stdDeviation="1.5" in="SourceAlpha" result="shadowBlurInner1"></feGaussianBlur>
            <feOffset dx="0" dy="1" in="shadowBlurInner1" result="shadowOffsetInner1"></feOffset>
            <feComposite in="shadowOffsetInner1" in2="SourceAlpha" operator="arithmetic" k2="-1" k3="1" result="shadowInnerInner1"></feComposite>
            <feColorMatrix values="0 0 0 0 0.096087722   0 0 0 0 0.116339125   0 0 0 0 0.16089221  0 0 0 1 0" type="matrix" in="shadowInnerInner1"></feColorMatrix>
        </filter>
        <linearGradient x1="90.0490744%" y1="136.373798%" x2="64.0474864%" y2="23.1862882%" id="linearGradient-37">
            <stop stop-color="#323A4A" offset="0%"></stop>
            <stop stop-color="#1A1F2A" offset="100%"></stop>
        </linearGradient>
        <linearGradient x1="158.227639%" y1="66.2381103%" x2="50%" y2="52.8250687%" id="linearGradient-38">
            <stop stop-color="#323A4A" offset="0%"></stop>
            <stop stop-color="#1A1F2A" offset="100%"></stop>
        </linearGradient>
        <linearGradient x1="63.8327411%" y1="107.809614%" x2="41.7541066%" y2="31.7855714%" id="linearGradient-39">
            <stop stop-color="#323A4A" offset="0%"></stop>
            <stop stop-color="#1A1F2A" offset="100%"></stop>
        </linearGradient>
        <linearGradient x1="69.4487576%" y1="47.3088458%" x2="31.2561972%" y2="60.2522823%" id="linearGradient-40">
            <stop stop-color="#323A4A" offset="0%"></stop>
            <stop stop-color="#1A1F2A" offset="100%"></stop>
        </linearGradient>
        <linearGradient x1="69.4487576%" y1="45.3518798%" x2="31.2561972%" y2="67.7075849%" id="linearGradient-41">
            <stop stop-color="#323A4A" offset="0%"></stop>
            <stop stop-color="#1A1F2A" offset="100%"></stop>
        </linearGradient>
        <path d="M36.7352352,33.8844636 C34.36188,36.896903 31.2399737,38.2470499 27.3695163,37.9349044 L31.0874872,48.5740197 C33.1695198,50.3875621 36.1779161,50.3875621 40.1126761,48.5740197 C44.0474361,46.7604772 49.8557058,43.5717722 57.5374852,39.0079045 L36.7352352,33.8844636 Z" id="path-42"></path>
        <filter x="-8.1%" y="-14.5%" width="117.2%" height="128.8%" filterUnits="objectBoundingBox" id="filter-43">
            <feGaussianBlur stdDeviation="1.5" in="SourceAlpha" result="shadowBlurInner1"></feGaussianBlur>
            <feOffset dx="0" dy="1" in="shadowBlurInner1" result="shadowOffsetInner1"></feOffset>
            <feComposite in="shadowOffsetInner1" in2="SourceAlpha" operator="arithmetic" k2="-1" k3="1" result="shadowInnerInner1"></feComposite>
            <feColorMatrix values="0 0 0 0 0.096087722   0 0 0 0 0.116339125   0 0 0 0 0.16089221  0 0 0 1 0" type="matrix" in="shadowInnerInner1"></feColorMatrix>
        </filter>
        <path d="M30.3053404,20.0395552 L30.3053404,22.9817367 C33.5603219,23.666081 35.8071664,25.1802425 37.0458738,27.5242213 L60.0896864,33.8844636 L60.5511471,33.2700729 L48.3990499,20.0395552 L30.3053404,20.0395552 Z" id="path-44"></path>
        <filter x="-7.6%" y="-16.6%" width="115.5%" height="133.5%" filterUnits="objectBoundingBox" id="filter-45">
            <feGaussianBlur stdDeviation="1.5" in="SourceAlpha" result="shadowBlurInner1"></feGaussianBlur>
            <feOffset dx="0" dy="1" in="shadowBlurInner1" result="shadowOffsetInner1"></feOffset>
            <feComposite in="shadowOffsetInner1" in2="SourceAlpha" operator="arithmetic" k2="-1" k3="1" result="shadowInnerInner1"></feComposite>
            <feColorMatrix values="0 0 0 0 0.096087722   0 0 0 0 0.116339125   0 0 0 0 0.16089221  0 0 0 1 0" type="matrix" in="shadowInnerInner1"></feColorMatrix>
        </filter>
        <linearGradient x1="42.0269047%" y1="42.1764727%" x2="15.8945561%" y2="12.4266963%" id="linearGradient-46">
            <stop stop-color="#323A4A" offset="0%"></stop>
            <stop stop-color="#1A1F2A" offset="100%"></stop>
        </linearGradient>
        <radialGradient cx="88.8679751%" cy="100%" fx="88.8679751%" fy="100%" r="70.9001483%" gradientTransform="translate(0.888680,1.000000),scale(0.839900,1.000000),rotate(-130.745889),scale(1.000000,2.367561),translate(-0.888680,-1.000000)" id="radialGradient-47">
            <stop stop-color="#798294" offset="0%"></stop>
            <stop stop-color="#444B5B" offset="100%"></stop>
        </radialGradient>
        <polygon id="path-48" points="38.11318 9.75885881 0.360076986 7.10542736e-15 -3.55271368e-15 1.46026765 38.11318 11.0398541"></polygon>
        <filter x="-9.2%" y="-31.7%" width="118.1%" height="163.5%" filterUnits="objectBoundingBox" id="filter-49">
            <feGaussianBlur stdDeviation="2.5" in="SourceAlpha" result="shadowBlurInner1"></feGaussianBlur>
            <feOffset dx="0" dy="1" in="shadowBlurInner1" result="shadowOffsetInner1"></feOffset>
            <feComposite in="shadowOffsetInner1" in2="SourceAlpha" operator="arithmetic" k2="-1" k3="1" result="shadowInnerInner1"></feComposite>
            <feColorMatrix values="0 0 0 0 0.096087722   0 0 0 0 0.116339125   0 0 0 0 0.16089221  0 0 0 1 0" type="matrix" in="shadowInnerInner1"></feColorMatrix>
        </filter>
        <polygon id="path-50" points="38.11318 13.0069791 0.360076986 3.2481203 -3.55271368e-15 4.70838795 38.11318 14.2879744"></polygon>
        <filter x="-9.2%" y="-31.7%" width="118.1%" height="163.5%" filterUnits="objectBoundingBox" id="filter-51">
            <feGaussianBlur stdDeviation="2.5" in="SourceAlpha" result="shadowBlurInner1"></feGaussianBlur>
            <feOffset dx="0" dy="1" in="shadowBlurInner1" result="shadowOffsetInner1"></feOffset>
            <feComposite in="shadowOffsetInner1" in2="SourceAlpha" operator="arithmetic" k2="-1" k3="1" result="shadowInnerInner1"></feComposite>
            <feColorMatrix values="0 0 0 0 0.096087722   0 0 0 0 0.116339125   0 0 0 0 0.16089221  0 0 0 1 0" type="matrix" in="shadowInnerInner1"></feColorMatrix>
        </filter>
        <polygon id="path-52" points="10.7838085 1.83741282 0.360076986 -1.96697848e-12 -1.72976889e-12 1.46026765 13.37426 4.25005892"></polygon>
        <filter x="-26.1%" y="-81.5%" width="158.6%" height="268.4%" filterUnits="objectBoundingBox" id="filter-53">
            <feGaussianBlur stdDeviation="2.5" in="SourceAlpha" result="shadowBlurInner1"></feGaussianBlur>
            <feOffset dx="0" dy="1" in="shadowBlurInner1" result="shadowOffsetInner1"></feOffset>
            <feComposite in="shadowOffsetInner1" in2="SourceAlpha" operator="arithmetic" k2="-1" k3="1" result="shadowInnerInner1"></feComposite>
            <feColorMatrix values="0 0 0 0 0.096087722   0 0 0 0 0.116339125   0 0 0 0 0.16089221  0 0 0 1 0" type="matrix" in="shadowInnerInner1"></feColorMatrix>
        </filter>
        <polygon id="path-54" points="16.4794175 7.20404883 0.360076986 3.2481203 -6.72381374e-13 4.70838795 17.524941 8.31344143"></polygon>
        <filter x="-19.9%" y="-68.9%" width="143.8%" height="241.1%" filterUnits="objectBoundingBox" id="filter-55">
            <feGaussianBlur stdDeviation="2.5" in="SourceAlpha" result="shadowBlurInner1"></feGaussianBlur>
            <feOffset dx="0" dy="1" in="shadowBlurInner1" result="shadowOffsetInner1"></feOffset>
            <feComposite in="shadowOffsetInner1" in2="SourceAlpha" operator="arithmetic" k2="-1" k3="1" result="shadowInnerInner1"></feComposite>
            <feColorMatrix values="0 0 0 0 0.096087722   0 0 0 0 0.116339125   0 0 0 0 0.16089221  0 0 0 1 0" type="matrix" in="shadowInnerInner1"></feColorMatrix>
        </filter>
        <polygon id="path-56" points="36.245762 50.2379855 43.6845437 28.5090771 67.2214365 28.4268601 49.3304983 87.5748434"></polygon>
        <filter x="-11.1%" y="-5.8%" width="122.5%" height="113.0%" filterUnits="objectBoundingBox" id="filter-57">
            <feGaussianBlur stdDeviation="2.5" in="SourceAlpha" result="shadowBlurInner1"></feGaussianBlur>
            <feOffset dx="0" dy="1" in="shadowBlurInner1" result="shadowOffsetInner1"></feOffset>
            <feComposite in="shadowOffsetInner1" in2="SourceAlpha" operator="arithmetic" k2="-1" k3="1" result="shadowInnerInner1"></feComposite>
            <feColorMatrix values="0 0 0 0 0.096087722   0 0 0 0 0.116339125   0 0 0 0 0.16089221  0 0 0 1 0" type="matrix" in="shadowInnerInner1"></feColorMatrix>
        </filter>
        <linearGradient x1="90.4845435%" y1="136.373798%" x2="64.2002301%" y2="23.1862882%" id="linearGradient-58">
            <stop stop-color="#323A4A" offset="0%"></stop>
            <stop stop-color="#1A1F2A" offset="100%"></stop>
        </linearGradient>
        <linearGradient x1="158.227639%" y1="66.0634462%" x2="50%" y2="52.794681%" id="linearGradient-59">
            <stop stop-color="#323A4A" offset="0%"></stop>
            <stop stop-color="#1A1F2A" offset="100%"></stop>
        </linearGradient>
        <linearGradient x1="63.9831499%" y1="107.809614%" x2="41.6644458%" y2="31.7855714%" id="linearGradient-60">
            <stop stop-color="#323A4A" offset="0%"></stop>
            <stop stop-color="#1A1F2A" offset="100%"></stop>
        </linearGradient>
        <linearGradient x1="69.4487576%" y1="47.337793%" x2="31.2561972%" y2="60.1420044%" id="linearGradient-61">
            <stop stop-color="#323A4A" offset="0%"></stop>
            <stop stop-color="#1A1F2A" offset="100%"></stop>
        </linearGradient>
        <linearGradient x1="69.4487576%" y1="45.4018769%" x2="31.2561972%" y2="67.5171146%" id="linearGradient-62">
            <stop stop-color="#323A4A" offset="0%"></stop>
            <stop stop-color="#1A1F2A" offset="100%"></stop>
        </linearGradient>
        <path d="M50.5649707,46.3894443 C47.2981171,50.5136172 43.000905,52.3620326 37.6733343,51.9346905 L42.7910118,66.500146 C45.6568685,68.982972 49.7978375,68.982972 55.2139189,66.500146 C60.6300003,64.01732 68.6249127,59.6518309 79.1986561,53.4036788 L50.5649707,46.3894443 Z" id="path-63"></path>
        <filter x="-8.6%" y="-15.7%" width="118.4%" height="131.2%" filterUnits="objectBoundingBox" id="filter-64">
            <feGaussianBlur stdDeviation="2.5" in="SourceAlpha" result="shadowBlurInner1"></feGaussianBlur>
            <feOffset dx="0" dy="1" in="shadowBlurInner1" result="shadowOffsetInner1"></feOffset>
            <feComposite in="shadowOffsetInner1" in2="SourceAlpha" operator="arithmetic" k2="-1" k3="1" result="shadowInnerInner1"></feComposite>
            <feColorMatrix values="0 0 0 0 0.096087722   0 0 0 0 0.116339125   0 0 0 0 0.16089221  0 0 0 1 0" type="matrix" in="shadowInnerInner1"></feColorMatrix>
        </filter>
        <path d="M41.7144098,27.4351054 L41.7144098,31.4630919 C46.1947961,32.3999919 49.2875114,34.4729511 50.9925557,37.6819697 L82.711686,46.3894443 L83.3468731,45.5483141 L66.6198687,27.4351054 L41.7144098,27.4351054 Z" id="path-65"></path>
        <filter x="-8.2%" y="-18.0%" width="116.7%" height="136.2%" filterUnits="objectBoundingBox" id="filter-66">
            <feGaussianBlur stdDeviation="2.5" in="SourceAlpha" result="shadowBlurInner1"></feGaussianBlur>
            <feOffset dx="0" dy="1" in="shadowBlurInner1" result="shadowOffsetInner1"></feOffset>
            <feComposite in="shadowOffsetInner1" in2="SourceAlpha" operator="arithmetic" k2="-1" k3="1" result="shadowInnerInner1"></feComposite>
            <feColorMatrix values="0 0 0 0 0.096087722   0 0 0 0 0.116339125   0 0 0 0 0.16089221  0 0 0 1 0" type="matrix" in="shadowInnerInner1"></feColorMatrix>
        </filter>
    </defs>
    <g id="Page-1" stroke="none" stroke-width="1" fill="none" fill-rule="evenodd">
        <g id="Artboard-Copy" transform="translate(-692.000000, -342.000000)">
            <g id="logo_120" transform="translate(692.000000, 342.000000)">
                <mask id="mask-3" fill="white">
                    <use xlink:href="#path-2"></use>
                </mask>
                <use id="Combined-Shape" fill="url(#linearGradient-1)" xlink:href="#path-2"></use>
                <g id="Group-5-Copy-7" mask="url(#mask-3)">
                    <g transform="translate(0.000000, -6.496241)" id="Group-4">
                        <g>
                            <g id="Group-3" transform="translate(0.000000, 7.304475)">
                                <polygon id="Path-3" fill="url(#linearGradient-4)" points="27.9580305 4.60374016 27.9580305 22.2187192 44.8371608 22.2187192 30.6915819 4.60374016 29.3503657 3.53599052"></polygon>
                                <path d="M1.80924897,24.7648728 L21.358836,19.3873904 L25.326915,14.7146312 L46.3066219,9.97139967 L79.7746991,47.5287019 C75.5638438,54.9879382 70.3402337,61.1707292 64.103869,66.077075 C57.8675042,70.9834207 50.4132782,74.7746851 41.7411909,77.450868 L29.4920131,42.8115007 L11.1541253,42.8115007 L0.400530573,28.9697213 C-0.00392173762,27.8535227 -0.102064713,26.9847482 0.106101648,26.3633976 C0.314268008,25.742047 0.881983781,25.2092054 1.80924897,24.7648728 Z" id="Path" fill="url(#radialGradient-5)"></path>
                                <g id="Group" transform="translate(39.582669, 33.053387)" opacity="0.79594308">
                                    <g id="Path-8">
                                        <use fill="#1A1F2A" fill-rule="evenodd" xlink:href="#path-6"></use>
                                        <use fill="black" fill-opacity="1" filter="url(#filter-7)" xlink:href="#path-6"></use>
                                        <use stroke="#1A1F2A" stroke-width="0.689189209" xlink:href="#path-6"></use>
                                    </g>
                                    <g id="Path-8">
                                        <use fill="#1A1F2A" fill-rule="evenodd" xlink:href="#path-8"></use>
                                        <use fill="black" fill-opacity="1" filter="url(#filter-9)" xlink:href="#path-8"></use>
                                        <use stroke="#1A1F2A" stroke-width="0.689189209" xlink:href="#path-8"></use>
                                    </g>
                                </g>
                                <g id="Group" transform="translate(69.986811, 62.729708) rotate(88.000000) translate(-69.986811, -62.729708) translate(53.521115, 56.501790)" opacity="0.79594308">
                                    <g id="Path-8">
                                        <use fill="#1A1F2A" fill-rule="evenodd" xlink:href="#path-10"></use>
                                        <use fill="black" fill-opacity="1" filter="url(#filter-11)" xlink:href="#path-10"></use>
                                        <use stroke="#1A1F2A" stroke-width="0.689189209" xlink:href="#path-10"></use>
                                    </g>
                                    <g id="Path-8">
                                        <use fill="#1A1F2A" fill-rule="evenodd" xlink:href="#path-12"></use>
                                        <use fill="black" fill-opacity="1" filter="url(#filter-13)" xlink:href="#path-12"></use>
                                        <use stroke="#1A1F2A" stroke-width="0.689189209" xlink:href="#path-12"></use>
                                    </g>
                                </g>
                                <g id="Path-7" opacity="0.24">
                                    <use fill="#1A1F2A" fill-rule="evenodd" xlink:href="#path-14"></use>
                                    <use fill="black" fill-opacity="1" filter="url(#filter-15)" xlink:href="#path-14"></use>
                                    <use stroke="#1A1F2A" stroke-width="0.689189209" xlink:href="#path-14"></use>
                                </g>
                                <path d="M35.2968083,22.2187192 L56.879677,22.2187192 C44.268322,7.40623974 37.8213806,3.55271368e-15 37.538853,3.55271368e-15 C37.2563254,3.55271368e-15 36.6072755,0.503374981 35.5917033,1.51012494 L35.2968083,22.2187192 Z" id="Path-2" fill="url(#linearGradient-16)"></path>
                                <path d="M0.400530573,28.9697213 C13.5079355,25.5398493 20.6698291,23.628045 21.8862114,23.2343082 C23.1025937,22.8405714 24.0836598,22.119112 24.8294097,21.0699299 C25.8291299,25.1149099 26.8720035,27.1373999 27.9580305,27.1373999 C29.587071,27.1373999 42.1083492,26.4013594 42.1083492,35.8672343 C42.1083492,40.4967452 37.9261054,42.9254182 29.5616178,43.1532532 L11.0205662,43.1532532 L0.400530573,28.9697213 Z" id="Path-4" fill="url(#linearGradient-17)"></path>
                                <ellipse id="Oval" fill="#F1F1F1" opacity="0.106515067" cx="29.2973496" cy="21.1106698" rx="2.05821206" ry="3.11395881"></ellipse>
                                <ellipse id="Oval" fill="url(#linearGradient-18)" cx="29.6403849" cy="21.4566652" rx="1.71517672" ry="2.76796339"></ellipse>
                                <path d="M71.2001757,44.2674739 C70.7126542,43.7111338 41.0078302,66.3942608 34.9033968,57.2198184 L33.6973425,55.7430849 C29.3468996,60.1132065 29.2909568,63.4466787 33.5295139,65.7435015 C39.8873496,69.1887358 71.6876971,44.8238139 71.2001757,44.2674739 Z" id="Path-5" fill="url(#linearGradient-19)"></path>
                                <path d="M73.5914839,46.4375556 C73.2910236,46.0207264 44.8699831,72.2870165 37.769737,65.974548 C33.8185382,65.974548 34.1860084,70.4295744 34.9037977,71.7236342 C35.621587,73.0176939 39.6029322,76.4301859 47.6078315,70.8074451 C55.6127309,65.1847044 73.8919442,46.8543849 73.5914839,46.4375556 Z" id="Path-6" fill="url(#linearGradient-20)"></path>
                                <ellipse id="Oval" fill="#535A6B" cx="73.8919442" cy="43.6003723" rx="4.11642412" ry="4.15194508"></ellipse>
                                <ellipse id="Oval" fill="#1A1F2A" opacity="0.647553943" cx="73.8919442" cy="43.6003723" rx="2.74428274" ry="2.76796339"></ellipse>
                                <g id="Path-9" opacity="0.79594308">
                                    <use fill="#1A1F2A" fill-rule="evenodd" xlink:href="#path-21"></use>
                                    <use fill="black" fill-opacity="1" filter="url(#filter-22)" xlink:href="#path-21"></use>
                                    <use stroke="#1A1F2A" stroke-width="0.689189209" xlink:href="#path-21"></use>
                                </g>
                                <g id="Path-10" opacity="0.79594308">
                                    <use fill="#1A1F2A" fill-rule="evenodd" xlink:href="#path-23"></use>
                                    <use fill="black" fill-opacity="1" filter="url(#filter-24)" xlink:href="#path-23"></use>
                                    <use stroke="#1A1F2A" stroke-width="0.689189209" xlink:href="#path-23"></use>
                                </g>
                            </g>
                            <g id="Group-3-Copy" transform="translate(87.251383, 39.789474) scale(-1, 1) rotate(10.000000) translate(-87.251383, -39.789474) translate(52.791924, 5.684211)">
                                <polygon id="Path-3" fill="url(#linearGradient-25)" points="24.0043696 3.94606299 24.0043696 19.0446165 38.4965522 19.0446165 26.3513582 3.94606299 25.1998089 3.03084901"></polygon>
                                <path d="M1.55339558,21.2270339 L18.3383946,16.6177632 L21.7453311,12.612541 L39.7582107,8.546914 L68.4934285,40.7388873 C64.8780477,47.1325185 60.39313,52.4320536 55.0386754,56.6374929 C49.6842208,60.8429321 44.204766,63.5888317 38.600311,64.8751918 L25.3214254,36.695572 L9.57677425,36.695572 L0.343889886,24.8311897 C-0.00336714847,23.8744481 -0.0876313191,23.1297842 0.0910973744,22.5971979 C0.269826068,22.0646117 0.757258802,21.6078904 1.55339558,21.2270339 Z" id="Path" fill="url(#radialGradient-26)"></path>
                                <g id="Group" transform="translate(33.985120, 28.331474)" opacity="0.79594308">
                                    <g id="Path-8">
                                        <use fill="#1A1F2A" fill-rule="evenodd" xlink:href="#path-27"></use>
                                        <use fill="black" fill-opacity="1" filter="url(#filter-28)" xlink:href="#path-27"></use>
                                        <use stroke="#1A1F2A" stroke-width="0.591081034" xlink:href="#path-27"></use>
                                    </g>
                                    <g id="Path-8">
                                        <use fill="#1A1F2A" fill-rule="evenodd" xlink:href="#path-29"></use>
                                        <use fill="black" fill-opacity="1" filter="url(#filter-30)" xlink:href="#path-29"></use>
                                        <use stroke="#1A1F2A" stroke-width="0.591081034" xlink:href="#path-29"></use>
                                    </g>
                                </g>
                                <g id="Group" transform="translate(60.089686, 53.768321) rotate(88.000000) translate(-60.089686, -53.768321) translate(45.952472, 48.430106)" opacity="0.79594308">
                                    <g id="Path-8">
                                        <use fill="#1A1F2A" fill-rule="evenodd" xlink:href="#path-31"></use>
                                        <use fill="black" fill-opacity="1" filter="url(#filter-32)" xlink:href="#path-31"></use>
                                        <use stroke="#1A1F2A" stroke-width="0.591081034" xlink:href="#path-31"></use>
                                    </g>
                                    <g id="Path-8">
                                        <use fill="#1A1F2A" fill-rule="evenodd" xlink:href="#path-33"></use>
                                        <use fill="black" fill-opacity="1" filter="url(#filter-34)" xlink:href="#path-33"></use>
                                        <use stroke="#1A1F2A" stroke-width="0.591081034" xlink:href="#path-33"></use>
                                    </g>
                                </g>
                                <g id="Path-7" opacity="0.24">
                                    <use fill="#1A1F2A" fill-rule="evenodd" xlink:href="#path-35"></use>
                                    <use fill="black" fill-opacity="1" filter="url(#filter-36)" xlink:href="#path-35"></use>
                                    <use stroke="#1A1F2A" stroke-width="0.591081034" xlink:href="#path-35"></use>
                                </g>
                                <path d="M30.3053404,19.0446165 L48.8360863,19.0446165 C38.0081552,6.34820549 32.4729025,3.55271368e-15 32.2303283,3.55271368e-15 C31.9877541,3.55271368e-15 31.430489,0.43146427 30.5585331,1.29439281 L30.3053404,19.0446165 Z" id="Path-2" fill="url(#linearGradient-37)"></path>
                                <path d="M0.343889886,24.8311897 C11.5977224,21.8912994 17.746823,20.25261 18.7911916,19.9151213 C19.8355602,19.5776326 20.6778897,18.9592388 21.3181801,18.0599399 C22.1765257,21.5270656 23.0719222,23.2606285 24.0043696,23.2606285 C25.4030407,23.2606285 36.1536332,22.6297366 36.1536332,30.7433437 C36.1536332,34.7114959 32.5628178,36.7932156 25.381187,36.9885028 L9.46210226,36.9885028 L0.343889886,24.8311897 Z" id="Path-4" fill="url(#linearGradient-38)"></path>
                                <ellipse id="Oval" fill="#F1F1F1" opacity="0.106515067" cx="25.15429" cy="18.0948599" rx="1.76715177" ry="2.66910755"></ellipse>
                                <ellipse id="Oval" fill="url(#linearGradient-39)" cx="25.4488153" cy="18.3914274" rx="1.47262647" ry="2.37254005"></ellipse>
                                <path d="M61.131464,37.943549 C60.7128849,37.4666861 35.2087431,56.9093664 29.9675629,49.0455586 L28.9320618,47.7797871 C25.196833,51.5256056 25.1488013,54.3828675 28.7879665,56.3515727 C34.2467143,59.3046307 61.550043,38.4204119 61.131464,37.943549 Z" id="Path-5" fill="url(#linearGradient-40)"></path>
                                <path d="M63.1846074,39.8036191 C62.9266364,39.4463369 38.524733,61.9602999 32.4285621,56.5496125 C29.0361187,56.5496125 29.3516234,60.3682066 29.9679071,61.4774007 C30.5841908,62.5865948 34.0025175,65.5115879 40.8754109,60.6920958 C47.7483043,55.8726037 63.4425783,40.1609013 63.1846074,39.8036191 Z" id="Path-6" fill="url(#linearGradient-41)"></path>
                                <ellipse id="Oval" fill="#535A6B" cx="63.4425783" cy="37.3717477" rx="3.53430353" ry="3.55881007"></ellipse>
                                <ellipse id="Oval" fill="#1A1F2A" opacity="0.647553943" cx="63.4425783" cy="37.3717477" rx="2.35620236" ry="2.37254005"></ellipse>
                                <g id="Path-9" opacity="0.79594308">
                                    <use fill="#1A1F2A" fill-rule="evenodd" xlink:href="#path-42"></use>
                                    <use fill="black" fill-opacity="1" filter="url(#filter-43)" xlink:href="#path-42"></use>
                                    <use stroke="#1A1F2A" stroke-width="0.591081034" xlink:href="#path-42"></use>
                                </g>
                                <g id="Path-10" opacity="0.79594308">
                                    <use fill="#1A1F2A" fill-rule="evenodd" xlink:href="#path-44"></use>
                                    <use fill="black" fill-opacity="1" filter="url(#filter-45)" xlink:href="#path-44"></use>
                                    <use stroke="#1A1F2A" stroke-width="0.591081034" xlink:href="#path-44"></use>
                                </g>
                            </g>
                            <g id="Group-3-Copy" transform="translate(72.567568, 68.206731) scale(-1, 1) translate(-72.567568, -68.206731) translate(25.135135, 22.733047)">
                                <polygon id="Path-3" fill="url(#linearGradient-46)" points="33.0413088 5.40234815 33.0413088 26.0729868 52.9893719 26.0729868 36.2718695 5.40234815 34.6867958 4.14937663"></polygon>
                                <path d="M2.13820332,29.0608202 L25.2422607,22.7505092 L29.9318086,17.2671693 L54.7260077,11.7011323 L94.2791899,55.7734767 C89.3027245,64.5266622 83.1293671,71.7819782 75.7591179,77.5394247 C68.3888686,83.2968713 59.5793288,87.7458039 49.3304983,90.8862226 L34.8541973,50.2379855 L13.1821481,50.2379855 L0.473354314,33.9950811 C-0.00463478082,32.6852563 -0.120621933,31.6657759 0.125392857,30.93664 C0.371407646,30.2075042 1.04234447,29.5822309 2.13820332,29.0608202 Z" id="Path" fill="url(#radialGradient-47)"></path>
                                <g id="Group" transform="translate(46.779518, 38.787137)" opacity="0.79594308">
                                    <g id="Path-8">
                                        <use fill="#1A1F2A" fill-rule="evenodd" xlink:href="#path-48"></use>
                                        <use fill="black" fill-opacity="1" filter="url(#filter-49)" xlink:href="#path-48"></use>
                                        <use stroke="#1A1F2A" stroke-width="0.810810811" xlink:href="#path-48"></use>
                                    </g>
                                    <g id="Path-8">
                                        <use fill="#1A1F2A" fill-rule="evenodd" xlink:href="#path-50"></use>
                                        <use fill="black" fill-opacity="1" filter="url(#filter-51)" xlink:href="#path-50"></use>
                                        <use stroke="#1A1F2A" stroke-width="0.810810811" xlink:href="#path-50"></use>
                                    </g>
                                </g>
                                <g id="Group" transform="translate(85.179936, 62.962244) rotate(88.000000) translate(-85.179936, -62.962244) translate(76.261017, 58.496078)" opacity="0.79594308">
                                    <g id="Path-8">
                                        <use fill="#1A1F2A" fill-rule="evenodd" xlink:href="#path-52"></use>
                                        <use fill="black" fill-opacity="1" filter="url(#filter-53)" xlink:href="#path-52"></use>
                                        <use stroke="#1A1F2A" stroke-width="0.810810811" xlink:href="#path-52"></use>
                                    </g>
                                    <g id="Path-8">
                                        <use fill="#1A1F2A" fill-rule="evenodd" xlink:href="#path-54"></use>
                                        <use fill="black" fill-opacity="1" filter="url(#filter-55)" xlink:href="#path-54"></use>
                                        <use stroke="#1A1F2A" stroke-width="0.810810811" xlink:href="#path-54"></use>
                                    </g>
                                </g>
                                <g id="Path-7" opacity="0.24">
                                    <use fill="#1A1F2A" fill-rule="evenodd" xlink:href="#path-56"></use>
                                    <use fill="black" fill-opacity="1" filter="url(#filter-57)" xlink:href="#path-56"></use>
                                    <use stroke="#1A1F2A" stroke-width="0.810810811" xlink:href="#path-56"></use>
                                </g>
                                <path d="M41.7144098,26.0729868 L67.2214365,26.0729868 C52.3171078,8.69099561 44.6979953,3.55271368e-15 44.364099,3.55271368e-15 C44.0302027,3.55271368e-15 43.2631437,0.590695131 42.062922,1.77208539 L41.7144098,26.0729868 Z" id="Path-2" fill="url(#linearGradient-58)"></path>
                                <path d="M0.473354314,33.9950811 C15.9639238,29.9702313 24.4279799,27.7267874 25.8655225,27.2647494 C27.3030652,26.8027114 28.462507,25.9561008 29.3438479,24.7249177 C30.5253354,29.4715779 31.7578224,31.844908 33.0413088,31.844908 C34.9665384,31.844908 49.7644127,30.9811871 49.7644127,42.0891015 C49.7644127,47.5216908 44.8217609,50.3716642 34.9364574,50.6390216 L13.0243055,50.6390216 L0.473354314,33.9950811 Z" id="Path-4" fill="url(#linearGradient-59)"></path>
                                <ellipse id="Oval" fill="#F1F1F1" opacity="0.106515067" cx="34.6241404" cy="24.7727248" rx="2.43243243" ry="3.65413534"></ellipse>
                                <ellipse id="Oval" fill="url(#linearGradient-60)" cx="35.0295458" cy="25.1787398" rx="2.02702703" ry="3.2481203"></ellipse>
                                <path d="M84.1456622,51.9465254 C83.5695004,51.2936774 48.4637994,77.9116326 41.2494689,67.1457053 L39.8241321,65.4128037 C34.6826996,70.5410076 34.6165853,74.4527352 39.6257891,77.1479865 C47.1395949,81.1908634 84.7218239,52.5993734 84.1456622,51.9465254 Z" id="Path-5" fill="url(#linearGradient-61)"></path>
                                <path d="M86.9717537,54.49305 C86.6166642,54.0039137 53.0281619,84.826601 44.6369619,77.4191124 C39.9673634,77.4191124 40.4016463,82.6469495 41.2499427,84.1654891 C42.0982392,85.6840286 46.8034653,89.6884835 56.2638009,83.0903693 C65.7241365,76.4922551 87.3268431,54.9821863 86.9717537,54.49305 Z" id="Path-6" fill="url(#linearGradient-62)"></path>
                                <ellipse id="Oval" fill="#535A6B" cx="87.3268431" cy="51.1637022" rx="4.86486486" ry="4.87218045"></ellipse>
                                <ellipse id="Oval" fill="#1A1F2A" opacity="0.647553943" cx="87.3268431" cy="51.1637022" rx="3.24324324" ry="3.2481203"></ellipse>
                                <g id="Path-9" opacity="0.79594308">
                                    <use fill="#1A1F2A" fill-rule="evenodd" xlink:href="#path-63"></use>
                                    <use fill="black" fill-opacity="1" filter="url(#filter-64)" xlink:href="#path-63"></use>
                                    <use stroke="#1A1F2A" stroke-width="0.810810811" xlink:href="#path-63"></use>
                                </g>
                                <g id="Path-10" opacity="0.79594308">
                                    <use fill="#1A1F2A" fill-rule="evenodd" xlink:href="#path-65"></use>
                                    <use fill="black" fill-opacity="1" filter="url(#filter-66)" xlink:href="#path-65"></use>
                                    <use stroke="#1A1F2A" stroke-width="0.810810811" xlink:href="#path-65"></use>
                                </g>
                            </g>
                        </g>
                    </g>
                </g>
            </g>
        </g>
    </g>
</svg>