<?xml version="1.0" encoding="UTF-8"?>
<svg width="240px" height="216px" viewBox="0 0 240 216" version="1.1" xmlns="http://www.w3.org/2000/svg" xmlns:xlink="http://www.w3.org/1999/xlink">
    <!-- Generator: Sketch 55.2 (78181) - https://sketchapp.com -->
    <title>logo_240</title>
    <desc>Created with Sketch.</desc>
    <defs>
        <linearGradient x1="40.3694823%" y1="43.7097185%" x2="8.80482184%" y2="19.7902689%" id="linearGradient-1">
            <stop stop-color="#323A4A" offset="0%"></stop>
            <stop stop-color="#1A1F2A" offset="100%"></stop>
        </linearGradient>
        <path d="M60.8098744,125.72684 C61.0682818,122.511603 63.2632187,118.828908 67.3946851,114.678753 L68.6910839,116.266107 L59.2247297,89.4962682 C59.1909326,89.4972267 59.1571013,89.4981672 59.1232357,89.4990896 L22.0411323,89.4990896 L0.801061147,61.1320257 C-0.00784347524,58.8996287 -0.204129426,57.1620796 0.212203296,55.9193784 C0.628536017,54.6766772 1.76396756,53.6109941 3.61849793,52.7223289 L42.717672,41.967364 L50.65383,32.6218456 L55.916061,31.4321254 L55.916061,12.4000635 L58.7007313,10.2645642 L61.3831639,12.4000635 L70.9260761,24.2835078 L71.1834065,6.21283308 C73.214551,4.19933315 74.5126508,3.19258319 75.077706,3.19258319 C75.510886,3.19258319 83.1897077,11.897865 98.114171,29.3084287 L125.383615,59.9097309 C108.267955,84.7375964 86.7433766,106.676631 60.8098806,125.726836 Z M168.315682,0.629085379 C168.942773,0.956541247 169.767877,1.47451404 170.790995,2.18300376 L173.698242,17.3984727 L179.998428,5.94463797 L181.948687,3.74208944 L184.621093,5.12953738 L187.45385,21.1948992 L192.080366,21.4146111 L200.18172,28.1201422 L234.842498,31.3692641 C236.542851,31.8429096 237.661524,32.5731915 238.198516,33.5601097 C238.735508,34.5470279 238.828159,36.0429941 238.476469,38.0480083 L224.739287,65.1599626 L193.384811,70.6886028 C193.33376,70.6961799 193.282791,70.703693 193.231906,70.7111422 L190.73447,79.8836823 L235.723593,92.1713664 C237.915311,93.2141878 239.257185,94.4647344 239.749214,95.9230061 C240.241244,97.3812779 240.00927,99.4202386 239.053291,102.039888 L213.951389,135.327769 L170.127085,135.327769 C170.087062,135.326687 170.04708,135.325583 170.007136,135.324463 L158.819628,166.738045 L160.351736,164.875334 C170.634601,175.131741 170.766829,182.955196 160.748422,188.345699 C158.627063,189.487117 155.307341,189.327906 151.173101,188.208852 L150.930646,188.889643 C160.052442,189.041469 159.18422,199.36598 157.500115,202.380704 C156.415377,204.322499 152.177333,208.296701 144.316483,207.461658 L141.339003,215.822171 C120.841342,209.541334 103.222263,200.643469 88.4817642,189.128576 C73.7412658,177.613682 61.3945511,163.10305 51.4416202,145.59668 L55.058093,141.567005 C99.634201,103.190647 137.386725,56.2113452 168.315682,0.629085379 Z" id="path-2"></path>
        <linearGradient x1="42.1391565%" y1="42.1764727%" x2="16.3747206%" y2="12.4266963%" id="linearGradient-4">
            <stop stop-color="#323A4A" offset="0%"></stop>
            <stop stop-color="#1A1F2A" offset="100%"></stop>
        </linearGradient>
        <radialGradient cx="88.8679751%" cy="100%" fx="88.8679751%" fy="100%" r="70.6872017%" gradientTransform="translate(0.888680,1.000000),scale(0.845876,1.000000),rotate(-130.545133),scale(1.000000,2.367561),translate(-0.888680,-1.000000)" id="radialGradient-5">
            <stop stop-color="#798294" offset="0%"></stop>
            <stop stop-color="#444B5B" offset="100%"></stop>
        </radialGradient>
        <polygon id="path-6" points="64.4992277 16.6324898 0.609361054 7.10542736e-15 -3.55271368e-15 2.48880399 64.4992277 18.8157513"></polygon>
        <filter x="-9.0%" y="-31.1%" width="117.9%" height="162.3%" filterUnits="objectBoundingBox" id="filter-7">
            <feGaussianBlur stdDeviation="4" in="SourceAlpha" result="shadowBlurInner1"></feGaussianBlur>
            <feOffset dx="0" dy="2" in="shadowBlurInner1" result="shadowOffsetInner1"></feOffset>
            <feComposite in="shadowOffsetInner1" in2="SourceAlpha" operator="arithmetic" k2="-1" k3="1" result="shadowInnerInner1"></feComposite>
            <feColorMatrix values="0 0 0 0 0.096087722   0 0 0 0 0.116339125   0 0 0 0 0.16089221  0 0 0 1 0" type="matrix" in="shadowInnerInner1"></feColorMatrix>
        </filter>
        <polygon id="path-8" points="64.4992277 22.1684166 0.609361054 5.53592677 -3.55271368e-15 8.02473076 64.4992277 24.3516781"></polygon>
        <filter x="-9.0%" y="-31.1%" width="117.9%" height="162.3%" filterUnits="objectBoundingBox" id="filter-9">
            <feGaussianBlur stdDeviation="4" in="SourceAlpha" result="shadowBlurInner1"></feGaussianBlur>
            <feOffset dx="0" dy="2" in="shadowBlurInner1" result="shadowOffsetInner1"></feOffset>
            <feComposite in="shadowOffsetInner1" in2="SourceAlpha" operator="arithmetic" k2="-1" k3="1" result="shadowInnerInner1"></feComposite>
            <feColorMatrix values="0 0 0 0 0.096087722   0 0 0 0 0.116339125   0 0 0 0 0.16089221  0 0 0 1 0" type="matrix" in="shadowInnerInner1"></feColorMatrix>
        </filter>
        <polygon id="path-10" points="64.4992277 16.6324898 0.609361054 7.10542736e-15 -3.55271368e-15 2.48880399 64.4992277 18.8157513"></polygon>
        <filter x="-9.0%" y="-31.1%" width="117.9%" height="162.3%" filterUnits="objectBoundingBox" id="filter-11">
            <feGaussianBlur stdDeviation="4" in="SourceAlpha" result="shadowBlurInner1"></feGaussianBlur>
            <feOffset dx="0" dy="2" in="shadowBlurInner1" result="shadowOffsetInner1"></feOffset>
            <feComposite in="shadowOffsetInner1" in2="SourceAlpha" operator="arithmetic" k2="-1" k3="1" result="shadowInnerInner1"></feComposite>
            <feColorMatrix values="0 0 0 0 0.096087722   0 0 0 0 0.116339125   0 0 0 0 0.16089221  0 0 0 1 0" type="matrix" in="shadowInnerInner1"></feColorMatrix>
        </filter>
        <polygon id="path-12" points="64.4992277 22.1684166 0.609361054 5.53592677 -3.55271368e-15 8.02473076 64.4992277 24.3516781"></polygon>
        <filter x="-9.0%" y="-31.1%" width="117.9%" height="162.3%" filterUnits="objectBoundingBox" id="filter-13">
            <feGaussianBlur stdDeviation="4" in="SourceAlpha" result="shadowBlurInner1"></feGaussianBlur>
            <feOffset dx="0" dy="2" in="shadowBlurInner1" result="shadowOffsetInner1"></feOffset>
            <feComposite in="shadowOffsetInner1" in2="SourceAlpha" operator="arithmetic" k2="-1" k3="1" result="shadowInnerInner1"></feComposite>
            <feColorMatrix values="0 0 0 0 0.096087722   0 0 0 0 0.116339125   0 0 0 0 0.16089221  0 0 0 1 0" type="matrix" in="shadowInnerInner1"></feColorMatrix>
        </filter>
        <polygon id="path-14" points="61.3389819 85.6230014 73.9276893 48.5893835 113.759354 48.4492573 83.4823818 149.257994"></polygon>
        <filter x="-10.9%" y="-5.6%" width="122.2%" height="112.8%" filterUnits="objectBoundingBox" id="filter-15">
            <feGaussianBlur stdDeviation="4" in="SourceAlpha" result="shadowBlurInner1"></feGaussianBlur>
            <feOffset dx="0" dy="2" in="shadowBlurInner1" result="shadowOffsetInner1"></feOffset>
            <feComposite in="shadowOffsetInner1" in2="SourceAlpha" operator="arithmetic" k2="-1" k3="1" result="shadowInnerInner1"></feComposite>
            <feColorMatrix values="0 0 0 0 0.096087722   0 0 0 0 0.116339125   0 0 0 0 0.16089221  0 0 0 1 0" type="matrix" in="shadowInnerInner1"></feColorMatrix>
        </filter>
        <linearGradient x1="89.9145688%" y1="136.373798%" x2="64.0003076%" y2="23.1862882%" id="linearGradient-16">
            <stop stop-color="#323A4A" offset="0%"></stop>
            <stop stop-color="#1A1F2A" offset="100%"></stop>
        </linearGradient>
        <linearGradient x1="158.227639%" y1="66.29283%" x2="50%" y2="52.8345887%" id="linearGradient-17">
            <stop stop-color="#323A4A" offset="0%"></stop>
            <stop stop-color="#1A1F2A" offset="100%"></stop>
        </linearGradient>
        <linearGradient x1="63.7862836%" y1="107.809614%" x2="41.7818006%" y2="31.7855714%" id="linearGradient-18">
            <stop stop-color="#323A4A" offset="0%"></stop>
            <stop stop-color="#1A1F2A" offset="100%"></stop>
        </linearGradient>
        <linearGradient x1="69.4487576%" y1="47.2997771%" x2="31.2561972%" y2="60.2868308%" id="linearGradient-19">
            <stop stop-color="#323A4A" offset="0%"></stop>
            <stop stop-color="#1A1F2A" offset="100%"></stop>
        </linearGradient>
        <linearGradient x1="69.4487576%" y1="45.3362163%" x2="31.2561972%" y2="67.7672566%" id="linearGradient-20">
            <stop stop-color="#323A4A" offset="0%"></stop>
            <stop stop-color="#1A1F2A" offset="100%"></stop>
        </linearGradient>
        <path d="M85.571489,79.0637485 C80.0429674,86.0927736 72.7707622,89.2431164 63.7548734,88.5147769 L72.4155584,113.339379 C77.2654697,117.570978 84.2732634,117.570978 93.4389397,113.339379 C102.604616,109.10778 116.134468,101.667468 134.028495,91.0184439 L85.571489,79.0637485 Z" id="path-21"></path>
        <filter x="-8.5%" y="-15.4%" width="118.2%" height="130.6%" filterUnits="objectBoundingBox" id="filter-22">
            <feGaussianBlur stdDeviation="4" in="SourceAlpha" result="shadowBlurInner1"></feGaussianBlur>
            <feOffset dx="0" dy="2" in="shadowBlurInner1" result="shadowOffsetInner1"></feOffset>
            <feComposite in="shadowOffsetInner1" in2="SourceAlpha" operator="arithmetic" k2="-1" k3="1" result="shadowInnerInner1"></feComposite>
            <feColorMatrix values="0 0 0 0 0.096087722   0 0 0 0 0.116339125   0 0 0 0 0.16089221  0 0 0 1 0" type="matrix" in="shadowInnerInner1"></feColorMatrix>
        </filter>
        <path d="M70.5936165,46.7589622 L70.5936165,53.6240523 C78.1758087,55.2208557 83.4096346,58.7538993 86.2950942,64.2231831 L139.973623,79.0637485 L141.048554,77.6301702 L112.741316,46.7589622 L70.5936165,46.7589622 Z" id="path-23"></path>
        <filter x="-8.1%" y="-17.6%" width="116.4%" height="135.5%" filterUnits="objectBoundingBox" id="filter-24">
            <feGaussianBlur stdDeviation="4" in="SourceAlpha" result="shadowBlurInner1"></feGaussianBlur>
            <feOffset dx="0" dy="2" in="shadowBlurInner1" result="shadowOffsetInner1"></feOffset>
            <feComposite in="shadowOffsetInner1" in2="SourceAlpha" operator="arithmetic" k2="-1" k3="1" result="shadowInnerInner1"></feComposite>
            <feColorMatrix values="0 0 0 0 0.096087722   0 0 0 0 0.116339125   0 0 0 0 0.16089221  0 0 0 1 0" type="matrix" in="shadowInnerInner1"></feColorMatrix>
        </filter>
        <linearGradient x1="42.1126667%" y1="42.1764727%" x2="16.2614088%" y2="12.4266963%" id="linearGradient-25">
            <stop stop-color="#323A4A" offset="0%"></stop>
            <stop stop-color="#1A1F2A" offset="100%"></stop>
        </linearGradient>
        <radialGradient cx="88.8679751%" cy="100%" fx="88.8679751%" fy="100%" r="71.5471772%" gradientTransform="translate(0.888680,1.000000),scale(0.822390,1.000000),rotate(-131.343707),scale(1.000000,2.367561),translate(-0.888680,-1.000000)" id="radialGradient-26">
            <stop stop-color="#798294" offset="0%"></stop>
            <stop stop-color="#444B5B" offset="100%"></stop>
        </radialGradient>
        <polygon id="path-27" points="55.3781248 14.2564198 0.523188784 7.10542736e-15 -3.55271368e-15 2.13326056 55.3781248 16.1277868"></polygon>
        <filter x="-8.5%" y="-29.3%" width="116.8%" height="158.8%" filterUnits="objectBoundingBox" id="filter-28">
            <feGaussianBlur stdDeviation="3" in="SourceAlpha" result="shadowBlurInner1"></feGaussianBlur>
            <feOffset dx="0" dy="2" in="shadowBlurInner1" result="shadowOffsetInner1"></feOffset>
            <feComposite in="shadowOffsetInner1" in2="SourceAlpha" operator="arithmetic" k2="-1" k3="1" result="shadowInnerInner1"></feComposite>
            <feColorMatrix values="0 0 0 0 0.096087722   0 0 0 0 0.116339125   0 0 0 0 0.16089221  0 0 0 1 0" type="matrix" in="shadowInnerInner1"></feColorMatrix>
        </filter>
        <polygon id="path-29" points="55.3781248 19.0014999 0.523188784 4.74508009 -3.55271368e-15 6.87834066 55.3781248 20.8728669"></polygon>
        <filter x="-8.5%" y="-29.3%" width="116.8%" height="158.8%" filterUnits="objectBoundingBox" id="filter-30">
            <feGaussianBlur stdDeviation="3" in="SourceAlpha" result="shadowBlurInner1"></feGaussianBlur>
            <feOffset dx="0" dy="2" in="shadowBlurInner1" result="shadowOffsetInner1"></feOffset>
            <feComposite in="shadowOffsetInner1" in2="SourceAlpha" operator="arithmetic" k2="-1" k3="1" result="shadowInnerInner1"></feComposite>
            <feColorMatrix values="0 0 0 0 0.096087722   0 0 0 0 0.116339125   0 0 0 0 0.16089221  0 0 0 1 0" type="matrix" in="shadowInnerInner1"></feColorMatrix>
        </filter>
        <polygon id="path-31" points="55.3781248 14.2564198 0.523188784 7.10542736e-15 -3.55271368e-15 2.13326056 55.3781248 16.1277868"></polygon>
        <filter x="-8.5%" y="-29.3%" width="116.8%" height="158.8%" filterUnits="objectBoundingBox" id="filter-32">
            <feGaussianBlur stdDeviation="3" in="SourceAlpha" result="shadowBlurInner1"></feGaussianBlur>
            <feOffset dx="0" dy="2" in="shadowBlurInner1" result="shadowOffsetInner1"></feOffset>
            <feComposite in="shadowOffsetInner1" in2="SourceAlpha" operator="arithmetic" k2="-1" k3="1" result="shadowInnerInner1"></feComposite>
            <feColorMatrix values="0 0 0 0 0.096087722   0 0 0 0 0.116339125   0 0 0 0 0.16089221  0 0 0 1 0" type="matrix" in="shadowInnerInner1"></feColorMatrix>
        </filter>
        <polygon id="path-33" points="55.3781248 19.0014999 0.523188784 4.74508009 -3.55271368e-15 6.87834066 55.3781248 20.8728669"></polygon>
        <filter x="-8.5%" y="-29.3%" width="116.8%" height="158.8%" filterUnits="objectBoundingBox" id="filter-34">
            <feGaussianBlur stdDeviation="3" in="SourceAlpha" result="shadowBlurInner1"></feGaussianBlur>
            <feOffset dx="0" dy="2" in="shadowBlurInner1" result="shadowOffsetInner1"></feOffset>
            <feComposite in="shadowOffsetInner1" in2="SourceAlpha" operator="arithmetic" k2="-1" k3="1" result="shadowInnerInner1"></feComposite>
            <feColorMatrix values="0 0 0 0 0.096087722   0 0 0 0 0.116339125   0 0 0 0 0.16089221  0 0 0 1 0" type="matrix" in="shadowInnerInner1"></feColorMatrix>
        </filter>
        <polygon id="path-35" points="52.6647824 73.391144 63.4732686 41.648043 97.6721727 41.5279348 79.2642401 125.878968"></polygon>
        <filter x="-10.3%" y="-5.4%" width="120.8%" height="112.3%" filterUnits="objectBoundingBox" id="filter-36">
            <feGaussianBlur stdDeviation="3" in="SourceAlpha" result="shadowBlurInner1"></feGaussianBlur>
            <feOffset dx="0" dy="2" in="shadowBlurInner1" result="shadowOffsetInner1"></feOffset>
            <feComposite in="shadowOffsetInner1" in2="SourceAlpha" operator="arithmetic" k2="-1" k3="1" result="shadowInnerInner1"></feComposite>
            <feColorMatrix values="0 0 0 0 0.096087722   0 0 0 0 0.116339125   0 0 0 0 0.16089221  0 0 0 1 0" type="matrix" in="shadowInnerInner1"></feColorMatrix>
        </filter>
        <linearGradient x1="90.0490744%" y1="136.373798%" x2="64.0474864%" y2="23.1862882%" id="linearGradient-37">
            <stop stop-color="#323A4A" offset="0%"></stop>
            <stop stop-color="#1A1F2A" offset="100%"></stop>
        </linearGradient>
        <linearGradient x1="158.227639%" y1="66.2381103%" x2="50%" y2="52.8250687%" id="linearGradient-38">
            <stop stop-color="#323A4A" offset="0%"></stop>
            <stop stop-color="#1A1F2A" offset="100%"></stop>
        </linearGradient>
        <linearGradient x1="63.8327411%" y1="107.809614%" x2="41.7541066%" y2="31.7855714%" id="linearGradient-39">
            <stop stop-color="#323A4A" offset="0%"></stop>
            <stop stop-color="#1A1F2A" offset="100%"></stop>
        </linearGradient>
        <linearGradient x1="69.4487576%" y1="47.3088458%" x2="31.2561972%" y2="60.2522823%" id="linearGradient-40">
            <stop stop-color="#323A4A" offset="0%"></stop>
            <stop stop-color="#1A1F2A" offset="100%"></stop>
        </linearGradient>
        <linearGradient x1="69.4487576%" y1="45.3518798%" x2="31.2561972%" y2="67.7075849%" id="linearGradient-41">
            <stop stop-color="#323A4A" offset="0%"></stop>
            <stop stop-color="#1A1F2A" offset="100%"></stop>
        </linearGradient>
        <path d="M73.4704703,67.7689273 C68.7237599,73.7938059 62.4799474,76.4940998 54.7390327,75.8698087 L62.1749744,97.1480393 C66.3390396,100.775124 72.3558323,100.775124 80.2253523,97.1480393 C88.0948723,93.5209544 99.7114117,87.1435443 115.07497,78.0158091 L73.4704703,67.7689273 Z" id="path-42"></path>
        <filter x="-8.1%" y="-14.5%" width="117.2%" height="128.8%" filterUnits="objectBoundingBox" id="filter-43">
            <feGaussianBlur stdDeviation="3" in="SourceAlpha" result="shadowBlurInner1"></feGaussianBlur>
            <feOffset dx="0" dy="2" in="shadowBlurInner1" result="shadowOffsetInner1"></feOffset>
            <feComposite in="shadowOffsetInner1" in2="SourceAlpha" operator="arithmetic" k2="-1" k3="1" result="shadowInnerInner1"></feComposite>
            <feColorMatrix values="0 0 0 0 0.096087722   0 0 0 0 0.116339125   0 0 0 0 0.16089221  0 0 0 1 0" type="matrix" in="shadowInnerInner1"></feColorMatrix>
        </filter>
        <path d="M60.6106808,40.0791105 L60.6106808,45.9634734 C67.1206439,47.332162 71.6143328,50.3604851 74.0917476,55.0484427 L120.179373,67.7689273 L121.102294,66.5401459 L96.7980998,40.0791105 L60.6106808,40.0791105 Z" id="path-44"></path>
        <filter x="-7.6%" y="-16.6%" width="115.5%" height="133.5%" filterUnits="objectBoundingBox" id="filter-45">
            <feGaussianBlur stdDeviation="3" in="SourceAlpha" result="shadowBlurInner1"></feGaussianBlur>
            <feOffset dx="0" dy="2" in="shadowBlurInner1" result="shadowOffsetInner1"></feOffset>
            <feComposite in="shadowOffsetInner1" in2="SourceAlpha" operator="arithmetic" k2="-1" k3="1" result="shadowInnerInner1"></feComposite>
            <feColorMatrix values="0 0 0 0 0.096087722   0 0 0 0 0.116339125   0 0 0 0 0.16089221  0 0 0 1 0" type="matrix" in="shadowInnerInner1"></feColorMatrix>
        </filter>
        <linearGradient x1="42.0269047%" y1="42.1764727%" x2="15.8945561%" y2="12.4266963%" id="linearGradient-46">
            <stop stop-color="#323A4A" offset="0%"></stop>
            <stop stop-color="#1A1F2A" offset="100%"></stop>
        </linearGradient>
        <radialGradient cx="88.8679751%" cy="100%" fx="88.8679751%" fy="100%" r="70.9001483%" gradientTransform="translate(0.888680,1.000000),scale(0.839900,1.000000),rotate(-130.745889),scale(1.000000,2.367561),translate(-0.888680,-1.000000)" id="radialGradient-47">
            <stop stop-color="#798294" offset="0%"></stop>
            <stop stop-color="#444B5B" offset="100%"></stop>
        </radialGradient>
        <polygon id="path-48" points="76.22636 19.5177176 0.720153973 7.10542736e-15 -3.55271368e-15 2.9205353 76.22636 22.0797082"></polygon>
        <filter x="-9.2%" y="-31.7%" width="118.1%" height="163.5%" filterUnits="objectBoundingBox" id="filter-49">
            <feGaussianBlur stdDeviation="5" in="SourceAlpha" result="shadowBlurInner1"></feGaussianBlur>
            <feOffset dx="0" dy="2" in="shadowBlurInner1" result="shadowOffsetInner1"></feOffset>
            <feComposite in="shadowOffsetInner1" in2="SourceAlpha" operator="arithmetic" k2="-1" k3="1" result="shadowInnerInner1"></feComposite>
            <feColorMatrix values="0 0 0 0 0.096087722   0 0 0 0 0.116339125   0 0 0 0 0.16089221  0 0 0 1 0" type="matrix" in="shadowInnerInner1"></feColorMatrix>
        </filter>
        <polygon id="path-50" points="76.22636 26.0139582 0.720153973 6.4962406 -3.55271368e-15 9.4167759 76.22636 28.5759488"></polygon>
        <filter x="-9.2%" y="-31.7%" width="118.1%" height="163.5%" filterUnits="objectBoundingBox" id="filter-51">
            <feGaussianBlur stdDeviation="5" in="SourceAlpha" result="shadowBlurInner1"></feGaussianBlur>
            <feOffset dx="0" dy="2" in="shadowBlurInner1" result="shadowOffsetInner1"></feOffset>
            <feComposite in="shadowOffsetInner1" in2="SourceAlpha" operator="arithmetic" k2="-1" k3="1" result="shadowInnerInner1"></feComposite>
            <feColorMatrix values="0 0 0 0 0.096087722   0 0 0 0 0.116339125   0 0 0 0 0.16089221  0 0 0 1 0" type="matrix" in="shadowInnerInner1"></feColorMatrix>
        </filter>
        <polygon id="path-52" points="21.5676171 3.67482565 0.720153973 -3.94106238e-12 -3.45598506e-12 2.9205353 26.74852 8.50011785"></polygon>
        <filter x="-26.1%" y="-81.5%" width="158.6%" height="268.4%" filterUnits="objectBoundingBox" id="filter-53">
            <feGaussianBlur stdDeviation="5" in="SourceAlpha" result="shadowBlurInner1"></feGaussianBlur>
            <feOffset dx="0" dy="2" in="shadowBlurInner1" result="shadowOffsetInner1"></feOffset>
            <feComposite in="shadowOffsetInner1" in2="SourceAlpha" operator="arithmetic" k2="-1" k3="1" result="shadowInnerInner1"></feComposite>
            <feColorMatrix values="0 0 0 0 0.096087722   0 0 0 0 0.116339125   0 0 0 0 0.16089221  0 0 0 1 0" type="matrix" in="shadowInnerInner1"></feColorMatrix>
        </filter>
        <polygon id="path-54" points="32.958835 14.4080977 0.720153973 6.4962406 -1.34121003e-12 9.4167759 35.0498821 16.6268829"></polygon>
        <filter x="-19.9%" y="-68.9%" width="143.8%" height="241.1%" filterUnits="objectBoundingBox" id="filter-55">
            <feGaussianBlur stdDeviation="5" in="SourceAlpha" result="shadowBlurInner1"></feGaussianBlur>
            <feOffset dx="0" dy="2" in="shadowBlurInner1" result="shadowOffsetInner1"></feOffset>
            <feComposite in="shadowOffsetInner1" in2="SourceAlpha" operator="arithmetic" k2="-1" k3="1" result="shadowInnerInner1"></feComposite>
            <feColorMatrix values="0 0 0 0 0.096087722   0 0 0 0 0.116339125   0 0 0 0 0.16089221  0 0 0 1 0" type="matrix" in="shadowInnerInner1"></feColorMatrix>
        </filter>
        <polygon id="path-56" points="72.491524 100.475971 87.3690873 57.0181541 134.442873 56.8537203 98.6609967 175.149687"></polygon>
        <filter x="-11.1%" y="-5.8%" width="122.5%" height="113.0%" filterUnits="objectBoundingBox" id="filter-57">
            <feGaussianBlur stdDeviation="5" in="SourceAlpha" result="shadowBlurInner1"></feGaussianBlur>
            <feOffset dx="0" dy="2" in="shadowBlurInner1" result="shadowOffsetInner1"></feOffset>
            <feComposite in="shadowOffsetInner1" in2="SourceAlpha" operator="arithmetic" k2="-1" k3="1" result="shadowInnerInner1"></feComposite>
            <feColorMatrix values="0 0 0 0 0.096087722   0 0 0 0 0.116339125   0 0 0 0 0.16089221  0 0 0 1 0" type="matrix" in="shadowInnerInner1"></feColorMatrix>
        </filter>
        <linearGradient x1="90.4845435%" y1="136.373798%" x2="64.2002301%" y2="23.1862882%" id="linearGradient-58">
            <stop stop-color="#323A4A" offset="0%"></stop>
            <stop stop-color="#1A1F2A" offset="100%"></stop>
        </linearGradient>
        <linearGradient x1="158.227639%" y1="66.0634462%" x2="50%" y2="52.794681%" id="linearGradient-59">
            <stop stop-color="#323A4A" offset="0%"></stop>
            <stop stop-color="#1A1F2A" offset="100%"></stop>
        </linearGradient>
        <linearGradient x1="63.9831499%" y1="107.809614%" x2="41.6644458%" y2="31.7855714%" id="linearGradient-60">
            <stop stop-color="#323A4A" offset="0%"></stop>
            <stop stop-color="#1A1F2A" offset="100%"></stop>
        </linearGradient>
        <linearGradient x1="69.4487576%" y1="47.337793%" x2="31.2561972%" y2="60.1420044%" id="linearGradient-61">
            <stop stop-color="#323A4A" offset="0%"></stop>
            <stop stop-color="#1A1F2A" offset="100%"></stop>
        </linearGradient>
        <linearGradient x1="69.4487576%" y1="45.4018769%" x2="31.2561972%" y2="67.5171146%" id="linearGradient-62">
            <stop stop-color="#323A4A" offset="0%"></stop>
            <stop stop-color="#1A1F2A" offset="100%"></stop>
        </linearGradient>
        <path d="M101.129941,92.7788885 C94.5962342,101.027234 86.0018099,104.724065 75.3466685,103.869381 L85.5820236,133.000292 C91.3137369,137.965944 99.595675,137.965944 110.427838,133.000292 C121.260001,128.03464 137.249825,119.303662 158.397312,106.807358 L101.129941,92.7788885 Z" id="path-63"></path>
        <filter x="-8.6%" y="-15.7%" width="118.4%" height="131.2%" filterUnits="objectBoundingBox" id="filter-64">
            <feGaussianBlur stdDeviation="5" in="SourceAlpha" result="shadowBlurInner1"></feGaussianBlur>
            <feOffset dx="0" dy="2" in="shadowBlurInner1" result="shadowOffsetInner1"></feOffset>
            <feComposite in="shadowOffsetInner1" in2="SourceAlpha" operator="arithmetic" k2="-1" k3="1" result="shadowInnerInner1"></feComposite>
            <feColorMatrix values="0 0 0 0 0.096087722   0 0 0 0 0.116339125   0 0 0 0 0.16089221  0 0 0 1 0" type="matrix" in="shadowInnerInner1"></feColorMatrix>
        </filter>
        <path d="M83.4288195,54.8702108 L83.4288195,62.9261839 C92.3895921,64.7999837 98.5750228,68.9459022 101.985111,75.3639394 L165.423372,92.7788885 L166.693746,91.0966283 L133.239737,54.8702108 L83.4288195,54.8702108 Z" id="path-65"></path>
        <filter x="-8.2%" y="-18.0%" width="116.7%" height="136.2%" filterUnits="objectBoundingBox" id="filter-66">
            <feGaussianBlur stdDeviation="5" in="SourceAlpha" result="shadowBlurInner1"></feGaussianBlur>
            <feOffset dx="0" dy="2" in="shadowBlurInner1" result="shadowOffsetInner1"></feOffset>
            <feComposite in="shadowOffsetInner1" in2="SourceAlpha" operator="arithmetic" k2="-1" k3="1" result="shadowInnerInner1"></feComposite>
            <feColorMatrix values="0 0 0 0 0.096087722   0 0 0 0 0.116339125   0 0 0 0 0.16089221  0 0 0 1 0" type="matrix" in="shadowInnerInner1"></feColorMatrix>
        </filter>
    </defs>
    <g id="Page-1" stroke="none" stroke-width="1" fill="none" fill-rule="evenodd">
        <g id="Artboard-Copy" transform="translate(-632.000000, -86.000000)">
            <g id="logo_240" transform="translate(632.000000, 86.000000)">
                <mask id="mask-3" fill="white">
                    <use xlink:href="#path-2"></use>
                </mask>
                <use id="Combined-Shape" fill="url(#linearGradient-1)" xlink:href="#path-2"></use>
                <g id="Group-5-Copy-7" mask="url(#mask-3)">
                    <g transform="translate(0.000000, -12.992481)" id="Group-4">
                        <g>
                            <g id="Group-3" transform="translate(0.000000, 14.608950)">
                                <polygon id="Path-3" fill="url(#linearGradient-4)" points="55.916061 9.20748032 55.916061 44.4374384 89.6743216 44.4374384 61.3831639 9.20748032 58.7007313 7.07198103"></polygon>
                                <path d="M3.61849793,49.5297457 L42.717672,38.7747809 L50.65383,29.4292624 L92.6132437,19.9427993 L159.549398,95.0574038 C151.127688,109.975876 140.680467,122.341458 128.207738,132.15415 C115.735008,141.966841 100.826556,149.54937 83.4823818,154.901736 L58.9840262,85.6230014 L22.3082506,85.6230014 L0.801061147,57.9394425 C-0.00784347524,55.7070455 -0.204129426,53.9694964 0.212203296,52.7267952 C0.628536017,51.4840941 1.76396756,50.4184109 3.61849793,49.5297457 Z" id="Path" fill="url(#radialGradient-5)"></path>
                                <g id="Group" transform="translate(79.165338, 66.106773)" opacity="0.79594308">
                                    <g id="Path-8">
                                        <use fill="#1A1F2A" fill-rule="evenodd" xlink:href="#path-6"></use>
                                        <use fill="black" fill-opacity="1" filter="url(#filter-7)" xlink:href="#path-6"></use>
                                        <use stroke="#1A1F2A" stroke-width="1.37837842" xlink:href="#path-6"></use>
                                    </g>
                                    <g id="Path-8">
                                        <use fill="#1A1F2A" fill-rule="evenodd" xlink:href="#path-8"></use>
                                        <use fill="black" fill-opacity="1" filter="url(#filter-9)" xlink:href="#path-8"></use>
                                        <use stroke="#1A1F2A" stroke-width="1.37837842" xlink:href="#path-8"></use>
                                    </g>
                                </g>
                                <g id="Group" transform="translate(139.973623, 125.459416) rotate(88.000000) translate(-139.973623, -125.459416) translate(107.042230, 113.003581)" opacity="0.79594308">
                                    <g id="Path-8">
                                        <use fill="#1A1F2A" fill-rule="evenodd" xlink:href="#path-10"></use>
                                        <use fill="black" fill-opacity="1" filter="url(#filter-11)" xlink:href="#path-10"></use>
                                        <use stroke="#1A1F2A" stroke-width="1.37837842" xlink:href="#path-10"></use>
                                    </g>
                                    <g id="Path-8">
                                        <use fill="#1A1F2A" fill-rule="evenodd" xlink:href="#path-12"></use>
                                        <use fill="black" fill-opacity="1" filter="url(#filter-13)" xlink:href="#path-12"></use>
                                        <use stroke="#1A1F2A" stroke-width="1.37837842" xlink:href="#path-12"></use>
                                    </g>
                                </g>
                                <g id="Path-7" opacity="0.24">
                                    <use fill="#1A1F2A" fill-rule="evenodd" xlink:href="#path-14"></use>
                                    <use fill="black" fill-opacity="1" filter="url(#filter-15)" xlink:href="#path-14"></use>
                                    <use stroke="#1A1F2A" stroke-width="1.37837842" xlink:href="#path-14"></use>
                                </g>
                                <path d="M70.5936165,44.4374384 L113.759354,44.4374384 C88.5366439,14.8124795 75.6427612,3.55271368e-15 75.077706,3.55271368e-15 C74.5126508,3.55271368e-15 73.214551,1.00674996 71.1834065,3.02024989 L70.5936165,44.4374384 Z" id="Path-2" fill="url(#linearGradient-16)"></path>
                                <path d="M0.801061147,57.9394425 C27.015871,51.0796986 41.3396582,47.2560899 43.7724228,46.4686164 C46.2051873,45.6811428 48.1673195,44.238224 49.6588195,42.1398598 C51.6582599,50.2298197 53.7440071,54.2747997 55.916061,54.2747997 C59.1741419,54.2747997 84.2166984,52.8027188 84.2166984,71.7344687 C84.2166984,80.9934905 75.8522108,85.8508364 59.1232357,86.3065064 L22.0411323,86.3065064 L0.801061147,57.9394425 Z" id="Path-4" fill="url(#linearGradient-17)"></path>
                                <ellipse id="Oval" fill="#F1F1F1" opacity="0.106515067" cx="58.5946991" cy="42.2213397" rx="4.11642412" ry="6.22791762"></ellipse>
                                <ellipse id="Oval" fill="url(#linearGradient-18)" cx="59.2807698" cy="42.9133305" rx="3.43035343" ry="5.53592677"></ellipse>
                                <path d="M142.400351,88.5349477 C141.425308,87.4222676 82.0156605,132.788522 69.8067936,114.439637 L67.3946851,111.48617 C58.6937993,120.226413 58.5819135,126.893357 67.0590278,131.487003 C79.7746991,138.377472 143.375394,89.6476278 142.400351,88.5349477 Z" id="Path-5" fill="url(#linearGradient-19)"></path>
                                <path d="M147.182968,92.8751113 C146.582047,92.0414528 89.7399662,144.574033 75.5394741,131.949096 C67.6370765,131.949096 68.3720168,140.859149 69.8075954,143.447268 C71.243174,146.035388 79.2058643,152.860372 95.215663,141.61489 C111.225462,130.369409 147.783888,93.7087697 147.182968,92.8751113 Z" id="Path-6" fill="url(#linearGradient-20)"></path>
                                <ellipse id="Oval" fill="#535A6B" cx="147.783888" cy="87.2007447" rx="8.23284823" ry="8.30389016"></ellipse>
                                <ellipse id="Oval" fill="#1A1F2A" opacity="0.647553943" cx="147.783888" cy="87.2007447" rx="5.48856549" ry="5.53592677"></ellipse>
                                <g id="Path-9" opacity="0.79594308">
                                    <use fill="#1A1F2A" fill-rule="evenodd" xlink:href="#path-21"></use>
                                    <use fill="black" fill-opacity="1" filter="url(#filter-22)" xlink:href="#path-21"></use>
                                    <use stroke="#1A1F2A" stroke-width="1.37837842" xlink:href="#path-21"></use>
                                </g>
                                <g id="Path-10" opacity="0.79594308">
                                    <use fill="#1A1F2A" fill-rule="evenodd" xlink:href="#path-23"></use>
                                    <use fill="black" fill-opacity="1" filter="url(#filter-24)" xlink:href="#path-23"></use>
                                    <use stroke="#1A1F2A" stroke-width="1.37837842" xlink:href="#path-23"></use>
                                </g>
                            </g>
                            <g id="Group-3-Copy" transform="translate(174.502766, 79.578947) scale(-1, 1) rotate(10.000000) translate(-174.502766, -79.578947) translate(105.583847, 11.368421)">
                                <polygon id="Path-3" fill="url(#linearGradient-25)" points="48.0087393 7.89212599 48.0087393 38.0892329 76.9931044 38.0892329 52.7027164 7.89212599 50.3996178 6.06169803"></polygon>
                                <path d="M3.10679115,42.4540677 L36.6767891,33.2355264 L43.4906621,25.2250821 L79.5164214,17.093828 L136.986857,81.4777747 C129.756095,94.2650369 120.78626,104.864107 110.077351,113.274986 C99.3684416,121.685864 88.4095321,127.177663 77.2006221,129.750384 L50.6428508,73.391144 L19.1535485,73.391144 L0.687779772,49.6623793 C-0.00673429693,47.7488961 -0.175262638,46.2595683 0.182194749,45.1943959 C0.539652136,44.1292235 1.5145176,43.2157808 3.10679115,42.4540677 Z" id="Path" fill="url(#radialGradient-26)"></path>
                                <g id="Group" transform="translate(67.970240, 56.662949)" opacity="0.79594308">
                                    <g id="Path-8">
                                        <use fill="#1A1F2A" fill-rule="evenodd" xlink:href="#path-27"></use>
                                        <use fill="black" fill-opacity="1" filter="url(#filter-28)" xlink:href="#path-27"></use>
                                        <use stroke="#1A1F2A" stroke-width="1.18216207" xlink:href="#path-27"></use>
                                    </g>
                                    <g id="Path-8">
                                        <use fill="#1A1F2A" fill-rule="evenodd" xlink:href="#path-29"></use>
                                        <use fill="black" fill-opacity="1" filter="url(#filter-30)" xlink:href="#path-29"></use>
                                        <use stroke="#1A1F2A" stroke-width="1.18216207" xlink:href="#path-29"></use>
                                    </g>
                                </g>
                                <g id="Group" transform="translate(120.179373, 107.536642) rotate(88.000000) translate(-120.179373, -107.536642) translate(91.904945, 96.860212)" opacity="0.79594308">
                                    <g id="Path-8">
                                        <use fill="#1A1F2A" fill-rule="evenodd" xlink:href="#path-31"></use>
                                        <use fill="black" fill-opacity="1" filter="url(#filter-32)" xlink:href="#path-31"></use>
                                        <use stroke="#1A1F2A" stroke-width="1.18216207" xlink:href="#path-31"></use>
                                    </g>
                                    <g id="Path-8">
                                        <use fill="#1A1F2A" fill-rule="evenodd" xlink:href="#path-33"></use>
                                        <use fill="black" fill-opacity="1" filter="url(#filter-34)" xlink:href="#path-33"></use>
                                        <use stroke="#1A1F2A" stroke-width="1.18216207" xlink:href="#path-33"></use>
                                    </g>
                                </g>
                                <g id="Path-7" opacity="0.24">
                                    <use fill="#1A1F2A" fill-rule="evenodd" xlink:href="#path-35"></use>
                                    <use fill="black" fill-opacity="1" filter="url(#filter-36)" xlink:href="#path-35"></use>
                                    <use stroke="#1A1F2A" stroke-width="1.18216207" xlink:href="#path-35"></use>
                                </g>
                                <path d="M60.6106808,38.0892329 L97.6721727,38.0892329 C76.0163104,12.696411 64.9458051,3.55271368e-15 64.4606567,3.55271368e-15 C63.9755082,3.55271368e-15 62.8609781,0.862928539 61.1170662,2.58878562 L60.6106808,38.0892329 Z" id="Path-2" fill="url(#linearGradient-37)"></path>
                                <path d="M0.687779772,49.6623793 C23.1954448,43.7825988 35.4936459,40.5052199 37.5823832,39.8302426 C39.6711204,39.1552653 41.3557794,37.9184777 42.6363601,36.1198798 C44.3530514,43.0541312 46.1438444,46.5212569 48.0087393,46.5212569 C50.8060815,46.5212569 72.3072663,45.2594733 72.3072663,61.4866874 C72.3072663,69.4229918 65.1256356,73.5864312 50.7623741,73.9770055 L18.9242045,73.9770055 L0.687779772,49.6623793 Z" id="Path-4" fill="url(#linearGradient-38)"></path>
                                <ellipse id="Oval" fill="#F1F1F1" opacity="0.106515067" cx="50.3085801" cy="36.1897197" rx="3.53430353" ry="5.3382151"></ellipse>
                                <ellipse id="Oval" fill="url(#linearGradient-39)" cx="50.8976306" cy="36.7828547" rx="2.94525295" ry="4.74508009"></ellipse>
                                <path d="M122.262928,75.887098 C121.42577,74.9333722 70.4174863,113.818733 59.9351258,98.0911172 L57.8641235,95.5595742 C50.393666,103.051211 50.2976025,108.765735 57.5759329,112.703145 C68.4934285,118.609261 123.100086,76.8408238 122.262928,75.887098 Z" id="Path-5" fill="url(#linearGradient-40)"></path>
                                <path d="M126.369215,79.6072382 C125.853273,78.8926739 77.049466,123.9206 64.8571242,113.099225 C58.0722374,113.099225 58.7032467,120.736413 59.9358142,122.954801 C61.1683817,125.17319 68.005035,131.023176 81.7508218,121.384192 C95.4966086,111.745207 126.885157,80.3218026 126.369215,79.6072382 Z" id="Path-6" fill="url(#linearGradient-41)"></path>
                                <ellipse id="Oval" fill="#535A6B" cx="126.885157" cy="74.7434954" rx="7.06860707" ry="7.11762014"></ellipse>
                                <ellipse id="Oval" fill="#1A1F2A" opacity="0.647553943" cx="126.885157" cy="74.7434954" rx="4.71240471" ry="4.74508009"></ellipse>
                                <g id="Path-9" opacity="0.79594308">
                                    <use fill="#1A1F2A" fill-rule="evenodd" xlink:href="#path-42"></use>
                                    <use fill="black" fill-opacity="1" filter="url(#filter-43)" xlink:href="#path-42"></use>
                                    <use stroke="#1A1F2A" stroke-width="1.18216207" xlink:href="#path-42"></use>
                                </g>
                                <g id="Path-10" opacity="0.79594308">
                                    <use fill="#1A1F2A" fill-rule="evenodd" xlink:href="#path-44"></use>
                                    <use fill="black" fill-opacity="1" filter="url(#filter-45)" xlink:href="#path-44"></use>
                                    <use stroke="#1A1F2A" stroke-width="1.18216207" xlink:href="#path-44"></use>
                                </g>
                            </g>
                            <g id="Group-3-Copy" transform="translate(145.135135, 136.413462) scale(-1, 1) translate(-145.135135, -136.413462) translate(50.270270, 45.466093)">
                                <polygon id="Path-3" fill="url(#linearGradient-46)" points="66.0826176 10.8046963 66.0826176 52.1459737 105.978744 52.1459737 72.5437391 10.8046963 69.3735915 8.29875325"></polygon>
                                <path d="M4.27640665,58.1216404 L50.4845215,45.5010184 L59.8636172,34.5343385 L109.452015,23.4022645 L188.55838,111.546953 C178.605449,129.053324 166.258734,143.563956 151.518236,155.078849 C136.777737,166.593743 119.158658,175.491608 98.6609967,181.772445 L69.7083946,100.475971 L26.3642962,100.475971 L0.946708628,67.9901621 C-0.00926956165,65.3705126 -0.241243867,63.3315519 0.250785713,61.8732801 C0.742815293,60.4150083 2.08468894,59.1644617 4.27640665,58.1216404 Z" id="Path" fill="url(#radialGradient-47)"></path>
                                <g id="Group" transform="translate(93.559036, 77.574275)" opacity="0.79594308">
                                    <g id="Path-8">
                                        <use fill="#1A1F2A" fill-rule="evenodd" xlink:href="#path-48"></use>
                                        <use fill="black" fill-opacity="1" filter="url(#filter-49)" xlink:href="#path-48"></use>
                                        <use stroke="#1A1F2A" stroke-width="1.62162162" xlink:href="#path-48"></use>
                                    </g>
                                    <g id="Path-8">
                                        <use fill="#1A1F2A" fill-rule="evenodd" xlink:href="#path-50"></use>
                                        <use fill="black" fill-opacity="1" filter="url(#filter-51)" xlink:href="#path-50"></use>
                                        <use stroke="#1A1F2A" stroke-width="1.62162162" xlink:href="#path-50"></use>
                                    </g>
                                </g>
                                <g id="Group" transform="translate(170.359871, 125.924487) rotate(88.000000) translate(-170.359871, -125.924487) translate(152.522033, 116.992156)" opacity="0.79594308">
                                    <g id="Path-8">
                                        <use fill="#1A1F2A" fill-rule="evenodd" xlink:href="#path-52"></use>
                                        <use fill="black" fill-opacity="1" filter="url(#filter-53)" xlink:href="#path-52"></use>
                                        <use stroke="#1A1F2A" stroke-width="1.62162162" xlink:href="#path-52"></use>
                                    </g>
                                    <g id="Path-8">
                                        <use fill="#1A1F2A" fill-rule="evenodd" xlink:href="#path-54"></use>
                                        <use fill="black" fill-opacity="1" filter="url(#filter-55)" xlink:href="#path-54"></use>
                                        <use stroke="#1A1F2A" stroke-width="1.62162162" xlink:href="#path-54"></use>
                                    </g>
                                </g>
                                <g id="Path-7" opacity="0.24">
                                    <use fill="#1A1F2A" fill-rule="evenodd" xlink:href="#path-56"></use>
                                    <use fill="black" fill-opacity="1" filter="url(#filter-57)" xlink:href="#path-56"></use>
                                    <use stroke="#1A1F2A" stroke-width="1.62162162" xlink:href="#path-56"></use>
                                </g>
                                <path d="M83.4288195,52.1459737 L134.442873,52.1459737 C104.634216,17.3819912 89.3959905,3.55271368e-15 88.728198,3.55271368e-15 C88.0604055,3.55271368e-15 86.5262875,1.18139026 84.1258441,3.54417079 L83.4288195,52.1459737 Z" id="Path-2" fill="url(#linearGradient-58)"></path>
                                <path d="M0.946708628,67.9901621 C31.9278476,59.9404627 48.8559597,55.4535749 51.7310451,54.5294988 C54.6061304,53.6054227 56.925014,51.9122016 58.6876957,49.4498354 C61.0506708,58.9431558 63.5156447,63.689816 66.0826176,63.689816 C69.9330768,63.689816 99.5288254,61.9623741 99.5288254,84.178203 C99.5288254,95.0433817 89.6435219,100.743328 69.8729149,101.278043 L26.0486109,101.278043 L0.946708628,67.9901621 Z" id="Path-4" fill="url(#linearGradient-59)"></path>
                                <ellipse id="Oval" fill="#F1F1F1" opacity="0.106515067" cx="69.2482808" cy="49.5454496" rx="4.86486486" ry="7.30827068"></ellipse>
                                <ellipse id="Oval" fill="url(#linearGradient-60)" cx="70.0590916" cy="50.3574797" rx="4.05405405" ry="6.4962406"></ellipse>
                                <path d="M168.291324,103.893051 C167.139001,102.587355 96.9275987,155.823265 82.4989379,134.291411 L79.6482642,130.825607 C69.3653991,141.082015 69.2331705,148.90547 79.2515783,154.295973 C94.2791899,162.381727 169.443648,105.198747 168.291324,103.893051 Z" id="Path-5" fill="url(#linearGradient-61)"></path>
                                <path d="M173.943507,108.9861 C173.233328,108.007827 106.056324,169.653202 89.2739239,154.838225 C79.9347267,154.838225 80.8032925,165.293899 82.4998854,168.330978 C84.1964783,171.368057 93.6069306,179.376967 112.527602,166.180739 C131.448273,152.98451 174.653686,109.964373 173.943507,108.9861 Z" id="Path-6" fill="url(#linearGradient-62)"></path>
                                <ellipse id="Oval" fill="#535A6B" cx="174.653686" cy="102.327404" rx="9.72972973" ry="9.7443609"></ellipse>
                                <ellipse id="Oval" fill="#1A1F2A" opacity="0.647553943" cx="174.653686" cy="102.327404" rx="6.48648649" ry="6.4962406"></ellipse>
                                <g id="Path-9" opacity="0.79594308">
                                    <use fill="#1A1F2A" fill-rule="evenodd" xlink:href="#path-63"></use>
                                    <use fill="black" fill-opacity="1" filter="url(#filter-64)" xlink:href="#path-63"></use>
                                    <use stroke="#1A1F2A" stroke-width="1.62162162" xlink:href="#path-63"></use>
                                </g>
                                <g id="Path-10" opacity="0.79594308">
                                    <use fill="#1A1F2A" fill-rule="evenodd" xlink:href="#path-65"></use>
                                    <use fill="black" fill-opacity="1" filter="url(#filter-66)" xlink:href="#path-65"></use>
                                    <use stroke="#1A1F2A" stroke-width="1.62162162" xlink:href="#path-65"></use>
                                </g>
                            </g>
                        </g>
                    </g>
                </g>
            </g>
        </g>
    </g>
</svg>