<svg xmlns="http://www.w3.org/2000/svg" xmlns:xlink="http://www.w3.org/1999/xlink" width="360" height="323" version="1.1" viewBox="0 0 360 323"><title>logo_360</title><desc>Created with Sketch.</desc><defs><linearGradient id="linearGradient-1" x1="40.369%" x2="8.805%" y1="43.748%" y2="19.976%"><stop offset="0%" stop-color="#323A4A"/><stop offset="100%" stop-color="#1A1F2A"/></linearGradient><path id="path-2" d="M91.2148116,188.008191 C91.6024228,183.200221 94.8948281,177.693228 101.092028,171.487209 L103.036626,173.860892 L88.8370967,133.830074 C88.7863989,133.831501 88.7356519,133.832907 88.6848535,133.834287 L33.0616985,133.834287 L1.20159172,91.4150199 C-0.0117652129,88.0767595 -0.306194138,85.4784801 0.318304943,83.6201816 C0.942804025,81.7618831 2.64595134,80.1682921 5.4277469,78.8394085 L64.076508,62.7567527 L75.980745,48.7817413 L83.8740915,47.0026691 L83.8740915,18.5426876 L88.051097,15.3493252 L92.0747458,18.5426876 L106.389114,36.3128381 L106.77511,9.2904865 C109.821826,6.27955837 111.768976,4.7740943 112.616559,4.7740943 C113.266329,4.7740943 124.784562,17.7917148 147.171256,43.8269559 L188.075422,89.5872365 C162.401932,126.714091 130.115065,159.521074 91.2148206,188.008185 Z M252.487674,0.915361681 C253.432802,1.40331304 254.683327,2.18423482 256.239248,3.25812702 L260.587666,26.0107108 L270.046133,8.87639884 L272.972993,5.58092151 L276.980131,7.65374797 L281.216151,31.6774141 L288.155107,32.0023324 L300.300698,42.0241071 L352.284453,46.85576 C354.83437,47.5627553 356.511645,48.6540135 357.316277,50.1295344 C358.120909,51.6050553 358.258688,53.8422143 357.729615,56.8410115 L337.104295,97.3980854 L290.07258,105.691046 C289.996005,105.702418 289.919553,105.713694 289.843226,105.724875 L286.088105,119.451988 L353.58539,137.83033 C356.872967,139.389735 358.885777,141.259765 359.623821,143.440421 C360.361866,145.621078 360.013904,148.670079 358.579937,152.587425 L320.927084,202.365137 L255.190628,202.365137 C255.130593,202.363518 255.070619,202.361867 255.010704,202.360193 L238.229442,249.335133 L240.527604,246.549689 C255.951901,261.886817 256.150244,273.58578 241.122633,281.646578 C237.940595,283.35342 232.961012,283.11534 226.759651,281.44194 L226.395975,282.459976 C240.078663,282.687015 238.776329,298.12598 236.250172,302.634109 C234.623065,305.537811 228.265999,311.480715 216.474725,310.232017 L212.008505,322.73408 C181.262014,313.341902 154.833394,300.036298 132.722646,282.817268 C110.611899,265.598238 92.0918266,243.899469 77.1624304,217.720961 L82.5871395,211.695105 C149.4581,154.302401 206.091603,84.042494 252.487674,0.915361681 Z"/><linearGradient id="linearGradient-4" x1="42.09%" x2="16.166%" y1="42.176%" y2="12.427%"><stop offset="0%" stop-color="#323A4A"/><stop offset="100%" stop-color="#1A1F2A"/></linearGradient><radialGradient id="radialGradient-5" cx="88.868%" cy="100%" r="70.78%" fx="88.868%" fy="100%" gradientTransform="translate(0.888680,1.000000),scale(0.843265,1.000000),rotate(-130.632642),scale(1.000000,2.367561),translate(-0.888680,-1.000000)"><stop offset="0%" stop-color="#798294"/><stop offset="100%" stop-color="#444B5B"/></radialGradient><polygon id="path-6" points="96.749 24.872 .914 0 0 3.722 96.749 28.137"/><filter id="filter-7" width="118.9%" height="166.1%" x="-9.6%" y="-32.9%" filterUnits="objectBoundingBox"><feGaussianBlur in="SourceAlpha" result="shadowBlurInner1" stdDeviation="6.5"/><feOffset dx="0" dy="3" in="shadowBlurInner1" result="shadowOffsetInner1"/><feComposite in="shadowOffsetInner1" in2="SourceAlpha" k2="-1" k3="1" operator="arithmetic" result="shadowInnerInner1"/><feColorMatrix in="shadowInnerInner1" type="matrix" values="0 0 0 0 0.096087722 0 0 0 0 0.116339125 0 0 0 0 0.16089221 0 0 0 1 0"/></filter><polygon id="path-8" points="96.749 33.15 .914 8.278 0 12 96.749 36.415"/><filter id="filter-9" width="118.9%" height="166.1%" x="-9.6%" y="-32.9%" filterUnits="objectBoundingBox"><feGaussianBlur in="SourceAlpha" result="shadowBlurInner1" stdDeviation="6.5"/><feOffset dx="0" dy="3" in="shadowBlurInner1" result="shadowOffsetInner1"/><feComposite in="shadowOffsetInner1" in2="SourceAlpha" k2="-1" k3="1" operator="arithmetic" result="shadowInnerInner1"/><feColorMatrix in="shadowInnerInner1" type="matrix" values="0 0 0 0 0.096087722 0 0 0 0 0.116339125 0 0 0 0 0.16089221 0 0 0 1 0"/></filter><polygon id="path-10" points="96.749 24.872 .914 0 0 3.722 96.749 28.137"/><filter id="filter-11" width="118.9%" height="166.1%" x="-9.6%" y="-32.9%" filterUnits="objectBoundingBox"><feGaussianBlur in="SourceAlpha" result="shadowBlurInner1" stdDeviation="6.5"/><feOffset dx="0" dy="3" in="shadowBlurInner1" result="shadowOffsetInner1"/><feComposite in="shadowOffsetInner1" in2="SourceAlpha" k2="-1" k3="1" operator="arithmetic" result="shadowInnerInner1"/><feColorMatrix in="shadowInnerInner1" type="matrix" values="0 0 0 0 0.096087722 0 0 0 0 0.116339125 0 0 0 0 0.16089221 0 0 0 1 0"/></filter><polygon id="path-12" points="96.749 33.15 .914 8.278 0 12 96.749 36.415"/><filter id="filter-13" width="118.9%" height="166.1%" x="-9.6%" y="-32.9%" filterUnits="objectBoundingBox"><feGaussianBlur in="SourceAlpha" result="shadowBlurInner1" stdDeviation="6.5"/><feOffset dx="0" dy="3" in="shadowBlurInner1" result="shadowOffsetInner1"/><feComposite in="shadowOffsetInner1" in2="SourceAlpha" k2="-1" k3="1" operator="arithmetic" result="shadowInnerInner1"/><feColorMatrix in="shadowInnerInner1" type="matrix" values="0 0 0 0 0.096087722 0 0 0 0 0.116339125 0 0 0 0 0.16089221 0 0 0 1 0"/></filter><polygon id="path-14" points="92.008 128.038 110.892 72.659 170.639 72.45 125.224 223.196"/><filter id="filter-15" width="123.5%" height="113.5%" x="-11.6%" y="-6%" filterUnits="objectBoundingBox"><feGaussianBlur in="SourceAlpha" result="shadowBlurInner1" stdDeviation="6.5"/><feOffset dx="0" dy="3" in="shadowBlurInner1" result="shadowOffsetInner1"/><feComposite in="shadowOffsetInner1" in2="SourceAlpha" k2="-1" k3="1" operator="arithmetic" result="shadowInnerInner1"/><feColorMatrix in="shadowInnerInner1" type="matrix" values="0 0 0 0 0.096087722 0 0 0 0 0.116339125 0 0 0 0 0.16089221 0 0 0 1 0"/></filter><linearGradient id="linearGradient-16" x1="90.162%" x2="64.087%" y1="136.374%" y2="23.186%"><stop offset="0%" stop-color="#323A4A"/><stop offset="100%" stop-color="#1A1F2A"/></linearGradient><linearGradient id="linearGradient-17" x1="158.228%" x2="50%" y1="66.192%" y2="52.817%"><stop offset="0%" stop-color="#323A4A"/><stop offset="100%" stop-color="#1A1F2A"/></linearGradient><linearGradient id="linearGradient-18" x1="63.872%" x2="41.731%" y1="107.81%" y2="31.786%"><stop offset="0%" stop-color="#323A4A"/><stop offset="100%" stop-color="#1A1F2A"/></linearGradient><linearGradient id="linearGradient-19" x1="69.449%" x2="31.256%" y1="47.316%" y2="60.223%"><stop offset="0%" stop-color="#323A4A"/><stop offset="100%" stop-color="#1A1F2A"/></linearGradient><linearGradient id="linearGradient-20" x1="69.449%" x2="31.256%" y1="45.365%" y2="67.658%"><stop offset="0%" stop-color="#323A4A"/><stop offset="100%" stop-color="#1A1F2A"/></linearGradient><path id="path-21" d="M128.357233,118.229587 C120.064451,128.740583 109.156143,133.451512 95.6323101,132.362375 L108.623338,169.484349 C115.898205,175.812157 126.409895,175.812157 140.15841,169.484349 C153.906924,163.156542 174.201702,152.03052 201.042742,136.106284 L128.357233,118.229587 Z"/><filter id="filter-22" width="119.2%" height="132.5%" x="-9%" y="-16.4%" filterUnits="objectBoundingBox"><feGaussianBlur in="SourceAlpha" result="shadowBlurInner1" stdDeviation="6.5"/><feOffset dx="0" dy="3" in="shadowBlurInner1" result="shadowOffsetInner1"/><feComposite in="shadowOffsetInner1" in2="SourceAlpha" k2="-1" k3="1" operator="arithmetic" result="shadowInnerInner1"/><feColorMatrix in="shadowInnerInner1" type="matrix" values="0 0 0 0 0.096087722 0 0 0 0 0.116339125 0 0 0 0 0.16089221 0 0 0 1 0"/></filter><path id="path-23" d="M105.890425,69.9219667 L105.890425,80.187819 C117.263713,82.5756314 125.114452,87.8588401 129.442641,96.0374451 L209.960434,118.229587 L211.572832,116.085856 L169.111974,69.9219667 L105.890425,69.9219667 Z"/><filter id="filter-24" width="117.4%" height="137.7%" x="-8.5%" y="-18.7%" filterUnits="objectBoundingBox"><feGaussianBlur in="SourceAlpha" result="shadowBlurInner1" stdDeviation="6.5"/><feOffset dx="0" dy="3" in="shadowBlurInner1" result="shadowOffsetInner1"/><feComposite in="shadowOffsetInner1" in2="SourceAlpha" k2="-1" k3="1" operator="arithmetic" result="shadowInnerInner1"/><feColorMatrix in="shadowInnerInner1" type="matrix" values="0 0 0 0 0.096087722 0 0 0 0 0.116339125 0 0 0 0 0.16089221 0 0 0 1 0"/></filter><linearGradient id="linearGradient-25" x1="42.064%" x2="16.052%" y1="42.176%" y2="12.427%"><stop offset="0%" stop-color="#323A4A"/><stop offset="100%" stop-color="#1A1F2A"/></linearGradient><radialGradient id="radialGradient-26" cx="88.868%" cy="100%" r="71.644%" fx="88.868%" fy="100%" gradientTransform="translate(0.888680,1.000000),scale(0.819851,1.000000),rotate(-131.431560),scale(1.000000,2.367561),translate(-0.888680,-1.000000)"><stop offset="0%" stop-color="#798294"/><stop offset="100%" stop-color="#444B5B"/></radialGradient><polygon id="path-27" points="83.067 21.319 .785 0 0 3.19 83.067 24.117"/><filter id="filter-28" width="118%" height="163.1%" x="-9.1%" y="-31.4%" filterUnits="objectBoundingBox"><feGaussianBlur in="SourceAlpha" result="shadowBlurInner1" stdDeviation="5"/><feOffset dx="0" dy="3" in="shadowBlurInner1" result="shadowOffsetInner1"/><feComposite in="shadowOffsetInner1" in2="SourceAlpha" k2="-1" k3="1" operator="arithmetic" result="shadowInnerInner1"/><feColorMatrix in="shadowInnerInner1" type="matrix" values="0 0 0 0 0.096087722 0 0 0 0 0.116339125 0 0 0 0 0.16089221 0 0 0 1 0"/></filter><polygon id="path-29" points="83.067 28.414 .785 7.096 0 10.286 83.067 31.213"/><filter id="filter-30" width="118%" height="163.1%" x="-9.1%" y="-31.4%" filterUnits="objectBoundingBox"><feGaussianBlur in="SourceAlpha" result="shadowBlurInner1" stdDeviation="5"/><feOffset dx="0" dy="3" in="shadowBlurInner1" result="shadowOffsetInner1"/><feComposite in="shadowOffsetInner1" in2="SourceAlpha" k2="-1" k3="1" operator="arithmetic" result="shadowInnerInner1"/><feColorMatrix in="shadowInnerInner1" type="matrix" values="0 0 0 0 0.096087722 0 0 0 0 0.116339125 0 0 0 0 0.16089221 0 0 0 1 0"/></filter><polygon id="path-31" points="83.067 21.319 .785 0 0 3.19 83.067 24.117"/><filter id="filter-32" width="118%" height="163.1%" x="-9.1%" y="-31.4%" filterUnits="objectBoundingBox"><feGaussianBlur in="SourceAlpha" result="shadowBlurInner1" stdDeviation="5"/><feOffset dx="0" dy="3" in="shadowBlurInner1" result="shadowOffsetInner1"/><feComposite in="shadowOffsetInner1" in2="SourceAlpha" k2="-1" k3="1" operator="arithmetic" result="shadowInnerInner1"/><feColorMatrix in="shadowInnerInner1" type="matrix" values="0 0 0 0 0.096087722 0 0 0 0 0.116339125 0 0 0 0 0.16089221 0 0 0 1 0"/></filter><polygon id="path-33" points="83.067 28.414 .785 7.096 0 10.286 83.067 31.213"/><filter id="filter-34" width="118%" height="163.1%" x="-9.1%" y="-31.4%" filterUnits="objectBoundingBox"><feGaussianBlur in="SourceAlpha" result="shadowBlurInner1" stdDeviation="5"/><feOffset dx="0" dy="3" in="shadowBlurInner1" result="shadowOffsetInner1"/><feComposite in="shadowOffsetInner1" in2="SourceAlpha" k2="-1" k3="1" operator="arithmetic" result="shadowInnerInner1"/><feColorMatrix in="shadowInnerInner1" type="matrix" values="0 0 0 0 0.096087722 0 0 0 0 0.116339125 0 0 0 0 0.16089221 0 0 0 1 0"/></filter><polygon id="path-35" points="78.997 109.747 95.21 62.279 146.508 62.1 118.896 188.236"/><filter id="filter-36" width="122.3%" height="113.1%" x="-11.1%" y="-5.9%" filterUnits="objectBoundingBox"><feGaussianBlur in="SourceAlpha" result="shadowBlurInner1" stdDeviation="5"/><feOffset dx="0" dy="3" in="shadowBlurInner1" result="shadowOffsetInner1"/><feComposite in="shadowOffsetInner1" in2="SourceAlpha" k2="-1" k3="1" operator="arithmetic" result="shadowInnerInner1"/><feColorMatrix in="shadowInnerInner1" type="matrix" values="0 0 0 0 0.096087722 0 0 0 0 0.116339125 0 0 0 0 0.16089221 0 0 0 1 0"/></filter><linearGradient id="linearGradient-37" x1="90.297%" x2="64.135%" y1="136.374%" y2="23.186%"><stop offset="0%" stop-color="#323A4A"/><stop offset="100%" stop-color="#1A1F2A"/></linearGradient><linearGradient id="linearGradient-38" x1="158.228%" x2="50%" y1="66.138%" y2="52.808%"><stop offset="0%" stop-color="#323A4A"/><stop offset="100%" stop-color="#1A1F2A"/></linearGradient><linearGradient id="linearGradient-39" x1="63.919%" x2="41.703%" y1="107.81%" y2="31.786%"><stop offset="0%" stop-color="#323A4A"/><stop offset="100%" stop-color="#1A1F2A"/></linearGradient><linearGradient id="linearGradient-40" x1="69.449%" x2="31.256%" y1="47.325%" y2="60.189%"><stop offset="0%" stop-color="#323A4A"/><stop offset="100%" stop-color="#1A1F2A"/></linearGradient><linearGradient id="linearGradient-41" x1="69.449%" x2="31.256%" y1="45.381%" y2="67.598%"><stop offset="0%" stop-color="#323A4A"/><stop offset="100%" stop-color="#1A1F2A"/></linearGradient><path id="path-42" d="M110.205705,101.339646 C103.08564,110.349071 93.7199211,114.38701 82.108549,113.453464 L93.2624616,145.2723 C99.5085595,150.696135 108.533748,150.696135 120.338028,145.2723 C132.142308,139.848464 149.567117,130.311874 172.612456,116.662529 L110.205705,101.339646 Z"/><filter id="filter-43" width="118.3%" height="131%" x="-8.6%" y="-15.6%" filterUnits="objectBoundingBox"><feGaussianBlur in="SourceAlpha" result="shadowBlurInner1" stdDeviation="5"/><feOffset dx="0" dy="3" in="shadowBlurInner1" result="shadowOffsetInner1"/><feComposite in="shadowOffsetInner1" in2="SourceAlpha" k2="-1" k3="1" operator="arithmetic" result="shadowInnerInner1"/><feColorMatrix in="shadowInnerInner1" type="matrix" values="0 0 0 0 0.096087722 0 0 0 0 0.116339125 0 0 0 0 0.16089221 0 0 0 1 0"/></filter><path id="path-44" d="M90.9160213,59.9331143 L90.9160213,68.7324163 C100.680966,70.7791126 107.421499,75.3075772 111.137621,82.3178101 L180.269059,101.339646 L181.653441,99.5021626 L145.19715,59.9331143 L90.9160213,59.9331143 Z"/><filter id="filter-45" width="116.6%" height="136%" x="-8.1%" y="-17.8%" filterUnits="objectBoundingBox"><feGaussianBlur in="SourceAlpha" result="shadowBlurInner1" stdDeviation="5"/><feOffset dx="0" dy="3" in="shadowBlurInner1" result="shadowOffsetInner1"/><feComposite in="shadowOffsetInner1" in2="SourceAlpha" k2="-1" k3="1" operator="arithmetic" result="shadowInnerInner1"/><feColorMatrix in="shadowInnerInner1" type="matrix" values="0 0 0 0 0.096087722 0 0 0 0 0.116339125 0 0 0 0 0.16089221 0 0 0 1 0"/></filter><linearGradient id="linearGradient-46" x1="41.977%" x2="15.683%" y1="42.176%" y2="12.427%"><stop offset="0%" stop-color="#323A4A"/><stop offset="100%" stop-color="#1A1F2A"/></linearGradient><radialGradient id="radialGradient-47" cx="88.868%" cy="100%" r="70.994%" fx="88.868%" fy="100%" gradientTransform="translate(0.888680,1.000000),scale(0.837308,1.000000),rotate(-130.833490),scale(1.000000,2.367561),translate(-0.888680,-1.000000)"><stop offset="0%" stop-color="#798294"/><stop offset="100%" stop-color="#444B5B"/></radialGradient><polygon id="path-48" points="114.34 29.186 1.08 0 0 4.367 114.34 33.017"/><filter id="filter-49" width="117.2%" height="160.7%" x="-8.7%" y="-30.2%" filterUnits="objectBoundingBox"><feGaussianBlur in="SourceAlpha" result="shadowBlurInner1" stdDeviation="7"/><feOffset dx="0" dy="3" in="shadowBlurInner1" result="shadowOffsetInner1"/><feComposite in="shadowOffsetInner1" in2="SourceAlpha" k2="-1" k3="1" operator="arithmetic" result="shadowInnerInner1"/><feColorMatrix in="shadowInnerInner1" type="matrix" values="0 0 0 0 0.096087722 0 0 0 0 0.116339125 0 0 0 0 0.16089221 0 0 0 1 0"/></filter><polygon id="path-50" points="114.34 38.901 1.08 9.714 0 14.082 114.34 42.732"/><filter id="filter-51" width="117.2%" height="160.7%" x="-8.7%" y="-30.2%" filterUnits="objectBoundingBox"><feGaussianBlur in="SourceAlpha" result="shadowBlurInner1" stdDeviation="7"/><feOffset dx="0" dy="3" in="shadowBlurInner1" result="shadowOffsetInner1"/><feComposite in="shadowOffsetInner1" in2="SourceAlpha" k2="-1" k3="1" operator="arithmetic" result="shadowInnerInner1"/><feColorMatrix in="shadowInnerInner1" type="matrix" values="0 0 0 0 0.096087722 0 0 0 0 0.116339125 0 0 0 0 0.16089221 0 0 0 1 0"/></filter><polygon id="path-52" points="32.351 5.495 1.08 0 0 4.367 40.123 12.711"/><filter id="filter-53" width="156.1%" height="261.1%" x="-24.9%" y="-77.8%" filterUnits="objectBoundingBox"><feGaussianBlur in="SourceAlpha" result="shadowBlurInner1" stdDeviation="7"/><feOffset dx="0" dy="3" in="shadowBlurInner1" result="shadowOffsetInner1"/><feComposite in="shadowOffsetInner1" in2="SourceAlpha" k2="-1" k3="1" operator="arithmetic" result="shadowInnerInner1"/><feColorMatrix in="shadowInnerInner1" type="matrix" values="0 0 0 0 0.096087722 0 0 0 0 0.116339125 0 0 0 0 0.16089221 0 0 0 1 0"/></filter><polygon id="path-54" points="49.438 21.545 1.08 9.714 0 14.082 52.575 24.863"/><filter id="filter-55" width="141.9%" height="234.9%" x="-19%" y="-65.8%" filterUnits="objectBoundingBox"><feGaussianBlur in="SourceAlpha" result="shadowBlurInner1" stdDeviation="7"/><feOffset dx="0" dy="3" in="shadowBlurInner1" result="shadowOffsetInner1"/><feComposite in="shadowOffsetInner1" in2="SourceAlpha" k2="-1" k3="1" operator="arithmetic" result="shadowInnerInner1"/><feColorMatrix in="shadowInnerInner1" type="matrix" values="0 0 0 0 0.096087722 0 0 0 0 0.116339125 0 0 0 0 0.16089221 0 0 0 1 0"/></filter><polygon id="path-56" points="108.737 150.249 131.054 85.263 201.664 85.017 147.991 261.914"/><filter id="filter-57" width="121.4%" height="112.5%" x="-10.5%" y="-5.5%" filterUnits="objectBoundingBox"><feGaussianBlur in="SourceAlpha" result="shadowBlurInner1" stdDeviation="7"/><feOffset dx="0" dy="3" in="shadowBlurInner1" result="shadowOffsetInner1"/><feComposite in="shadowOffsetInner1" in2="SourceAlpha" k2="-1" k3="1" operator="arithmetic" result="shadowInnerInner1"/><feColorMatrix in="shadowInnerInner1" type="matrix" values="0 0 0 0 0.096087722 0 0 0 0 0.116339125 0 0 0 0 0.16089221 0 0 0 1 0"/></filter><linearGradient id="linearGradient-58" x1="90.736%" x2="64.288%" y1="136.374%" y2="23.186%"><stop offset="0%" stop-color="#323A4A"/><stop offset="100%" stop-color="#1A1F2A"/></linearGradient><linearGradient id="linearGradient-59" x1="158.228%" x2="50%" y1="65.964%" y2="52.777%"><stop offset="0%" stop-color="#323A4A"/><stop offset="100%" stop-color="#1A1F2A"/></linearGradient><linearGradient id="linearGradient-60" x1="64.07%" x2="41.613%" y1="107.81%" y2="31.786%"><stop offset="0%" stop-color="#323A4A"/><stop offset="100%" stop-color="#1A1F2A"/></linearGradient><linearGradient id="linearGradient-61" x1="69.449%" x2="31.256%" y1="47.354%" y2="60.079%"><stop offset="0%" stop-color="#323A4A"/><stop offset="100%" stop-color="#1A1F2A"/></linearGradient><linearGradient id="linearGradient-62" x1="69.449%" x2="31.256%" y1="45.43%" y2="67.409%"><stop offset="0%" stop-color="#323A4A"/><stop offset="100%" stop-color="#1A1F2A"/></linearGradient><path id="path-63" d="M151.694912,138.738801 C141.894351,151.073133 129.002715,156.601264 113.020003,155.323195 L128.373035,198.884696 C136.970605,206.310185 149.393512,206.310185 165.641757,198.884696 C181.890001,191.459207 205.874738,178.403161 237.595968,159.716558 L151.694912,138.738801 Z"/><filter id="filter-64" width="117.6%" height="129.8%" x="-8.2%" y="-15%" filterUnits="objectBoundingBox"><feGaussianBlur in="SourceAlpha" result="shadowBlurInner1" stdDeviation="7"/><feOffset dx="0" dy="3" in="shadowBlurInner1" result="shadowOffsetInner1"/><feComposite in="shadowOffsetInner1" in2="SourceAlpha" k2="-1" k3="1" operator="arithmetic" result="shadowInnerInner1"/><feColorMatrix in="shadowInnerInner1" type="matrix" values="0 0 0 0 0.096087722 0 0 0 0 0.116339125 0 0 0 0 0.16089221 0 0 0 1 0"/></filter><path id="path-65" d="M125.143229,82.0512874 L125.143229,94.0979509 C138.584388,96.8999756 147.862534,103.099659 152.977667,112.697002 L248.135058,138.738801 L250.040619,136.223199 L199.859606,82.0512874 L125.143229,82.0512874 Z"/><filter id="filter-66" width="115.9%" height="134.6%" x="-7.8%" y="-17.1%" filterUnits="objectBoundingBox"><feGaussianBlur in="SourceAlpha" result="shadowBlurInner1" stdDeviation="7"/><feOffset dx="0" dy="3" in="shadowBlurInner1" result="shadowOffsetInner1"/><feComposite in="shadowOffsetInner1" in2="SourceAlpha" k2="-1" k3="1" operator="arithmetic" result="shadowInnerInner1"/><feColorMatrix in="shadowInnerInner1" type="matrix" values="0 0 0 0 0.096087722 0 0 0 0 0.116339125 0 0 0 0 0.16089221 0 0 0 1 0"/></filter></defs><g id="Page-1" fill="none" fill-rule="evenodd" stroke="none" stroke-width="1"><g id="Artboard-Copy" transform="translate(-60.000000, -227.000000)"><g id="logo_360" transform="translate(60.000000, 227.000000)"><mask id="mask-3" fill="#fff"><use xlink:href="#path-2"/></mask><use id="Combined-Shape" fill="url(#linearGradient-1)" xlink:href="#path-2"/><g id="Group-5-Copy-7" mask="url(#mask-3)"><g id="Group-4"><g transform="translate(0.000000, -19.428571)"><g id="Group-3" transform="translate(0.000000, 21.845791)"><polygon id="Path-3" fill="url(#linearGradient-4)" points="83.874 13.769 83.874 66.45 134.511 66.45 92.075 13.769 88.051 10.575"/><path id="Path" fill="url(#radialGradient-5)" d="M5.4277469,74.0653142 L64.076508,57.9826584 L75.980745,44.007647 L138.919866,29.8218712 L239.324097,142.146025 C226.691531,164.454667 211.020701,182.945792 192.311607,197.6194 C173.602513,212.293008 151.239835,223.631697 125.223573,231.635466 L88.4760393,128.038099 L33.4623759,128.038099 L1.20159172,86.6409256 C-0.0117652129,83.3026652 -0.306194138,80.7043858 0.318304943,78.8460873 C0.942804025,76.9877888 2.64595134,75.3941978 5.4277469,74.0653142 Z"/><g id="Group" opacity=".796" transform="translate(118.748007, 98.854110)"><g id="Path-8"><use fill="#1A1F2A" fill-rule="evenodd" xlink:href="#path-6"/><use fill="#000" fill-opacity="1" filter="url(#filter-7)" xlink:href="#path-6"/><use stroke="#1A1F2A" stroke-width="2.068" xlink:href="#path-6"/></g><g id="Path-8"><use fill="#1A1F2A" fill-rule="evenodd" xlink:href="#path-8"/><use fill="#000" fill-opacity="1" filter="url(#filter-9)" xlink:href="#path-8"/><use stroke="#1A1F2A" stroke-width="2.068" xlink:href="#path-8"/></g></g><g id="Group" opacity=".796" transform="translate(209.960434, 187.608293) rotate(88.000000) translate(-209.960434, -187.608293) translate(160.563344, 168.982206)"><g id="Path-8"><use fill="#1A1F2A" fill-rule="evenodd" xlink:href="#path-10"/><use fill="#000" fill-opacity="1" filter="url(#filter-11)" xlink:href="#path-10"/><use stroke="#1A1F2A" stroke-width="2.068" xlink:href="#path-10"/></g><g id="Path-8"><use fill="#1A1F2A" fill-rule="evenodd" xlink:href="#path-12"/><use fill="#000" fill-opacity="1" filter="url(#filter-13)" xlink:href="#path-12"/><use stroke="#1A1F2A" stroke-width="2.068" xlink:href="#path-12"/></g></g><g id="Path-7" opacity=".24"><use fill="#1A1F2A" fill-rule="evenodd" xlink:href="#path-14"/><use fill="#000" fill-opacity="1" filter="url(#filter-15)" xlink:href="#path-14"/><use stroke="#1A1F2A" stroke-width="2.068" xlink:href="#path-14"/></g><path id="Path-2" fill="url(#linearGradient-16)" d="M105.890425,66.4504288 L170.639031,66.4504288 C132.804966,22.1501429 113.464142,3.55271368e-15 112.616559,3.55271368e-15 C111.768976,3.55271368e-15 109.821826,1.50546406 106.77511,4.51639219 L105.890425,66.4504288 Z"/><path id="Path-4" fill="url(#linearGradient-17)" d="M1.20159172,86.6409256 C40.5238065,76.3830678 62.0094873,70.6653567 65.6586341,69.4877921 C69.307781,68.3102275 72.2509793,66.1525294 74.4882292,63.0146977 C77.4873898,75.1121842 80.6160106,81.1609274 83.8740915,81.1609274 C88.7612129,81.1609274 126.325048,78.9596212 126.325048,107.269599 C126.325048,121.115266 113.778316,128.378797 88.6848535,129.060192 L33.0616985,129.060192 L1.20159172,86.6409256 Z"/><ellipse id="Oval" cx="87.892" cy="63.137" fill="#F1F1F1" opacity=".107" rx="6.175" ry="9.313"/><ellipse id="Oval" cx="88.921" cy="64.171" fill="url(#linearGradient-18)" rx="5.146" ry="8.278"/><path id="Path-5" fill="url(#linearGradient-19)" d="M213.600527,132.392538 C212.137963,130.728669 123.023491,198.568021 104.71019,171.129642 L101.092028,166.713115 C88.0406989,179.783016 87.8728703,189.752567 100.588542,196.621768 C119.662049,206.925571 215.063091,134.056406 213.600527,132.392538 Z"/><path id="Path-6" fill="url(#linearGradient-20)" d="M220.774452,138.88269 C219.873071,137.636061 134.609949,216.191725 113.309211,197.312768 C101.455615,197.312768 102.558025,210.636597 104.711393,214.506795 C106.864761,218.376992 118.808797,228.582871 142.823495,211.766711 C166.838193,194.950551 221.675832,140.129318 220.774452,138.88269 Z"/><ellipse id="Oval" cx="221.676" cy="130.397" fill="#535A6B" rx="12.349" ry="12.417"/><ellipse id="Oval" cx="221.676" cy="130.397" fill="#1A1F2A" opacity=".648" rx="8.233" ry="8.278"/><g id="Path-9" opacity=".796"><use fill="#1A1F2A" fill-rule="evenodd" xlink:href="#path-21"/><use fill="#000" fill-opacity="1" filter="url(#filter-22)" xlink:href="#path-21"/><use stroke="#1A1F2A" stroke-width="2.068" xlink:href="#path-21"/></g><g id="Path-10" opacity=".796"><use fill="#1A1F2A" fill-rule="evenodd" xlink:href="#path-23"/><use fill="#000" fill-opacity="1" filter="url(#filter-24)" xlink:href="#path-23"/><use stroke="#1A1F2A" stroke-width="2.068" xlink:href="#path-23"/></g></g><g id="Group-3-Copy" transform="translate(261.754149, 119.000000) scale(-1, 1) rotate(10.000000) translate(-261.754149, -119.000000) translate(158.375771, 17.000000)"><polygon id="Path-3" fill="url(#linearGradient-25)" points="72.013 11.802 72.013 56.958 115.49 56.958 79.054 11.802 75.599 9.064"/><path id="Path" fill="url(#radialGradient-26)" d="M4.66018673,63.484555 L55.0151837,49.6994215 L65.2359932,37.7208403 L119.274632,25.5616039 L205.480286,121.83945 C194.634143,140.961143 181.17939,156.810679 165.116026,169.388057 C149.052662,181.965436 132.614298,190.17771 115.800933,194.024879 L75.9642762,109.746942 L28.7303228,109.746942 L1.03166966,74.2636505 C-0.0101014454,71.4022845 -0.262893957,69.1751878 0.273292123,67.5823605 C0.809478204,65.9895332 2.27177641,64.6235981 4.66018673,63.484555 Z"/><g id="Group" opacity=".796" transform="translate(101.955360, 84.732095)"><g id="Path-8"><use fill="#1A1F2A" fill-rule="evenodd" xlink:href="#path-27"/><use fill="#000" fill-opacity="1" filter="url(#filter-28)" xlink:href="#path-27"/><use stroke="#1A1F2A" stroke-width="1.773" xlink:href="#path-27"/></g><g id="Path-8"><use fill="#1A1F2A" fill-rule="evenodd" xlink:href="#path-29"/><use fill="#000" fill-opacity="1" filter="url(#filter-30)" xlink:href="#path-29"/><use stroke="#1A1F2A" stroke-width="1.773" xlink:href="#path-29"/></g></g><g id="Group" opacity=".796" transform="translate(180.269059, 160.807108) rotate(88.000000) translate(-180.269059, -160.807108) translate(137.857417, 144.841891)"><g id="Path-8"><use fill="#1A1F2A" fill-rule="evenodd" xlink:href="#path-31"/><use fill="#000" fill-opacity="1" filter="url(#filter-32)" xlink:href="#path-31"/><use stroke="#1A1F2A" stroke-width="1.773" xlink:href="#path-31"/></g><g id="Path-8"><use fill="#1A1F2A" fill-rule="evenodd" xlink:href="#path-33"/><use fill="#000" fill-opacity="1" filter="url(#filter-34)" xlink:href="#path-33"/><use stroke="#1A1F2A" stroke-width="1.773" xlink:href="#path-33"/></g></g><g id="Path-7" opacity=".24"><use fill="#1A1F2A" fill-rule="evenodd" xlink:href="#path-35"/><use fill="#000" fill-opacity="1" filter="url(#filter-36)" xlink:href="#path-35"/><use stroke="#1A1F2A" stroke-width="1.773" xlink:href="#path-35"/></g><path id="Path-2" fill="url(#linearGradient-37)" d="M90.9160213,56.9575104 L146.508259,56.9575104 C114.024466,18.9858368 97.4187076,3.55271368e-15 96.690985,3.55271368e-15 C95.9632624,3.55271368e-15 94.2914671,1.29039777 91.6755993,3.87119331 L90.9160213,56.9575104 Z"/><path id="Path-4" fill="url(#linearGradient-38)" d="M1.03166966,74.2636505 C34.7931672,65.471201 53.2404689,60.5703057 56.3735748,59.5609646 C59.5066806,58.5516236 62.0336691,56.702168 63.9545402,54.012598 C66.5295771,64.3818721 69.2157667,69.5665092 72.0131089,69.5665092 C76.2091222,69.5665092 108.460899,67.6796753 108.460899,91.9453706 C108.460899,103.813085 97.6884533,110.038969 76.1435611,110.623022 L28.3863068,110.623022 L1.03166966,74.2636505 Z"/><ellipse id="Oval" cx="75.463" cy="54.117" fill="#F1F1F1" opacity=".107" rx="5.301" ry="7.983"/><ellipse id="Oval" cx="76.346" cy="55.004" fill="url(#linearGradient-39)" rx="4.418" ry="7.096"/><path id="Path-5" fill="url(#linearGradient-40)" d="M183.394392,113.479318 C182.138655,112.053145 105.626229,170.201161 89.9026887,146.68255 L86.7961853,142.896956 C75.5904991,154.099728 75.4464038,162.645057 86.3638994,168.532944 C102.740143,177.364775 184.650129,114.905491 183.394392,113.479318 Z"/><path id="Path-6" fill="url(#linearGradient-41)" d="M189.553822,119.042305 C188.779909,117.973767 115.574199,185.307193 97.2856863,169.12523 C87.1083561,169.12523 88.0548701,180.545655 89.9037213,183.862967 C91.7525725,187.180279 102.007553,195.928175 122.626233,181.514324 C143.244913,167.100472 190.327735,120.110844 189.553822,119.042305 Z"/><ellipse id="Oval" cx="190.328" cy="111.769" fill="#535A6B" rx="10.603" ry="10.643"/><ellipse id="Oval" cx="190.328" cy="111.769" fill="#1A1F2A" opacity=".648" rx="7.069" ry="7.096"/><g id="Path-9" opacity=".796"><use fill="#1A1F2A" fill-rule="evenodd" xlink:href="#path-42"/><use fill="#000" fill-opacity="1" filter="url(#filter-43)" xlink:href="#path-42"/><use stroke="#1A1F2A" stroke-width="1.773" xlink:href="#path-42"/></g><g id="Path-10" opacity=".796"><use fill="#1A1F2A" fill-rule="evenodd" xlink:href="#path-44"/><use fill="#000" fill-opacity="1" filter="url(#filter-45)" xlink:href="#path-44"/><use stroke="#1A1F2A" stroke-width="1.773" xlink:href="#path-44"/></g></g><g id="Group-3-Copy" transform="translate(217.702703, 203.988649) scale(-1, 1) translate(-217.702703, -203.988649) translate(75.405405, 67.988649)"><polygon id="Path-3" fill="url(#linearGradient-46)" points="99.124 16.157 99.124 77.978 158.968 77.978 108.816 16.157 104.06 12.41"/><path id="Path" fill="url(#radialGradient-47)" d="M6.41460997,86.9133789 L75.7267822,68.0408747 L89.7954259,51.6416266 L164.178023,34.995053 L282.83757,166.804009 C267.908173,192.982517 249.388101,214.681287 227.277354,231.900317 C205.166606,249.119347 178.737986,262.424951 147.991495,271.817129 L104.562592,150.24879 L39.5464443,150.24879 L1.42006294,101.670474 C-0.0139043425,97.7531276 -0.3618658,94.7041262 0.37617857,92.5234698 C1.11422294,90.3428134 3.12703341,88.4727831 6.41460997,86.9133789 Z"/><g id="Group" opacity=".796" transform="translate(140.338554, 116.002272)"><g id="Path-8"><use fill="#1A1F2A" fill-rule="evenodd" xlink:href="#path-48"/><use fill="#000" fill-opacity="1" filter="url(#filter-49)" xlink:href="#path-48"/><use stroke="#1A1F2A" stroke-width="2.432" xlink:href="#path-48"/></g><g id="Path-8"><use fill="#1A1F2A" fill-rule="evenodd" xlink:href="#path-50"/><use fill="#000" fill-opacity="1" filter="url(#filter-51)" xlink:href="#path-50"/><use stroke="#1A1F2A" stroke-width="2.432" xlink:href="#path-50"/></g></g><g id="Group" opacity=".796" transform="translate(255.539807, 188.303747) rotate(88.000000) translate(-255.539807, -188.303747) translate(228.783050, 174.946604)"><g id="Path-8"><use fill="#1A1F2A" fill-rule="evenodd" xlink:href="#path-52"/><use fill="#000" fill-opacity="1" filter="url(#filter-53)" xlink:href="#path-52"/><use stroke="#1A1F2A" stroke-width="2.432" xlink:href="#path-52"/></g><g id="Path-8"><use fill="#1A1F2A" fill-rule="evenodd" xlink:href="#path-54"/><use fill="#000" fill-opacity="1" filter="url(#filter-55)" xlink:href="#path-54"/><use stroke="#1A1F2A" stroke-width="2.432" xlink:href="#path-54"/></g></g><g id="Path-7" opacity=".24"><use fill="#1A1F2A" fill-rule="evenodd" xlink:href="#path-56"/><use fill="#000" fill-opacity="1" filter="url(#filter-57)" xlink:href="#path-56"/><use stroke="#1A1F2A" stroke-width="2.432" xlink:href="#path-56"/></g><path id="Path-2" fill="url(#linearGradient-58)" d="M125.143229,77.977544 L201.66431,77.977544 C156.951323,25.9925147 134.093986,3.55271368e-15 133.092297,3.55271368e-15 C132.090608,3.55271368e-15 129.789431,1.76661599 126.188766,5.29984798 L125.143229,77.977544 Z"/><path id="Path-4" fill="url(#linearGradient-59)" d="M1.42006294,101.670474 C47.8917713,89.6331919 73.2839396,82.9236328 77.5965676,81.5417968 C81.9091957,80.1599608 85.387521,77.6279681 88.0315436,73.9458187 C91.5760061,88.1418488 95.2734671,95.2398638 99.1239263,95.2398638 C104.899615,95.2398638 149.293238,92.6566983 149.293238,125.877591 C149.293238,142.125057 134.465283,150.648588 104.809372,151.448185 L39.0729164,151.448185 L1.42006294,101.670474 Z"/><ellipse id="Oval" cx="103.872" cy="74.089" fill="#F1F1F1" opacity=".107" rx="7.297" ry="10.929"/><ellipse id="Oval" cx="105.089" cy="75.303" fill="url(#linearGradient-60)" rx="6.081" ry="9.714"/><path id="Path-5" fill="url(#linearGradient-61)" d="M252.436987,155.35859 C250.708501,153.406091 145.391398,233.013494 123.748407,200.815396 L119.472396,195.632737 C104.048099,210.969865 103.849756,222.668828 118.877367,230.729626 C141.418785,242.820823 254.165472,157.311089 252.436987,155.35859 Z"/><path id="Path-6" fill="url(#linearGradient-62)" d="M260.915261,162.974585 C259.849993,161.511705 159.084486,253.694372 133.910886,231.540494 C119.90209,231.540494 121.204939,247.175599 123.749828,251.717157 C126.294717,256.258715 140.410396,268.235001 168.791403,248.501753 C197.172409,228.768504 261.980529,164.437465 260.915261,162.974585 Z"/><ellipse id="Oval" cx="261.981" cy="153.017" fill="#535A6B" rx="14.595" ry="14.571"/><ellipse id="Oval" cx="261.981" cy="153.017" fill="#1A1F2A" opacity=".648" rx="9.73" ry="9.714"/><g id="Path-9" opacity=".796"><use fill="#1A1F2A" fill-rule="evenodd" xlink:href="#path-63"/><use fill="#000" fill-opacity="1" filter="url(#filter-64)" xlink:href="#path-63"/><use stroke="#1A1F2A" stroke-width="2.432" xlink:href="#path-63"/></g><g id="Path-10" opacity=".796"><use fill="#1A1F2A" fill-rule="evenodd" xlink:href="#path-65"/><use fill="#000" fill-opacity="1" filter="url(#filter-66)" xlink:href="#path-65"/><use stroke="#1A1F2A" stroke-width="2.432" xlink:href="#path-65"/></g></g></g></g></g></g></g></g></svg>