<svg xmlns="http://www.w3.org/2000/svg" xmlns:xlink="http://www.w3.org/1999/xlink" width="240" height="216" version="1.1" viewBox="0 0 240 216"><title>logo_240</title><desc>Created with Sketch.</desc><defs><linearGradient id="linearGradient-1" x1="40.369%" x2="8.805%" y1="43.71%" y2="19.79%"><stop offset="0%" stop-color="#323A4A"/><stop offset="100%" stop-color="#1A1F2A"/></linearGradient><path id="path-2" d="M60.8098744,125.72684 C61.0682818,122.511603 63.2632187,118.828908 67.3946851,114.678753 L68.6910839,116.266107 L59.2247297,89.4962682 C59.1909326,89.4972267 59.1571013,89.4981672 59.1232357,89.4990896 L22.0411323,89.4990896 L0.801061147,61.1320257 C-0.00784347524,58.8996287 -0.204129426,57.1620796 0.212203296,55.9193784 C0.628536017,54.6766772 1.76396756,53.6109941 3.61849793,52.7223289 L42.717672,41.967364 L50.65383,32.6218456 L55.916061,31.4321254 L55.916061,12.4000635 L58.7007313,10.2645642 L61.3831639,12.4000635 L70.9260761,24.2835078 L71.1834065,6.21283308 C73.214551,4.19933315 74.5126508,3.19258319 75.077706,3.19258319 C75.510886,3.19258319 83.1897077,11.897865 98.114171,29.3084287 L125.383615,59.9097309 C108.267955,84.7375964 86.7433766,106.676631 60.8098806,125.726836 Z M168.315682,0.629085379 C168.942773,0.956541247 169.767877,1.47451404 170.790995,2.18300376 L173.698242,17.3984727 L179.998428,5.94463797 L181.948687,3.74208944 L184.621093,5.12953738 L187.45385,21.1948992 L192.080366,21.4146111 L200.18172,28.1201422 L234.842498,31.3692641 C236.542851,31.8429096 237.661524,32.5731915 238.198516,33.5601097 C238.735508,34.5470279 238.828159,36.0429941 238.476469,38.0480083 L224.739287,65.1599626 L193.384811,70.6886028 C193.33376,70.6961799 193.282791,70.703693 193.231906,70.7111422 L190.73447,79.8836823 L235.723593,92.1713664 C237.915311,93.2141878 239.257185,94.4647344 239.749214,95.9230061 C240.241244,97.3812779 240.00927,99.4202386 239.053291,102.039888 L213.951389,135.327769 L170.127085,135.327769 C170.087062,135.326687 170.04708,135.325583 170.007136,135.324463 L158.819628,166.738045 L160.351736,164.875334 C170.634601,175.131741 170.766829,182.955196 160.748422,188.345699 C158.627063,189.487117 155.307341,189.327906 151.173101,188.208852 L150.930646,188.889643 C160.052442,189.041469 159.18422,199.36598 157.500115,202.380704 C156.415377,204.322499 152.177333,208.296701 144.316483,207.461658 L141.339003,215.822171 C120.841342,209.541334 103.222263,200.643469 88.4817642,189.128576 C73.7412658,177.613682 61.3945511,163.10305 51.4416202,145.59668 L55.058093,141.567005 C99.634201,103.190647 137.386725,56.2113452 168.315682,0.629085379 Z"/><linearGradient id="linearGradient-4" x1="42.139%" x2="16.375%" y1="42.176%" y2="12.427%"><stop offset="0%" stop-color="#323A4A"/><stop offset="100%" stop-color="#1A1F2A"/></linearGradient><radialGradient id="radialGradient-5" cx="88.868%" cy="100%" r="70.687%" fx="88.868%" fy="100%" gradientTransform="translate(0.888680,1.000000),scale(0.845876,1.000000),rotate(-130.545133),scale(1.000000,2.367561),translate(-0.888680,-1.000000)"><stop offset="0%" stop-color="#798294"/><stop offset="100%" stop-color="#444B5B"/></radialGradient><polygon id="path-6" points="64.499 16.632 .609 0 0 2.489 64.499 18.816"/><filter id="filter-7" width="117.9%" height="162.3%" x="-9%" y="-31.1%" filterUnits="objectBoundingBox"><feGaussianBlur in="SourceAlpha" result="shadowBlurInner1" stdDeviation="4"/><feOffset dx="0" dy="2" in="shadowBlurInner1" result="shadowOffsetInner1"/><feComposite in="shadowOffsetInner1" in2="SourceAlpha" k2="-1" k3="1" operator="arithmetic" result="shadowInnerInner1"/><feColorMatrix in="shadowInnerInner1" type="matrix" values="0 0 0 0 0.096087722 0 0 0 0 0.116339125 0 0 0 0 0.16089221 0 0 0 1 0"/></filter><polygon id="path-8" points="64.499 22.168 .609 5.536 0 8.025 64.499 24.352"/><filter id="filter-9" width="117.9%" height="162.3%" x="-9%" y="-31.1%" filterUnits="objectBoundingBox"><feGaussianBlur in="SourceAlpha" result="shadowBlurInner1" stdDeviation="4"/><feOffset dx="0" dy="2" in="shadowBlurInner1" result="shadowOffsetInner1"/><feComposite in="shadowOffsetInner1" in2="SourceAlpha" k2="-1" k3="1" operator="arithmetic" result="shadowInnerInner1"/><feColorMatrix in="shadowInnerInner1" type="matrix" values="0 0 0 0 0.096087722 0 0 0 0 0.116339125 0 0 0 0 0.16089221 0 0 0 1 0"/></filter><polygon id="path-10" points="64.499 16.632 .609 0 0 2.489 64.499 18.816"/><filter id="filter-11" width="117.9%" height="162.3%" x="-9%" y="-31.1%" filterUnits="objectBoundingBox"><feGaussianBlur in="SourceAlpha" result="shadowBlurInner1" stdDeviation="4"/><feOffset dx="0" dy="2" in="shadowBlurInner1" result="shadowOffsetInner1"/><feComposite in="shadowOffsetInner1" in2="SourceAlpha" k2="-1" k3="1" operator="arithmetic" result="shadowInnerInner1"/><feColorMatrix in="shadowInnerInner1" type="matrix" values="0 0 0 0 0.096087722 0 0 0 0 0.116339125 0 0 0 0 0.16089221 0 0 0 1 0"/></filter><polygon id="path-12" points="64.499 22.168 .609 5.536 0 8.025 64.499 24.352"/><filter id="filter-13" width="117.9%" height="162.3%" x="-9%" y="-31.1%" filterUnits="objectBoundingBox"><feGaussianBlur in="SourceAlpha" result="shadowBlurInner1" stdDeviation="4"/><feOffset dx="0" dy="2" in="shadowBlurInner1" result="shadowOffsetInner1"/><feComposite in="shadowOffsetInner1" in2="SourceAlpha" k2="-1" k3="1" operator="arithmetic" result="shadowInnerInner1"/><feColorMatrix in="shadowInnerInner1" type="matrix" values="0 0 0 0 0.096087722 0 0 0 0 0.116339125 0 0 0 0 0.16089221 0 0 0 1 0"/></filter><polygon id="path-14" points="61.339 85.623 73.928 48.589 113.759 48.449 83.482 149.258"/><filter id="filter-15" width="122.2%" height="112.8%" x="-10.9%" y="-5.6%" filterUnits="objectBoundingBox"><feGaussianBlur in="SourceAlpha" result="shadowBlurInner1" stdDeviation="4"/><feOffset dx="0" dy="2" in="shadowBlurInner1" result="shadowOffsetInner1"/><feComposite in="shadowOffsetInner1" in2="SourceAlpha" k2="-1" k3="1" operator="arithmetic" result="shadowInnerInner1"/><feColorMatrix in="shadowInnerInner1" type="matrix" values="0 0 0 0 0.096087722 0 0 0 0 0.116339125 0 0 0 0 0.16089221 0 0 0 1 0"/></filter><linearGradient id="linearGradient-16" x1="89.915%" x2="64%" y1="136.374%" y2="23.186%"><stop offset="0%" stop-color="#323A4A"/><stop offset="100%" stop-color="#1A1F2A"/></linearGradient><linearGradient id="linearGradient-17" x1="158.228%" x2="50%" y1="66.293%" y2="52.835%"><stop offset="0%" stop-color="#323A4A"/><stop offset="100%" stop-color="#1A1F2A"/></linearGradient><linearGradient id="linearGradient-18" x1="63.786%" x2="41.782%" y1="107.81%" y2="31.786%"><stop offset="0%" stop-color="#323A4A"/><stop offset="100%" stop-color="#1A1F2A"/></linearGradient><linearGradient id="linearGradient-19" x1="69.449%" x2="31.256%" y1="47.3%" y2="60.287%"><stop offset="0%" stop-color="#323A4A"/><stop offset="100%" stop-color="#1A1F2A"/></linearGradient><linearGradient id="linearGradient-20" x1="69.449%" x2="31.256%" y1="45.336%" y2="67.767%"><stop offset="0%" stop-color="#323A4A"/><stop offset="100%" stop-color="#1A1F2A"/></linearGradient><path id="path-21" d="M85.571489,79.0637485 C80.0429674,86.0927736 72.7707622,89.2431164 63.7548734,88.5147769 L72.4155584,113.339379 C77.2654697,117.570978 84.2732634,117.570978 93.4389397,113.339379 C102.604616,109.10778 116.134468,101.667468 134.028495,91.0184439 L85.571489,79.0637485 Z"/><filter id="filter-22" width="118.2%" height="130.6%" x="-8.5%" y="-15.4%" filterUnits="objectBoundingBox"><feGaussianBlur in="SourceAlpha" result="shadowBlurInner1" stdDeviation="4"/><feOffset dx="0" dy="2" in="shadowBlurInner1" result="shadowOffsetInner1"/><feComposite in="shadowOffsetInner1" in2="SourceAlpha" k2="-1" k3="1" operator="arithmetic" result="shadowInnerInner1"/><feColorMatrix in="shadowInnerInner1" type="matrix" values="0 0 0 0 0.096087722 0 0 0 0 0.116339125 0 0 0 0 0.16089221 0 0 0 1 0"/></filter><path id="path-23" d="M70.5936165,46.7589622 L70.5936165,53.6240523 C78.1758087,55.2208557 83.4096346,58.7538993 86.2950942,64.2231831 L139.973623,79.0637485 L141.048554,77.6301702 L112.741316,46.7589622 L70.5936165,46.7589622 Z"/><filter id="filter-24" width="116.4%" height="135.5%" x="-8.1%" y="-17.6%" filterUnits="objectBoundingBox"><feGaussianBlur in="SourceAlpha" result="shadowBlurInner1" stdDeviation="4"/><feOffset dx="0" dy="2" in="shadowBlurInner1" result="shadowOffsetInner1"/><feComposite in="shadowOffsetInner1" in2="SourceAlpha" k2="-1" k3="1" operator="arithmetic" result="shadowInnerInner1"/><feColorMatrix in="shadowInnerInner1" type="matrix" values="0 0 0 0 0.096087722 0 0 0 0 0.116339125 0 0 0 0 0.16089221 0 0 0 1 0"/></filter><linearGradient id="linearGradient-25" x1="42.113%" x2="16.261%" y1="42.176%" y2="12.427%"><stop offset="0%" stop-color="#323A4A"/><stop offset="100%" stop-color="#1A1F2A"/></linearGradient><radialGradient id="radialGradient-26" cx="88.868%" cy="100%" r="71.547%" fx="88.868%" fy="100%" gradientTransform="translate(0.888680,1.000000),scale(0.822390,1.000000),rotate(-131.343707),scale(1.000000,2.367561),translate(-0.888680,-1.000000)"><stop offset="0%" stop-color="#798294"/><stop offset="100%" stop-color="#444B5B"/></radialGradient><polygon id="path-27" points="55.378 14.256 .523 0 0 2.133 55.378 16.128"/><filter id="filter-28" width="116.8%" height="158.8%" x="-8.5%" y="-29.3%" filterUnits="objectBoundingBox"><feGaussianBlur in="SourceAlpha" result="shadowBlurInner1" stdDeviation="3"/><feOffset dx="0" dy="2" in="shadowBlurInner1" result="shadowOffsetInner1"/><feComposite in="shadowOffsetInner1" in2="SourceAlpha" k2="-1" k3="1" operator="arithmetic" result="shadowInnerInner1"/><feColorMatrix in="shadowInnerInner1" type="matrix" values="0 0 0 0 0.096087722 0 0 0 0 0.116339125 0 0 0 0 0.16089221 0 0 0 1 0"/></filter><polygon id="path-29" points="55.378 19.001 .523 4.745 0 6.878 55.378 20.873"/><filter id="filter-30" width="116.8%" height="158.8%" x="-8.5%" y="-29.3%" filterUnits="objectBoundingBox"><feGaussianBlur in="SourceAlpha" result="shadowBlurInner1" stdDeviation="3"/><feOffset dx="0" dy="2" in="shadowBlurInner1" result="shadowOffsetInner1"/><feComposite in="shadowOffsetInner1" in2="SourceAlpha" k2="-1" k3="1" operator="arithmetic" result="shadowInnerInner1"/><feColorMatrix in="shadowInnerInner1" type="matrix" values="0 0 0 0 0.096087722 0 0 0 0 0.116339125 0 0 0 0 0.16089221 0 0 0 1 0"/></filter><polygon id="path-31" points="55.378 14.256 .523 0 0 2.133 55.378 16.128"/><filter id="filter-32" width="116.8%" height="158.8%" x="-8.5%" y="-29.3%" filterUnits="objectBoundingBox"><feGaussianBlur in="SourceAlpha" result="shadowBlurInner1" stdDeviation="3"/><feOffset dx="0" dy="2" in="shadowBlurInner1" result="shadowOffsetInner1"/><feComposite in="shadowOffsetInner1" in2="SourceAlpha" k2="-1" k3="1" operator="arithmetic" result="shadowInnerInner1"/><feColorMatrix in="shadowInnerInner1" type="matrix" values="0 0 0 0 0.096087722 0 0 0 0 0.116339125 0 0 0 0 0.16089221 0 0 0 1 0"/></filter><polygon id="path-33" points="55.378 19.001 .523 4.745 0 6.878 55.378 20.873"/><filter id="filter-34" width="116.8%" height="158.8%" x="-8.5%" y="-29.3%" filterUnits="objectBoundingBox"><feGaussianBlur in="SourceAlpha" result="shadowBlurInner1" stdDeviation="3"/><feOffset dx="0" dy="2" in="shadowBlurInner1" result="shadowOffsetInner1"/><feComposite in="shadowOffsetInner1" in2="SourceAlpha" k2="-1" k3="1" operator="arithmetic" result="shadowInnerInner1"/><feColorMatrix in="shadowInnerInner1" type="matrix" values="0 0 0 0 0.096087722 0 0 0 0 0.116339125 0 0 0 0 0.16089221 0 0 0 1 0"/></filter><polygon id="path-35" points="52.665 73.391 63.473 41.648 97.672 41.528 79.264 125.879"/><filter id="filter-36" width="120.8%" height="112.3%" x="-10.3%" y="-5.4%" filterUnits="objectBoundingBox"><feGaussianBlur in="SourceAlpha" result="shadowBlurInner1" stdDeviation="3"/><feOffset dx="0" dy="2" in="shadowBlurInner1" result="shadowOffsetInner1"/><feComposite in="shadowOffsetInner1" in2="SourceAlpha" k2="-1" k3="1" operator="arithmetic" result="shadowInnerInner1"/><feColorMatrix in="shadowInnerInner1" type="matrix" values="0 0 0 0 0.096087722 0 0 0 0 0.116339125 0 0 0 0 0.16089221 0 0 0 1 0"/></filter><linearGradient id="linearGradient-37" x1="90.049%" x2="64.047%" y1="136.374%" y2="23.186%"><stop offset="0%" stop-color="#323A4A"/><stop offset="100%" stop-color="#1A1F2A"/></linearGradient><linearGradient id="linearGradient-38" x1="158.228%" x2="50%" y1="66.238%" y2="52.825%"><stop offset="0%" stop-color="#323A4A"/><stop offset="100%" stop-color="#1A1F2A"/></linearGradient><linearGradient id="linearGradient-39" x1="63.833%" x2="41.754%" y1="107.81%" y2="31.786%"><stop offset="0%" stop-color="#323A4A"/><stop offset="100%" stop-color="#1A1F2A"/></linearGradient><linearGradient id="linearGradient-40" x1="69.449%" x2="31.256%" y1="47.309%" y2="60.252%"><stop offset="0%" stop-color="#323A4A"/><stop offset="100%" stop-color="#1A1F2A"/></linearGradient><linearGradient id="linearGradient-41" x1="69.449%" x2="31.256%" y1="45.352%" y2="67.708%"><stop offset="0%" stop-color="#323A4A"/><stop offset="100%" stop-color="#1A1F2A"/></linearGradient><path id="path-42" d="M73.4704703,67.7689273 C68.7237599,73.7938059 62.4799474,76.4940998 54.7390327,75.8698087 L62.1749744,97.1480393 C66.3390396,100.775124 72.3558323,100.775124 80.2253523,97.1480393 C88.0948723,93.5209544 99.7114117,87.1435443 115.07497,78.0158091 L73.4704703,67.7689273 Z"/><filter id="filter-43" width="117.2%" height="128.8%" x="-8.1%" y="-14.5%" filterUnits="objectBoundingBox"><feGaussianBlur in="SourceAlpha" result="shadowBlurInner1" stdDeviation="3"/><feOffset dx="0" dy="2" in="shadowBlurInner1" result="shadowOffsetInner1"/><feComposite in="shadowOffsetInner1" in2="SourceAlpha" k2="-1" k3="1" operator="arithmetic" result="shadowInnerInner1"/><feColorMatrix in="shadowInnerInner1" type="matrix" values="0 0 0 0 0.096087722 0 0 0 0 0.116339125 0 0 0 0 0.16089221 0 0 0 1 0"/></filter><path id="path-44" d="M60.6106808,40.0791105 L60.6106808,45.9634734 C67.1206439,47.332162 71.6143328,50.3604851 74.0917476,55.0484427 L120.179373,67.7689273 L121.102294,66.5401459 L96.7980998,40.0791105 L60.6106808,40.0791105 Z"/><filter id="filter-45" width="115.5%" height="133.5%" x="-7.6%" y="-16.6%" filterUnits="objectBoundingBox"><feGaussianBlur in="SourceAlpha" result="shadowBlurInner1" stdDeviation="3"/><feOffset dx="0" dy="2" in="shadowBlurInner1" result="shadowOffsetInner1"/><feComposite in="shadowOffsetInner1" in2="SourceAlpha" k2="-1" k3="1" operator="arithmetic" result="shadowInnerInner1"/><feColorMatrix in="shadowInnerInner1" type="matrix" values="0 0 0 0 0.096087722 0 0 0 0 0.116339125 0 0 0 0 0.16089221 0 0 0 1 0"/></filter><linearGradient id="linearGradient-46" x1="42.027%" x2="15.895%" y1="42.176%" y2="12.427%"><stop offset="0%" stop-color="#323A4A"/><stop offset="100%" stop-color="#1A1F2A"/></linearGradient><radialGradient id="radialGradient-47" cx="88.868%" cy="100%" r="70.9%" fx="88.868%" fy="100%" gradientTransform="translate(0.888680,1.000000),scale(0.839900,1.000000),rotate(-130.745889),scale(1.000000,2.367561),translate(-0.888680,-1.000000)"><stop offset="0%" stop-color="#798294"/><stop offset="100%" stop-color="#444B5B"/></radialGradient><polygon id="path-48" points="76.226 19.518 .72 0 0 2.921 76.226 22.08"/><filter id="filter-49" width="118.1%" height="163.5%" x="-9.2%" y="-31.7%" filterUnits="objectBoundingBox"><feGaussianBlur in="SourceAlpha" result="shadowBlurInner1" stdDeviation="5"/><feOffset dx="0" dy="2" in="shadowBlurInner1" result="shadowOffsetInner1"/><feComposite in="shadowOffsetInner1" in2="SourceAlpha" k2="-1" k3="1" operator="arithmetic" result="shadowInnerInner1"/><feColorMatrix in="shadowInnerInner1" type="matrix" values="0 0 0 0 0.096087722 0 0 0 0 0.116339125 0 0 0 0 0.16089221 0 0 0 1 0"/></filter><polygon id="path-50" points="76.226 26.014 .72 6.496 0 9.417 76.226 28.576"/><filter id="filter-51" width="118.1%" height="163.5%" x="-9.2%" y="-31.7%" filterUnits="objectBoundingBox"><feGaussianBlur in="SourceAlpha" result="shadowBlurInner1" stdDeviation="5"/><feOffset dx="0" dy="2" in="shadowBlurInner1" result="shadowOffsetInner1"/><feComposite in="shadowOffsetInner1" in2="SourceAlpha" k2="-1" k3="1" operator="arithmetic" result="shadowInnerInner1"/><feColorMatrix in="shadowInnerInner1" type="matrix" values="0 0 0 0 0.096087722 0 0 0 0 0.116339125 0 0 0 0 0.16089221 0 0 0 1 0"/></filter><polygon id="path-52" points="21.568 3.675 .72 0 0 2.921 26.749 8.5"/><filter id="filter-53" width="158.6%" height="268.4%" x="-26.1%" y="-81.5%" filterUnits="objectBoundingBox"><feGaussianBlur in="SourceAlpha" result="shadowBlurInner1" stdDeviation="5"/><feOffset dx="0" dy="2" in="shadowBlurInner1" result="shadowOffsetInner1"/><feComposite in="shadowOffsetInner1" in2="SourceAlpha" k2="-1" k3="1" operator="arithmetic" result="shadowInnerInner1"/><feColorMatrix in="shadowInnerInner1" type="matrix" values="0 0 0 0 0.096087722 0 0 0 0 0.116339125 0 0 0 0 0.16089221 0 0 0 1 0"/></filter><polygon id="path-54" points="32.959 14.408 .72 6.496 0 9.417 35.05 16.627"/><filter id="filter-55" width="143.8%" height="241.1%" x="-19.9%" y="-68.9%" filterUnits="objectBoundingBox"><feGaussianBlur in="SourceAlpha" result="shadowBlurInner1" stdDeviation="5"/><feOffset dx="0" dy="2" in="shadowBlurInner1" result="shadowOffsetInner1"/><feComposite in="shadowOffsetInner1" in2="SourceAlpha" k2="-1" k3="1" operator="arithmetic" result="shadowInnerInner1"/><feColorMatrix in="shadowInnerInner1" type="matrix" values="0 0 0 0 0.096087722 0 0 0 0 0.116339125 0 0 0 0 0.16089221 0 0 0 1 0"/></filter><polygon id="path-56" points="72.492 100.476 87.369 57.018 134.443 56.854 98.661 175.15"/><filter id="filter-57" width="122.5%" height="113%" x="-11.1%" y="-5.8%" filterUnits="objectBoundingBox"><feGaussianBlur in="SourceAlpha" result="shadowBlurInner1" stdDeviation="5"/><feOffset dx="0" dy="2" in="shadowBlurInner1" result="shadowOffsetInner1"/><feComposite in="shadowOffsetInner1" in2="SourceAlpha" k2="-1" k3="1" operator="arithmetic" result="shadowInnerInner1"/><feColorMatrix in="shadowInnerInner1" type="matrix" values="0 0 0 0 0.096087722 0 0 0 0 0.116339125 0 0 0 0 0.16089221 0 0 0 1 0"/></filter><linearGradient id="linearGradient-58" x1="90.485%" x2="64.2%" y1="136.374%" y2="23.186%"><stop offset="0%" stop-color="#323A4A"/><stop offset="100%" stop-color="#1A1F2A"/></linearGradient><linearGradient id="linearGradient-59" x1="158.228%" x2="50%" y1="66.063%" y2="52.795%"><stop offset="0%" stop-color="#323A4A"/><stop offset="100%" stop-color="#1A1F2A"/></linearGradient><linearGradient id="linearGradient-60" x1="63.983%" x2="41.664%" y1="107.81%" y2="31.786%"><stop offset="0%" stop-color="#323A4A"/><stop offset="100%" stop-color="#1A1F2A"/></linearGradient><linearGradient id="linearGradient-61" x1="69.449%" x2="31.256%" y1="47.338%" y2="60.142%"><stop offset="0%" stop-color="#323A4A"/><stop offset="100%" stop-color="#1A1F2A"/></linearGradient><linearGradient id="linearGradient-62" x1="69.449%" x2="31.256%" y1="45.402%" y2="67.517%"><stop offset="0%" stop-color="#323A4A"/><stop offset="100%" stop-color="#1A1F2A"/></linearGradient><path id="path-63" d="M101.129941,92.7788885 C94.5962342,101.027234 86.0018099,104.724065 75.3466685,103.869381 L85.5820236,133.000292 C91.3137369,137.965944 99.595675,137.965944 110.427838,133.000292 C121.260001,128.03464 137.249825,119.303662 158.397312,106.807358 L101.129941,92.7788885 Z"/><filter id="filter-64" width="118.4%" height="131.2%" x="-8.6%" y="-15.7%" filterUnits="objectBoundingBox"><feGaussianBlur in="SourceAlpha" result="shadowBlurInner1" stdDeviation="5"/><feOffset dx="0" dy="2" in="shadowBlurInner1" result="shadowOffsetInner1"/><feComposite in="shadowOffsetInner1" in2="SourceAlpha" k2="-1" k3="1" operator="arithmetic" result="shadowInnerInner1"/><feColorMatrix in="shadowInnerInner1" type="matrix" values="0 0 0 0 0.096087722 0 0 0 0 0.116339125 0 0 0 0 0.16089221 0 0 0 1 0"/></filter><path id="path-65" d="M83.4288195,54.8702108 L83.4288195,62.9261839 C92.3895921,64.7999837 98.5750228,68.9459022 101.985111,75.3639394 L165.423372,92.7788885 L166.693746,91.0966283 L133.239737,54.8702108 L83.4288195,54.8702108 Z"/><filter id="filter-66" width="116.7%" height="136.2%" x="-8.2%" y="-18%" filterUnits="objectBoundingBox"><feGaussianBlur in="SourceAlpha" result="shadowBlurInner1" stdDeviation="5"/><feOffset dx="0" dy="2" in="shadowBlurInner1" result="shadowOffsetInner1"/><feComposite in="shadowOffsetInner1" in2="SourceAlpha" k2="-1" k3="1" operator="arithmetic" result="shadowInnerInner1"/><feColorMatrix in="shadowInnerInner1" type="matrix" values="0 0 0 0 0.096087722 0 0 0 0 0.116339125 0 0 0 0 0.16089221 0 0 0 1 0"/></filter></defs><g id="Page-1" fill="none" fill-rule="evenodd" stroke="none" stroke-width="1"><g id="Artboard-Copy" transform="translate(-632.000000, -86.000000)"><g id="logo_240" transform="translate(632.000000, 86.000000)"><mask id="mask-3" fill="#fff"><use xlink:href="#path-2"/></mask><use id="Combined-Shape" fill="url(#linearGradient-1)" xlink:href="#path-2"/><g id="Group-5-Copy-7" mask="url(#mask-3)"><g id="Group-4"><g transform="translate(0.000000, -12.992481)"><g id="Group-3" transform="translate(0.000000, 14.608950)"><polygon id="Path-3" fill="url(#linearGradient-4)" points="55.916 9.207 55.916 44.437 89.674 44.437 61.383 9.207 58.701 7.072"/><path id="Path" fill="url(#radialGradient-5)" d="M3.61849793,49.5297457 L42.717672,38.7747809 L50.65383,29.4292624 L92.6132437,19.9427993 L159.549398,95.0574038 C151.127688,109.975876 140.680467,122.341458 128.207738,132.15415 C115.735008,141.966841 100.826556,149.54937 83.4823818,154.901736 L58.9840262,85.6230014 L22.3082506,85.6230014 L0.801061147,57.9394425 C-0.00784347524,55.7070455 -0.204129426,53.9694964 0.212203296,52.7267952 C0.628536017,51.4840941 1.76396756,50.4184109 3.61849793,49.5297457 Z"/><g id="Group" opacity=".796" transform="translate(79.165338, 66.106773)"><g id="Path-8"><use fill="#1A1F2A" fill-rule="evenodd" xlink:href="#path-6"/><use fill="#000" fill-opacity="1" filter="url(#filter-7)" xlink:href="#path-6"/><use stroke="#1A1F2A" stroke-width="1.378" xlink:href="#path-6"/></g><g id="Path-8"><use fill="#1A1F2A" fill-rule="evenodd" xlink:href="#path-8"/><use fill="#000" fill-opacity="1" filter="url(#filter-9)" xlink:href="#path-8"/><use stroke="#1A1F2A" stroke-width="1.378" xlink:href="#path-8"/></g></g><g id="Group" opacity=".796" transform="translate(139.973623, 125.459416) rotate(88.000000) translate(-139.973623, -125.459416) translate(107.042230, 113.003581)"><g id="Path-8"><use fill="#1A1F2A" fill-rule="evenodd" xlink:href="#path-10"/><use fill="#000" fill-opacity="1" filter="url(#filter-11)" xlink:href="#path-10"/><use stroke="#1A1F2A" stroke-width="1.378" xlink:href="#path-10"/></g><g id="Path-8"><use fill="#1A1F2A" fill-rule="evenodd" xlink:href="#path-12"/><use fill="#000" fill-opacity="1" filter="url(#filter-13)" xlink:href="#path-12"/><use stroke="#1A1F2A" stroke-width="1.378" xlink:href="#path-12"/></g></g><g id="Path-7" opacity=".24"><use fill="#1A1F2A" fill-rule="evenodd" xlink:href="#path-14"/><use fill="#000" fill-opacity="1" filter="url(#filter-15)" xlink:href="#path-14"/><use stroke="#1A1F2A" stroke-width="1.378" xlink:href="#path-14"/></g><path id="Path-2" fill="url(#linearGradient-16)" d="M70.5936165,44.4374384 L113.759354,44.4374384 C88.5366439,14.8124795 75.6427612,3.55271368e-15 75.077706,3.55271368e-15 C74.5126508,3.55271368e-15 73.214551,1.00674996 71.1834065,3.02024989 L70.5936165,44.4374384 Z"/><path id="Path-4" fill="url(#linearGradient-17)" d="M0.801061147,57.9394425 C27.015871,51.0796986 41.3396582,47.2560899 43.7724228,46.4686164 C46.2051873,45.6811428 48.1673195,44.238224 49.6588195,42.1398598 C51.6582599,50.2298197 53.7440071,54.2747997 55.916061,54.2747997 C59.1741419,54.2747997 84.2166984,52.8027188 84.2166984,71.7344687 C84.2166984,80.9934905 75.8522108,85.8508364 59.1232357,86.3065064 L22.0411323,86.3065064 L0.801061147,57.9394425 Z"/><ellipse id="Oval" cx="58.595" cy="42.221" fill="#F1F1F1" opacity=".107" rx="4.116" ry="6.228"/><ellipse id="Oval" cx="59.281" cy="42.913" fill="url(#linearGradient-18)" rx="3.43" ry="5.536"/><path id="Path-5" fill="url(#linearGradient-19)" d="M142.400351,88.5349477 C141.425308,87.4222676 82.0156605,132.788522 69.8067936,114.439637 L67.3946851,111.48617 C58.6937993,120.226413 58.5819135,126.893357 67.0590278,131.487003 C79.7746991,138.377472 143.375394,89.6476278 142.400351,88.5349477 Z"/><path id="Path-6" fill="url(#linearGradient-20)" d="M147.182968,92.8751113 C146.582047,92.0414528 89.7399662,144.574033 75.5394741,131.949096 C67.6370765,131.949096 68.3720168,140.859149 69.8075954,143.447268 C71.243174,146.035388 79.2058643,152.860372 95.215663,141.61489 C111.225462,130.369409 147.783888,93.7087697 147.182968,92.8751113 Z"/><ellipse id="Oval" cx="147.784" cy="87.201" fill="#535A6B" rx="8.233" ry="8.304"/><ellipse id="Oval" cx="147.784" cy="87.201" fill="#1A1F2A" opacity=".648" rx="5.489" ry="5.536"/><g id="Path-9" opacity=".796"><use fill="#1A1F2A" fill-rule="evenodd" xlink:href="#path-21"/><use fill="#000" fill-opacity="1" filter="url(#filter-22)" xlink:href="#path-21"/><use stroke="#1A1F2A" stroke-width="1.378" xlink:href="#path-21"/></g><g id="Path-10" opacity=".796"><use fill="#1A1F2A" fill-rule="evenodd" xlink:href="#path-23"/><use fill="#000" fill-opacity="1" filter="url(#filter-24)" xlink:href="#path-23"/><use stroke="#1A1F2A" stroke-width="1.378" xlink:href="#path-23"/></g></g><g id="Group-3-Copy" transform="translate(174.502766, 79.578947) scale(-1, 1) rotate(10.000000) translate(-174.502766, -79.578947) translate(105.583847, 11.368421)"><polygon id="Path-3" fill="url(#linearGradient-25)" points="48.009 7.892 48.009 38.089 76.993 38.089 52.703 7.892 50.4 6.062"/><path id="Path" fill="url(#radialGradient-26)" d="M3.10679115,42.4540677 L36.6767891,33.2355264 L43.4906621,25.2250821 L79.5164214,17.093828 L136.986857,81.4777747 C129.756095,94.2650369 120.78626,104.864107 110.077351,113.274986 C99.3684416,121.685864 88.4095321,127.177663 77.2006221,129.750384 L50.6428508,73.391144 L19.1535485,73.391144 L0.687779772,49.6623793 C-0.00673429693,47.7488961 -0.175262638,46.2595683 0.182194749,45.1943959 C0.539652136,44.1292235 1.5145176,43.2157808 3.10679115,42.4540677 Z"/><g id="Group" opacity=".796" transform="translate(67.970240, 56.662949)"><g id="Path-8"><use fill="#1A1F2A" fill-rule="evenodd" xlink:href="#path-27"/><use fill="#000" fill-opacity="1" filter="url(#filter-28)" xlink:href="#path-27"/><use stroke="#1A1F2A" stroke-width="1.182" xlink:href="#path-27"/></g><g id="Path-8"><use fill="#1A1F2A" fill-rule="evenodd" xlink:href="#path-29"/><use fill="#000" fill-opacity="1" filter="url(#filter-30)" xlink:href="#path-29"/><use stroke="#1A1F2A" stroke-width="1.182" xlink:href="#path-29"/></g></g><g id="Group" opacity=".796" transform="translate(120.179373, 107.536642) rotate(88.000000) translate(-120.179373, -107.536642) translate(91.904945, 96.860212)"><g id="Path-8"><use fill="#1A1F2A" fill-rule="evenodd" xlink:href="#path-31"/><use fill="#000" fill-opacity="1" filter="url(#filter-32)" xlink:href="#path-31"/><use stroke="#1A1F2A" stroke-width="1.182" xlink:href="#path-31"/></g><g id="Path-8"><use fill="#1A1F2A" fill-rule="evenodd" xlink:href="#path-33"/><use fill="#000" fill-opacity="1" filter="url(#filter-34)" xlink:href="#path-33"/><use stroke="#1A1F2A" stroke-width="1.182" xlink:href="#path-33"/></g></g><g id="Path-7" opacity=".24"><use fill="#1A1F2A" fill-rule="evenodd" xlink:href="#path-35"/><use fill="#000" fill-opacity="1" filter="url(#filter-36)" xlink:href="#path-35"/><use stroke="#1A1F2A" stroke-width="1.182" xlink:href="#path-35"/></g><path id="Path-2" fill="url(#linearGradient-37)" d="M60.6106808,38.0892329 L97.6721727,38.0892329 C76.0163104,12.696411 64.9458051,3.55271368e-15 64.4606567,3.55271368e-15 C63.9755082,3.55271368e-15 62.8609781,0.862928539 61.1170662,2.58878562 L60.6106808,38.0892329 Z"/><path id="Path-4" fill="url(#linearGradient-38)" d="M0.687779772,49.6623793 C23.1954448,43.7825988 35.4936459,40.5052199 37.5823832,39.8302426 C39.6711204,39.1552653 41.3557794,37.9184777 42.6363601,36.1198798 C44.3530514,43.0541312 46.1438444,46.5212569 48.0087393,46.5212569 C50.8060815,46.5212569 72.3072663,45.2594733 72.3072663,61.4866874 C72.3072663,69.4229918 65.1256356,73.5864312 50.7623741,73.9770055 L18.9242045,73.9770055 L0.687779772,49.6623793 Z"/><ellipse id="Oval" cx="50.309" cy="36.19" fill="#F1F1F1" opacity=".107" rx="3.534" ry="5.338"/><ellipse id="Oval" cx="50.898" cy="36.783" fill="url(#linearGradient-39)" rx="2.945" ry="4.745"/><path id="Path-5" fill="url(#linearGradient-40)" d="M122.262928,75.887098 C121.42577,74.9333722 70.4174863,113.818733 59.9351258,98.0911172 L57.8641235,95.5595742 C50.393666,103.051211 50.2976025,108.765735 57.5759329,112.703145 C68.4934285,118.609261 123.100086,76.8408238 122.262928,75.887098 Z"/><path id="Path-6" fill="url(#linearGradient-41)" d="M126.369215,79.6072382 C125.853273,78.8926739 77.049466,123.9206 64.8571242,113.099225 C58.0722374,113.099225 58.7032467,120.736413 59.9358142,122.954801 C61.1683817,125.17319 68.005035,131.023176 81.7508218,121.384192 C95.4966086,111.745207 126.885157,80.3218026 126.369215,79.6072382 Z"/><ellipse id="Oval" cx="126.885" cy="74.743" fill="#535A6B" rx="7.069" ry="7.118"/><ellipse id="Oval" cx="126.885" cy="74.743" fill="#1A1F2A" opacity=".648" rx="4.712" ry="4.745"/><g id="Path-9" opacity=".796"><use fill="#1A1F2A" fill-rule="evenodd" xlink:href="#path-42"/><use fill="#000" fill-opacity="1" filter="url(#filter-43)" xlink:href="#path-42"/><use stroke="#1A1F2A" stroke-width="1.182" xlink:href="#path-42"/></g><g id="Path-10" opacity=".796"><use fill="#1A1F2A" fill-rule="evenodd" xlink:href="#path-44"/><use fill="#000" fill-opacity="1" filter="url(#filter-45)" xlink:href="#path-44"/><use stroke="#1A1F2A" stroke-width="1.182" xlink:href="#path-44"/></g></g><g id="Group-3-Copy" transform="translate(145.135135, 136.413462) scale(-1, 1) translate(-145.135135, -136.413462) translate(50.270270, 45.466093)"><polygon id="Path-3" fill="url(#linearGradient-46)" points="66.083 10.805 66.083 52.146 105.979 52.146 72.544 10.805 69.374 8.299"/><path id="Path" fill="url(#radialGradient-47)" d="M4.27640665,58.1216404 L50.4845215,45.5010184 L59.8636172,34.5343385 L109.452015,23.4022645 L188.55838,111.546953 C178.605449,129.053324 166.258734,143.563956 151.518236,155.078849 C136.777737,166.593743 119.158658,175.491608 98.6609967,181.772445 L69.7083946,100.475971 L26.3642962,100.475971 L0.946708628,67.9901621 C-0.00926956165,65.3705126 -0.241243867,63.3315519 0.250785713,61.8732801 C0.742815293,60.4150083 2.08468894,59.1644617 4.27640665,58.1216404 Z"/><g id="Group" opacity=".796" transform="translate(93.559036, 77.574275)"><g id="Path-8"><use fill="#1A1F2A" fill-rule="evenodd" xlink:href="#path-48"/><use fill="#000" fill-opacity="1" filter="url(#filter-49)" xlink:href="#path-48"/><use stroke="#1A1F2A" stroke-width="1.622" xlink:href="#path-48"/></g><g id="Path-8"><use fill="#1A1F2A" fill-rule="evenodd" xlink:href="#path-50"/><use fill="#000" fill-opacity="1" filter="url(#filter-51)" xlink:href="#path-50"/><use stroke="#1A1F2A" stroke-width="1.622" xlink:href="#path-50"/></g></g><g id="Group" opacity=".796" transform="translate(170.359871, 125.924487) rotate(88.000000) translate(-170.359871, -125.924487) translate(152.522033, 116.992156)"><g id="Path-8"><use fill="#1A1F2A" fill-rule="evenodd" xlink:href="#path-52"/><use fill="#000" fill-opacity="1" filter="url(#filter-53)" xlink:href="#path-52"/><use stroke="#1A1F2A" stroke-width="1.622" xlink:href="#path-52"/></g><g id="Path-8"><use fill="#1A1F2A" fill-rule="evenodd" xlink:href="#path-54"/><use fill="#000" fill-opacity="1" filter="url(#filter-55)" xlink:href="#path-54"/><use stroke="#1A1F2A" stroke-width="1.622" xlink:href="#path-54"/></g></g><g id="Path-7" opacity=".24"><use fill="#1A1F2A" fill-rule="evenodd" xlink:href="#path-56"/><use fill="#000" fill-opacity="1" filter="url(#filter-57)" xlink:href="#path-56"/><use stroke="#1A1F2A" stroke-width="1.622" xlink:href="#path-56"/></g><path id="Path-2" fill="url(#linearGradient-58)" d="M83.4288195,52.1459737 L134.442873,52.1459737 C104.634216,17.3819912 89.3959905,3.55271368e-15 88.728198,3.55271368e-15 C88.0604055,3.55271368e-15 86.5262875,1.18139026 84.1258441,3.54417079 L83.4288195,52.1459737 Z"/><path id="Path-4" fill="url(#linearGradient-59)" d="M0.946708628,67.9901621 C31.9278476,59.9404627 48.8559597,55.4535749 51.7310451,54.5294988 C54.6061304,53.6054227 56.925014,51.9122016 58.6876957,49.4498354 C61.0506708,58.9431558 63.5156447,63.689816 66.0826176,63.689816 C69.9330768,63.689816 99.5288254,61.9623741 99.5288254,84.178203 C99.5288254,95.0433817 89.6435219,100.743328 69.8729149,101.278043 L26.0486109,101.278043 L0.946708628,67.9901621 Z"/><ellipse id="Oval" cx="69.248" cy="49.545" fill="#F1F1F1" opacity=".107" rx="4.865" ry="7.308"/><ellipse id="Oval" cx="70.059" cy="50.357" fill="url(#linearGradient-60)" rx="4.054" ry="6.496"/><path id="Path-5" fill="url(#linearGradient-61)" d="M168.291324,103.893051 C167.139001,102.587355 96.9275987,155.823265 82.4989379,134.291411 L79.6482642,130.825607 C69.3653991,141.082015 69.2331705,148.90547 79.2515783,154.295973 C94.2791899,162.381727 169.443648,105.198747 168.291324,103.893051 Z"/><path id="Path-6" fill="url(#linearGradient-62)" d="M173.943507,108.9861 C173.233328,108.007827 106.056324,169.653202 89.2739239,154.838225 C79.9347267,154.838225 80.8032925,165.293899 82.4998854,168.330978 C84.1964783,171.368057 93.6069306,179.376967 112.527602,166.180739 C131.448273,152.98451 174.653686,109.964373 173.943507,108.9861 Z"/><ellipse id="Oval" cx="174.654" cy="102.327" fill="#535A6B" rx="9.73" ry="9.744"/><ellipse id="Oval" cx="174.654" cy="102.327" fill="#1A1F2A" opacity=".648" rx="6.486" ry="6.496"/><g id="Path-9" opacity=".796"><use fill="#1A1F2A" fill-rule="evenodd" xlink:href="#path-63"/><use fill="#000" fill-opacity="1" filter="url(#filter-64)" xlink:href="#path-63"/><use stroke="#1A1F2A" stroke-width="1.622" xlink:href="#path-63"/></g><g id="Path-10" opacity=".796"><use fill="#1A1F2A" fill-rule="evenodd" xlink:href="#path-65"/><use fill="#000" fill-opacity="1" filter="url(#filter-66)" xlink:href="#path-65"/><use stroke="#1A1F2A" stroke-width="1.622" xlink:href="#path-65"/></g></g></g></g></g></g></g></g></svg>